#define dfwu_width 128
#define dfwu_height 64
static unsigned char dfwu_bits[] = {
   0x00, 0x00, 0x00, 0x00, 0x00, 0x00, 0x00, 0x00, 0x00, 0x00, 0x00, 0x00,
   0x00, 0x00, 0x00, 0x00, 0x00, 0x00, 0x00, 0x00, 0x00, 0x00, 0x00, 0x00,
   0x00, 0x00, 0x00, 0x00, 0x00, 0x00, 0x00, 0x00, 0x00, 0x00, 0x00, 0x00,
   0x00, 0x00, 0x00, 0x00, 0x00, 0x00, 0x00, 0x00, 0x00, 0x00, 0x00, 0x00,
   0x00, 0x00, 0x00, 0x00, 0x00, 0x00, 0x00, 0x00, 0x00, 0x00, 0x00, 0x00,
   0x00, 0x00, 0x00, 0x00, 0x00, 0x00, 0x00, 0x00, 0x00, 0x00, 0x00, 0x00,
   0x00, 0x00, 0x00, 0x00, 0x00, 0x00, 0x00, 0x00, 0x00, 0x00, 0x00, 0x00,
   0x00, 0x00, 0x00, 0x00, 0x00, 0x00, 0x00, 0x00, 0x00, 0x00, 0x00, 0x00,
   0x00, 0x00, 0x00, 0x00, 0x00, 0x00, 0x00, 0x00, 0x00, 0x00, 0x00, 0x00,
   0x00, 0x00, 0x00, 0x00, 0x00, 0x00, 0x00, 0x00, 0x00, 0x00, 0x00, 0x00,
   0x00, 0x00, 0x00, 0x00, 0x00, 0x00, 0x00, 0x00, 0x00, 0x00, 0x00, 0x00,
   0x00, 0x00, 0x00, 0x00, 0x00, 0x00, 0x00, 0x00, 0x00, 0x00, 0x00, 0x00,
   0x00, 0x00, 0x00, 0x00, 0x00, 0x00, 0x00, 0x00, 0x00, 0x00, 0x00, 0x00,
   0x00, 0x00, 0x00, 0x00, 0x00, 0x00, 0x00, 0x00, 0x00, 0x00, 0x00, 0x00,
   0x00, 0x00, 0x00, 0x00, 0x00, 0x00, 0x00, 0x00, 0x00, 0x00, 0x00, 0x00,
   0x00, 0x00, 0x00, 0x00, 0x00, 0x00, 0x00, 0x00, 0x00, 0x00, 0x00, 0x00,
   0x00, 0x00, 0x00, 0x00, 0x00, 0x00, 0x00, 0x00, 0x00, 0x00, 0x00, 0x00,
   0x00, 0x00, 0x00, 0x00, 0x00, 0x00, 0x00, 0x00, 0x00, 0x00, 0x30, 0x00,
   0x00, 0x00, 0x00, 0x00, 0x00, 0x00, 0x00, 0x00, 0x00, 0x00, 0xe0, 0x07,
   0x3e, 0x0c, 0x33, 0xff, 0x00, 0x3f, 0xc3, 0xf0, 0x31, 0x06, 0x00, 0x00,
   0x00, 0x00, 0xe0, 0x0f, 0x7f, 0x0c, 0x33, 0xff, 0x00, 0x3f, 0xc3, 0xf8,
   0x33, 0x03, 0x00, 0x00, 0x00, 0x00, 0x60, 0x9c, 0xc1, 0x1c, 0x33, 0x18,
   0x00, 0x03, 0xc3, 0x0c, 0xb3, 0x01, 0x00, 0x00, 0x00, 0x00, 0x60, 0x98,
   0xc1, 0x3c, 0x03, 0x18, 0x00, 0x03, 0xc3, 0x0c, 0xf0, 0x00, 0x00, 0x00,
   0x00, 0x00, 0x60, 0x98, 0xc1, 0x7c, 0x03, 0x18, 0x00, 0x1f, 0xc3, 0x0c,
   0x70, 0x00, 0x00, 0x00, 0x00, 0x00, 0x60, 0x98, 0xc1, 0xec, 0x03, 0x18,
   0x00, 0x1f, 0xc3, 0x0c, 0x70, 0x00, 0x00, 0x00, 0x00, 0x00, 0x60, 0x98,
   0xc1, 0xcc, 0x03, 0x18, 0x00, 0x03, 0xc3, 0x0c, 0xf0, 0x00, 0x00, 0x00,
   0x00, 0x00, 0x60, 0x9c, 0xc1, 0x8c, 0x03, 0x18, 0x00, 0x03, 0xc3, 0x0c,
   0xb3, 0x01, 0x00, 0x00, 0x00, 0x00, 0xe0, 0x0f, 0x7f, 0x0c, 0x03, 0x18,
   0x00, 0x03, 0x7e, 0xf8, 0x33, 0x03, 0x00, 0x00, 0x00, 0x00, 0xe0, 0x07,
   0x3e, 0x0c, 0x03, 0x18, 0x00, 0x03, 0x3c, 0xf0, 0x31, 0x06, 0x00, 0x00,
   0x00, 0x00, 0x00, 0x00, 0x00, 0x00, 0x00, 0x00, 0x00, 0x00, 0x00, 0x00,
   0x00, 0x00, 0x00, 0x00, 0x00, 0x00, 0x00, 0x00, 0x00, 0x00, 0x00, 0x00,
   0x00, 0x00, 0x00, 0x00, 0x00, 0x00, 0x00, 0x00, 0x00, 0x00, 0x00, 0x00,
   0x00, 0x00, 0x00, 0x00, 0x00, 0x00, 0x00, 0x00, 0x00, 0x00, 0x00, 0x00,
   0x00, 0x00, 0x00, 0x00, 0x00, 0x00, 0x00, 0x00, 0x00, 0x00, 0x00, 0x00,
   0x00, 0x00, 0x00, 0x00, 0x00, 0x00, 0x00, 0x00, 0x00, 0x00, 0x00, 0x00,
   0x00, 0x00, 0x00, 0x00, 0x00, 0x00, 0x00, 0x00, 0x00, 0x00, 0x00, 0x00,
   0x00, 0x00, 0x00, 0x00, 0x00, 0x00, 0x00, 0x00, 0x00, 0x00, 0x00, 0x00,
   0x00, 0x00, 0x00, 0x00, 0x00, 0x00, 0x00, 0x00, 0x00, 0x00, 0x00, 0x00,
   0x00, 0x00, 0x00, 0x00, 0x00, 0x00, 0x00, 0x00, 0x00, 0x00, 0x00, 0x00,
   0x00, 0x00, 0x00, 0x00, 0x00, 0x00, 0x00, 0x00, 0x00, 0x00, 0x0c, 0x00,
   0x00, 0x00, 0x00, 0x00, 0x00, 0x00, 0x00, 0x00, 0x00, 0x00, 0x00, 0x00,
   0x00, 0x00, 0x0c, 0x00, 0x00, 0x00, 0x00, 0x00, 0x00, 0x00, 0x00, 0x00,
   0x00, 0x00, 0x00, 0x00, 0x00, 0x00, 0x0c, 0x00, 0x00, 0x00, 0x00, 0x00,
   0x00, 0x00, 0x00, 0x00, 0x00, 0x00, 0x00, 0x00, 0x00, 0x00, 0x0c, 0x00,
   0x00, 0x00, 0x00, 0x00, 0x00, 0x00, 0x00, 0x00, 0x00, 0x00, 0x00, 0x00,
   0x00, 0x20, 0x0c, 0x01, 0x00, 0x00, 0x00, 0x00, 0x00, 0x00, 0x00, 0x00,
   0x00, 0x00, 0x00, 0x00, 0x00, 0x20, 0x0c, 0x01, 0x00, 0x00, 0x00, 0x00,
   0x00, 0x00, 0x00, 0x00, 0x00, 0x00, 0x00, 0x00, 0x00, 0x60, 0x8c, 0x99,
   0x7f, 0x86, 0x01, 0x86, 0x19, 0xf3, 0x83, 0xc3, 0x0c, 0xf3, 0x03, 0x00,
   0x00, 0x60, 0x8c, 0x99, 0x7f, 0x86, 0x01, 0x86, 0x99, 0x31, 0x87, 0xc3,
   0x0c, 0xf3, 0x03, 0x00, 0x00, 0x60, 0x8c, 0x19, 0x0c, 0x86, 0x01, 0x86,
   0xd9, 0x30, 0xc6, 0xc6, 0x1c, 0x33, 0x00, 0x00, 0x00, 0xe0, 0xcc, 0x19,
   0x0c, 0x86, 0x01, 0x86, 0x79, 0x30, 0xc6, 0xc6, 0x3c, 0x33, 0x00, 0x00,
   0x00, 0x60, 0xad, 0x19, 0x0c, 0xfe, 0x01, 0x86, 0x39, 0x30, 0x43, 0xc4,
   0x7c, 0xf3, 0x01, 0x00, 0x00, 0x60, 0x9e, 0x19, 0x0c, 0xfe, 0x01, 0x86,
   0x39, 0xf0, 0x61, 0xcc, 0xec, 0xf3, 0x01, 0x00, 0x00, 0x60, 0x8c, 0x19,
   0x0c, 0x86, 0x01, 0x86, 0x79, 0xf0, 0xe0, 0xcf, 0xcc, 0x33, 0x00, 0x00,
   0x00, 0xc0, 0xde, 0x18, 0x0c, 0x86, 0x01, 0x86, 0xd9, 0xb0, 0x61, 0xcc,
   0x8c, 0x33, 0x00, 0x00, 0x00, 0x80, 0x73, 0x18, 0x0c, 0x86, 0x01, 0xfc,
   0x98, 0x31, 0x63, 0xcc, 0x0c, 0xf3, 0x03, 0x00, 0x00, 0x00, 0x21, 0x18,
   0x0c, 0x86, 0x01, 0x78, 0x18, 0x33, 0x66, 0xcc, 0x0c, 0xf3, 0x03, 0x00,
   0x00, 0x00, 0x00, 0x00, 0x00, 0x00, 0x00, 0x00, 0x00, 0x00, 0x00, 0x00,
   0x00, 0x00, 0x00, 0x00, 0x00, 0x00, 0x00, 0x00, 0x00, 0x00, 0x00, 0x00,
   0x00, 0x00, 0x00, 0x00, 0x00, 0x00, 0x00, 0x00, 0x00, 0x00, 0x00, 0x00,
   0x00, 0x00, 0x00, 0x00, 0x00, 0x00, 0x00, 0x00, 0x00, 0x00, 0x00, 0x00,
   0x00, 0x00, 0x00, 0x00, 0x00, 0x00, 0x00, 0x00, 0x00, 0x00, 0x00, 0x00,
   0x00, 0x00, 0x00, 0x00, 0x00, 0x00, 0x00, 0x00, 0x00, 0x00, 0x00, 0x00,
   0x00, 0x00, 0x00, 0x00, 0x00, 0x00, 0x00, 0x00, 0x00, 0x00, 0x00, 0x00,
   0x00, 0x00, 0x00, 0x00, 0x00, 0x00, 0x00, 0x00, 0x00, 0x00, 0x00, 0x00,
   0x00, 0x00, 0x00, 0x00, 0x00, 0x00, 0x00, 0x00, 0x00, 0x00, 0x00, 0x00,
   0x00, 0x00, 0x00, 0x00, 0x00, 0x00, 0x00, 0x00, 0x00, 0x00, 0x00, 0x00,
   0x00, 0x00, 0x00, 0x00, 0x00, 0x00, 0x00, 0x00, 0x00, 0x00, 0x00, 0x00,
   0x00, 0x00, 0x00, 0x00, 0x00, 0x00, 0x00, 0x00, 0x00, 0x00, 0x00, 0x00,
   0x00, 0x00, 0x00, 0x00, 0x00, 0x00, 0x00, 0x00, 0x00, 0x00, 0x00, 0x00,
   0x00, 0x00, 0x00, 0x00, 0x00, 0x00, 0x00, 0x00, 0x00, 0x00, 0x00, 0x00,
   0x00, 0x00, 0x00, 0x00, 0x00, 0x00, 0x00, 0x00, 0x00, 0x00, 0x00, 0x00,
   0x00, 0x00, 0x00, 0x00, 0x00, 0x00, 0x00, 0x00, 0x00, 0x00, 0x00, 0x00,
   0x00, 0x00, 0x00, 0x00, 0x00, 0x00, 0x00, 0x00, 0x00, 0x00, 0x00, 0x00,
   0x00, 0x00, 0x00, 0x00, 0x00, 0x00, 0x00, 0x00, 0x00, 0x00, 0x00, 0x00,
   0x00, 0x00, 0x00, 0x00, 0x00, 0x00, 0x00, 0x00, 0x00, 0x00, 0x00, 0x00,
   0x00, 0x00, 0x00, 0x00, 0x00, 0x00, 0x00, 0x00, 0x00, 0x00, 0x00, 0x00,
   0x00, 0x00, 0x00, 0x00, 0x00, 0x00, 0x00, 0x00, 0x00, 0x00, 0x00, 0x00,
   0x00, 0x00, 0x00, 0x00 };
