#define Tryzub1_width 46
#define Tryzub1_height 64
static unsigned char Tryzub1_bits[] = {
   0xff, 0xff, 0xff, 0xff, 0xff, 0x3f, 0x01, 0x00, 0x00, 0x00, 0x00, 0x20,
   0x01, 0x00, 0x00, 0x00, 0x00, 0x20, 0x01, 0x00, 0x00, 0x00, 0x00, 0x20,
   0x01, 0x00, 0x00, 0x00, 0x00, 0x20, 0x01, 0x00, 0xc0, 0x00, 0x00, 0x20,
   0x01, 0x00, 0xc0, 0x00, 0x00, 0x20, 0x01, 0x00, 0xe0, 0x01, 0x00, 0x20,
   0x01, 0x00, 0xe0, 0x01, 0x00, 0x20, 0x81, 0x01, 0xe0, 0x01, 0x60, 0x20,
   0x81, 0x03, 0xe0, 0x01, 0x70, 0x20, 0x81, 0x07, 0xe0, 0x01, 0x78, 0x20,
   0x81, 0x0f, 0xe0, 0x01, 0x7c, 0x20, 0x81, 0x1f, 0xe0, 0x01, 0x7e, 0x20,
   0x81, 0x1f, 0xe0, 0x01, 0x7e, 0x20, 0x81, 0x39, 0xe0, 0x01, 0x6f, 0x20,
   0x81, 0x39, 0xe0, 0x01, 0x67, 0x20, 0x81, 0x71, 0xe0, 0x81, 0x63, 0x20,
   0x81, 0x71, 0xe0, 0x81, 0x63, 0x20, 0x81, 0x71, 0xe0, 0x81, 0x63, 0x20,
   0x81, 0xe1, 0xe0, 0x81, 0x61, 0x20, 0x81, 0xe1, 0xe0, 0xc1, 0x61, 0x20,
   0x81, 0xe1, 0xe0, 0xc1, 0x61, 0x20, 0x81, 0xe1, 0xe0, 0xc1, 0x61, 0x20,
   0x81, 0xe1, 0xe0, 0xc1, 0x61, 0x20, 0x81, 0xe1, 0xe0, 0xc1, 0x61, 0x20,
   0x81, 0xc1, 0xe0, 0xc1, 0x60, 0x20, 0x81, 0xc1, 0xe0, 0xc1, 0x60, 0x20,
   0x81, 0xc1, 0xe0, 0xc1, 0x60, 0x20, 0x81, 0xc1, 0xe0, 0xc1, 0x60, 0x20,
   0x81, 0xe1, 0xf0, 0xc3, 0x61, 0x20, 0x81, 0xf1, 0xf0, 0xc3, 0x63, 0x20,
   0x81, 0xf1, 0x30, 0xc3, 0x63, 0x20, 0x81, 0x39, 0x38, 0x07, 0x67, 0x20,
   0x81, 0x3f, 0x38, 0x07, 0x7f, 0x20, 0x81, 0x3f, 0x3c, 0x0f, 0x7f, 0x20,
   0x81, 0x3f, 0x1c, 0x0e, 0x7f, 0x20, 0x81, 0x79, 0x0e, 0x9c, 0x67, 0x20,
   0x81, 0xf1, 0x0f, 0xfc, 0x63, 0x20, 0x81, 0xe1, 0x1f, 0xfe, 0x61, 0x20,
   0x81, 0x81, 0x3f, 0x7f, 0x60, 0x20, 0x81, 0x01, 0xff, 0x3f, 0x60, 0x20,
   0x81, 0x01, 0xe3, 0x31, 0x60, 0x20, 0x81, 0x01, 0xe3, 0x31, 0x60, 0x20,
   0x81, 0x01, 0xe7, 0x39, 0x60, 0x20, 0x81, 0xff, 0xff, 0xff, 0x7f, 0x20,
   0x81, 0xff, 0xff, 0xff, 0x7f, 0x20, 0x01, 0x00, 0xc7, 0x38, 0x00, 0x20,
   0x01, 0x00, 0xc7, 0x38, 0x00, 0x20, 0x01, 0x00, 0xce, 0x1c, 0x00, 0x20,
   0x01, 0x00, 0xce, 0x1c, 0x00, 0x20, 0x01, 0x00, 0xde, 0x1e, 0x00, 0x20,
   0x02, 0x00, 0xfc, 0x0f, 0x00, 0x10, 0x04, 0x00, 0xf8, 0x07, 0x00, 0x08,
   0x08, 0x00, 0xf0, 0x03, 0x00, 0x04, 0x30, 0x00, 0xe0, 0x01, 0x00, 0x03,
   0xc0, 0x00, 0xc0, 0x00, 0xc0, 0x00, 0x00, 0x03, 0x00, 0x00, 0x30, 0x00,
   0x00, 0x0c, 0x00, 0x00, 0x0c, 0x00, 0x00, 0x70, 0x00, 0x80, 0x03, 0x00,
   0x00, 0x80, 0x01, 0x60, 0x00, 0x00, 0x00, 0x00, 0x06, 0x18, 0x00, 0x00,
   0x00, 0x00, 0x38, 0x07, 0x00, 0x00, 0x00, 0x00, 0xc0, 0x00, 0x00, 0x00 };
