G04 #@! TF.GenerationSoftware,KiCad,Pcbnew,(5.1.9)-1*
G04 #@! TF.CreationDate,2021-04-15T17:27:27+03:00*
G04 #@! TF.ProjectId,Cbc_power_supply_module,4362635f-706f-4776-9572-5f737570706c,rev?*
G04 #@! TF.SameCoordinates,Original*
G04 #@! TF.FileFunction,Copper,L1,Top*
G04 #@! TF.FilePolarity,Positive*
%FSLAX46Y46*%
G04 Gerber Fmt 4.6, Leading zero omitted, Abs format (unit mm)*
G04 Created by KiCad (PCBNEW (5.1.9)-1) date 2021-04-15 17:27:27*
%MOMM*%
%LPD*%
G01*
G04 APERTURE LIST*
G04 #@! TA.AperFunction,ComponentPad*
%ADD10O,1.700000X1.700000*%
G04 #@! TD*
G04 #@! TA.AperFunction,ComponentPad*
%ADD11R,1.700000X1.700000*%
G04 #@! TD*
G04 #@! TA.AperFunction,SMDPad,CuDef*
%ADD12R,2.200000X1.500000*%
G04 #@! TD*
G04 #@! TA.AperFunction,SMDPad,CuDef*
%ADD13R,2.300000X2.500000*%
G04 #@! TD*
G04 #@! TA.AperFunction,ComponentPad*
%ADD14C,1.600000*%
G04 #@! TD*
G04 #@! TA.AperFunction,ComponentPad*
%ADD15R,1.600000X1.600000*%
G04 #@! TD*
G04 #@! TA.AperFunction,ViaPad*
%ADD16C,0.800000*%
G04 #@! TD*
G04 #@! TA.AperFunction,Conductor*
%ADD17C,0.500000*%
G04 #@! TD*
G04 #@! TA.AperFunction,Conductor*
%ADD18C,0.400000*%
G04 #@! TD*
G04 #@! TA.AperFunction,Conductor*
%ADD19C,0.300000*%
G04 #@! TD*
G04 #@! TA.AperFunction,Conductor*
%ADD20C,0.100000*%
G04 #@! TD*
G04 APERTURE END LIST*
D10*
X240474000Y-39560500D03*
X240474000Y-37020500D03*
X240474000Y-34480500D03*
D11*
X240474000Y-31940500D03*
D12*
X225552000Y-26366000D03*
X225552000Y-32766000D03*
D10*
X203264000Y-40767000D03*
X203264000Y-38227000D03*
X203264000Y-35687000D03*
X203264000Y-33147000D03*
D11*
X203264000Y-30607000D03*
D12*
X225679000Y-38392500D03*
X225679000Y-44792500D03*
D13*
X217360000Y-26606500D03*
X217360000Y-30906500D03*
X218186000Y-43933000D03*
X218186000Y-39633000D03*
D14*
X234442000Y-26680000D03*
D15*
X234442000Y-30480000D03*
D14*
X236337000Y-42735500D03*
D15*
X232537000Y-42735500D03*
D14*
X209550000Y-26680000D03*
D15*
X209550000Y-30480000D03*
D14*
X209550000Y-44503500D03*
D15*
X209550000Y-40703500D03*
D16*
X223747600Y-29080600D03*
X220492400Y-34830100D03*
X220634900Y-30656300D03*
X226180900Y-30656300D03*
X207950600Y-36283500D03*
X220965300Y-37882700D03*
X215115300Y-37882700D03*
X222580400Y-41779100D03*
X219472300Y-31061000D03*
X227773500Y-33387100D03*
X211723900Y-40440400D03*
X220463600Y-40413400D03*
X220995800Y-42302600D03*
D17*
X218186000Y-43933000D02*
X216285700Y-43933000D01*
X209550000Y-44503500D02*
X215715200Y-44503500D01*
X215715200Y-44503500D02*
X216285700Y-43933000D01*
X217360000Y-26606500D02*
X215459700Y-26606500D01*
X209550000Y-26680000D02*
X215386200Y-26680000D01*
X215386200Y-26680000D02*
X215459700Y-26606500D01*
X240474000Y-34480500D02*
X238873700Y-34480500D01*
X234442000Y-26680000D02*
X238873700Y-31111700D01*
X238873700Y-31111700D02*
X238873700Y-34480500D01*
X218186000Y-43933000D02*
X220086300Y-43933000D01*
X220086300Y-43933000D02*
X222446200Y-46292900D01*
X222446200Y-46292900D02*
X232779600Y-46292900D01*
X232779600Y-46292900D02*
X236337000Y-42735500D01*
X236337000Y-42735500D02*
X236337000Y-41157500D01*
X236337000Y-41157500D02*
X240474000Y-37020500D01*
X209550000Y-40703500D02*
X209550000Y-39153200D01*
X203264000Y-35687000D02*
X204864300Y-35687000D01*
X204864300Y-35687000D02*
X208330500Y-39153200D01*
X208330500Y-39153200D02*
X209550000Y-39153200D01*
X213864000Y-30918700D02*
X217775400Y-34830100D01*
X217775400Y-34830100D02*
X220492400Y-34830100D01*
X211100300Y-30480000D02*
X213425300Y-30480000D01*
X213425300Y-30480000D02*
X213864000Y-30918700D01*
X213864000Y-30918700D02*
X215913400Y-28869300D01*
X215913400Y-28869300D02*
X223536300Y-28869300D01*
X223536300Y-28869300D02*
X223747600Y-29080600D01*
X209550000Y-30480000D02*
X211100300Y-30480000D01*
X208774900Y-30480000D02*
X209550000Y-30480000D01*
X208774900Y-30480000D02*
X207999700Y-30480000D01*
X207999700Y-30480000D02*
X205332700Y-33147000D01*
X205332700Y-33147000D02*
X203264000Y-33147000D01*
D18*
X220634900Y-30656300D02*
X226180900Y-30656300D01*
X225679000Y-38392500D02*
X227279300Y-38392500D01*
X232537000Y-42735500D02*
X231236700Y-42735500D01*
X227279300Y-38392500D02*
X227279300Y-38778100D01*
X227279300Y-38778100D02*
X231236700Y-42735500D01*
X234442000Y-30480000D02*
X233141700Y-30480000D01*
X233141700Y-30480000D02*
X229027700Y-26366000D01*
X229027700Y-26366000D02*
X225552000Y-26366000D01*
X215115300Y-37882700D02*
X209549800Y-37882700D01*
X209549800Y-37882700D02*
X207950600Y-36283500D01*
X220965300Y-37882700D02*
X215115300Y-37882700D01*
X222623000Y-41736500D02*
X222623000Y-41232900D01*
X222623000Y-41232900D02*
X220858900Y-39468800D01*
X220858900Y-39468800D02*
X220000500Y-39468800D01*
X220000500Y-39468800D02*
X219836300Y-39633000D01*
X225679000Y-44792500D02*
X225679000Y-43542200D01*
X222580400Y-41779100D02*
X222623000Y-41736500D01*
X222623000Y-41736500D02*
X224428700Y-43542200D01*
X224428700Y-43542200D02*
X225679000Y-43542200D01*
X218186000Y-39633000D02*
X219836300Y-39633000D01*
X225552000Y-32766000D02*
X223951700Y-32766000D01*
X219472300Y-31061000D02*
X221177300Y-32766000D01*
X221177300Y-32766000D02*
X223951700Y-32766000D01*
X219010300Y-30906500D02*
X219164800Y-31061000D01*
X219164800Y-31061000D02*
X219472300Y-31061000D01*
X217360000Y-30906500D02*
X219010300Y-30906500D01*
X227152300Y-32766000D02*
X227773400Y-33387100D01*
X227773400Y-33387100D02*
X227773500Y-33387100D01*
X225552000Y-32766000D02*
X227152300Y-32766000D01*
X220463600Y-41401700D02*
X220463600Y-40413400D01*
X220463600Y-41401700D02*
X212685200Y-41401700D01*
X212685200Y-41401700D02*
X211723900Y-40440400D01*
X220995800Y-42302600D02*
X220463600Y-41770400D01*
X220463600Y-41770400D02*
X220463600Y-41401700D01*
D19*
X207291920Y-40094519D02*
X207335761Y-40147939D01*
X207548938Y-40322890D01*
X207594436Y-40347209D01*
X207594436Y-41503500D01*
X207616640Y-41728939D01*
X207682398Y-41945715D01*
X207789184Y-42145497D01*
X207932893Y-42320607D01*
X208108003Y-42464316D01*
X208307785Y-42571102D01*
X208524561Y-42636860D01*
X208750000Y-42659064D01*
X210350000Y-42659064D01*
X210575439Y-42636860D01*
X210792215Y-42571102D01*
X210991997Y-42464316D01*
X211167107Y-42320607D01*
X211310816Y-42145497D01*
X211383614Y-42009302D01*
X211683709Y-42309397D01*
X211725987Y-42360913D01*
X211931551Y-42529615D01*
X212166078Y-42654972D01*
X212420554Y-42732167D01*
X212618879Y-42751700D01*
X212618888Y-42751700D01*
X212685199Y-42758231D01*
X212751510Y-42751700D01*
X216375039Y-42751700D01*
X216378000Y-43664500D01*
X216542500Y-43829000D01*
X218082000Y-43829000D01*
X218082000Y-43809000D01*
X218290000Y-43809000D01*
X218290000Y-43829000D01*
X219829500Y-43829000D01*
X219994000Y-43664500D01*
X219994555Y-43493387D01*
X220007732Y-43506564D01*
X220261600Y-43676192D01*
X220543682Y-43793035D01*
X220843138Y-43852600D01*
X221148462Y-43852600D01*
X221447918Y-43793035D01*
X221730000Y-43676192D01*
X221983868Y-43506564D01*
X222199764Y-43290668D01*
X222203842Y-43284565D01*
X222276287Y-43298975D01*
X223423436Y-44446124D01*
X223423436Y-45542500D01*
X223445640Y-45767939D01*
X223507243Y-45971017D01*
X202406500Y-46003680D01*
X202406500Y-45493725D01*
X208706853Y-45493725D01*
X208775173Y-45746894D01*
X209032635Y-45874164D01*
X209309980Y-45948760D01*
X209596547Y-45967815D01*
X209881327Y-45930598D01*
X210153374Y-45838538D01*
X210324827Y-45746894D01*
X210393147Y-45493725D01*
X209550000Y-44650578D01*
X208706853Y-45493725D01*
X202406500Y-45493725D01*
X202406500Y-44550047D01*
X208085685Y-44550047D01*
X208122902Y-44834827D01*
X208214962Y-45106874D01*
X208306606Y-45278327D01*
X208559775Y-45346647D01*
X209402922Y-44503500D01*
X209697078Y-44503500D01*
X210540225Y-45346647D01*
X210793394Y-45278327D01*
X210840516Y-45183000D01*
X216374816Y-45183000D01*
X216387520Y-45311991D01*
X216425146Y-45436024D01*
X216486246Y-45550334D01*
X216568472Y-45650528D01*
X216668666Y-45732754D01*
X216782976Y-45793854D01*
X216907009Y-45831480D01*
X217036000Y-45844184D01*
X217917500Y-45841000D01*
X218082000Y-45676500D01*
X218082000Y-44037000D01*
X218290000Y-44037000D01*
X218290000Y-45676500D01*
X218454500Y-45841000D01*
X219336000Y-45844184D01*
X219464991Y-45831480D01*
X219589024Y-45793854D01*
X219703334Y-45732754D01*
X219803528Y-45650528D01*
X219885754Y-45550334D01*
X219946854Y-45436024D01*
X219984480Y-45311991D01*
X219997184Y-45183000D01*
X219994000Y-44201500D01*
X219829500Y-44037000D01*
X218290000Y-44037000D01*
X218082000Y-44037000D01*
X216542500Y-44037000D01*
X216378000Y-44201500D01*
X216374816Y-45183000D01*
X210840516Y-45183000D01*
X210920664Y-45020865D01*
X210995260Y-44743520D01*
X211014315Y-44456953D01*
X210977098Y-44172173D01*
X210885038Y-43900126D01*
X210793394Y-43728673D01*
X210540225Y-43660353D01*
X209697078Y-44503500D01*
X209402922Y-44503500D01*
X208559775Y-43660353D01*
X208306606Y-43728673D01*
X208179336Y-43986135D01*
X208104740Y-44263480D01*
X208085685Y-44550047D01*
X202406500Y-44550047D01*
X202406500Y-43513275D01*
X208706853Y-43513275D01*
X209550000Y-44356422D01*
X210393147Y-43513275D01*
X210324827Y-43260106D01*
X210067365Y-43132836D01*
X209790020Y-43058240D01*
X209503453Y-43039185D01*
X209218673Y-43076402D01*
X208946626Y-43168462D01*
X208775173Y-43260106D01*
X208706853Y-43513275D01*
X202406500Y-43513275D01*
X202406500Y-42576596D01*
X202680622Y-42690141D01*
X203067017Y-42767000D01*
X203460983Y-42767000D01*
X203847378Y-42690141D01*
X204211355Y-42539377D01*
X204538926Y-42320501D01*
X204817501Y-42041926D01*
X205036377Y-41714355D01*
X205187141Y-41350378D01*
X205264000Y-40963983D01*
X205264000Y-40570017D01*
X205187141Y-40183622D01*
X205036377Y-39819645D01*
X204820792Y-39497000D01*
X205036377Y-39174355D01*
X205187141Y-38810378D01*
X205264000Y-38423983D01*
X205264000Y-38066598D01*
X207291920Y-40094519D01*
G04 #@! TA.AperFunction,Conductor*
D20*
G36*
X207291920Y-40094519D02*
G01*
X207335761Y-40147939D01*
X207548938Y-40322890D01*
X207594436Y-40347209D01*
X207594436Y-41503500D01*
X207616640Y-41728939D01*
X207682398Y-41945715D01*
X207789184Y-42145497D01*
X207932893Y-42320607D01*
X208108003Y-42464316D01*
X208307785Y-42571102D01*
X208524561Y-42636860D01*
X208750000Y-42659064D01*
X210350000Y-42659064D01*
X210575439Y-42636860D01*
X210792215Y-42571102D01*
X210991997Y-42464316D01*
X211167107Y-42320607D01*
X211310816Y-42145497D01*
X211383614Y-42009302D01*
X211683709Y-42309397D01*
X211725987Y-42360913D01*
X211931551Y-42529615D01*
X212166078Y-42654972D01*
X212420554Y-42732167D01*
X212618879Y-42751700D01*
X212618888Y-42751700D01*
X212685199Y-42758231D01*
X212751510Y-42751700D01*
X216375039Y-42751700D01*
X216378000Y-43664500D01*
X216542500Y-43829000D01*
X218082000Y-43829000D01*
X218082000Y-43809000D01*
X218290000Y-43809000D01*
X218290000Y-43829000D01*
X219829500Y-43829000D01*
X219994000Y-43664500D01*
X219994555Y-43493387D01*
X220007732Y-43506564D01*
X220261600Y-43676192D01*
X220543682Y-43793035D01*
X220843138Y-43852600D01*
X221148462Y-43852600D01*
X221447918Y-43793035D01*
X221730000Y-43676192D01*
X221983868Y-43506564D01*
X222199764Y-43290668D01*
X222203842Y-43284565D01*
X222276287Y-43298975D01*
X223423436Y-44446124D01*
X223423436Y-45542500D01*
X223445640Y-45767939D01*
X223507243Y-45971017D01*
X202406500Y-46003680D01*
X202406500Y-45493725D01*
X208706853Y-45493725D01*
X208775173Y-45746894D01*
X209032635Y-45874164D01*
X209309980Y-45948760D01*
X209596547Y-45967815D01*
X209881327Y-45930598D01*
X210153374Y-45838538D01*
X210324827Y-45746894D01*
X210393147Y-45493725D01*
X209550000Y-44650578D01*
X208706853Y-45493725D01*
X202406500Y-45493725D01*
X202406500Y-44550047D01*
X208085685Y-44550047D01*
X208122902Y-44834827D01*
X208214962Y-45106874D01*
X208306606Y-45278327D01*
X208559775Y-45346647D01*
X209402922Y-44503500D01*
X209697078Y-44503500D01*
X210540225Y-45346647D01*
X210793394Y-45278327D01*
X210840516Y-45183000D01*
X216374816Y-45183000D01*
X216387520Y-45311991D01*
X216425146Y-45436024D01*
X216486246Y-45550334D01*
X216568472Y-45650528D01*
X216668666Y-45732754D01*
X216782976Y-45793854D01*
X216907009Y-45831480D01*
X217036000Y-45844184D01*
X217917500Y-45841000D01*
X218082000Y-45676500D01*
X218082000Y-44037000D01*
X218290000Y-44037000D01*
X218290000Y-45676500D01*
X218454500Y-45841000D01*
X219336000Y-45844184D01*
X219464991Y-45831480D01*
X219589024Y-45793854D01*
X219703334Y-45732754D01*
X219803528Y-45650528D01*
X219885754Y-45550334D01*
X219946854Y-45436024D01*
X219984480Y-45311991D01*
X219997184Y-45183000D01*
X219994000Y-44201500D01*
X219829500Y-44037000D01*
X218290000Y-44037000D01*
X218082000Y-44037000D01*
X216542500Y-44037000D01*
X216378000Y-44201500D01*
X216374816Y-45183000D01*
X210840516Y-45183000D01*
X210920664Y-45020865D01*
X210995260Y-44743520D01*
X211014315Y-44456953D01*
X210977098Y-44172173D01*
X210885038Y-43900126D01*
X210793394Y-43728673D01*
X210540225Y-43660353D01*
X209697078Y-44503500D01*
X209402922Y-44503500D01*
X208559775Y-43660353D01*
X208306606Y-43728673D01*
X208179336Y-43986135D01*
X208104740Y-44263480D01*
X208085685Y-44550047D01*
X202406500Y-44550047D01*
X202406500Y-43513275D01*
X208706853Y-43513275D01*
X209550000Y-44356422D01*
X210393147Y-43513275D01*
X210324827Y-43260106D01*
X210067365Y-43132836D01*
X209790020Y-43058240D01*
X209503453Y-43039185D01*
X209218673Y-43076402D01*
X208946626Y-43168462D01*
X208775173Y-43260106D01*
X208706853Y-43513275D01*
X202406500Y-43513275D01*
X202406500Y-42576596D01*
X202680622Y-42690141D01*
X203067017Y-42767000D01*
X203460983Y-42767000D01*
X203847378Y-42690141D01*
X204211355Y-42539377D01*
X204538926Y-42320501D01*
X204817501Y-42041926D01*
X205036377Y-41714355D01*
X205187141Y-41350378D01*
X205264000Y-40963983D01*
X205264000Y-40570017D01*
X205187141Y-40183622D01*
X205036377Y-39819645D01*
X204820792Y-39497000D01*
X205036377Y-39174355D01*
X205187141Y-38810378D01*
X205264000Y-38423983D01*
X205264000Y-38066598D01*
X207291920Y-40094519D01*
G37*
G04 #@! TD.AperFunction*
D19*
X233838626Y-25344962D02*
X233667173Y-25436606D01*
X233598853Y-25689775D01*
X234442000Y-26532922D01*
X235285147Y-25689775D01*
X235216827Y-25436606D01*
X234959365Y-25309336D01*
X234943244Y-25305000D01*
X241258222Y-25305000D01*
X241219853Y-29934936D01*
X239624000Y-29934936D01*
X239398561Y-29957140D01*
X239181785Y-30022898D01*
X238982003Y-30129684D01*
X238806893Y-30273393D01*
X238663184Y-30448503D01*
X238556398Y-30648285D01*
X238490640Y-30865061D01*
X238468436Y-31090500D01*
X238468436Y-32790500D01*
X238490640Y-33015939D01*
X238556398Y-33232715D01*
X238663184Y-33432497D01*
X238806893Y-33607607D01*
X238982003Y-33751316D01*
X239123062Y-33826714D01*
X239064237Y-33945110D01*
X239004381Y-34142439D01*
X239134531Y-34376500D01*
X240370000Y-34376500D01*
X240370000Y-34356500D01*
X240578000Y-34356500D01*
X240578000Y-34376500D01*
X240598000Y-34376500D01*
X240598000Y-34584500D01*
X240578000Y-34584500D01*
X240578000Y-36916500D01*
X240598000Y-36916500D01*
X240598000Y-37124500D01*
X240578000Y-37124500D01*
X240578000Y-37144500D01*
X240370000Y-37144500D01*
X240370000Y-37124500D01*
X239134531Y-37124500D01*
X239004381Y-37358561D01*
X239064237Y-37555890D01*
X239195775Y-37820634D01*
X239291817Y-37945030D01*
X239199074Y-38006999D01*
X238920499Y-38285574D01*
X238701623Y-38613145D01*
X238550859Y-38977122D01*
X238474000Y-39363517D01*
X238474000Y-39757483D01*
X238550859Y-40143878D01*
X238701623Y-40507855D01*
X238920499Y-40835426D01*
X239199074Y-41114001D01*
X239526645Y-41332877D01*
X239890622Y-41483641D01*
X240277017Y-41560500D01*
X240670983Y-41560500D01*
X241057378Y-41483641D01*
X241124376Y-41455890D01*
X241087183Y-45943803D01*
X227852798Y-45964290D01*
X227912360Y-45767939D01*
X227934564Y-45542500D01*
X227934564Y-44042500D01*
X227912360Y-43817061D01*
X227846602Y-43600285D01*
X227739816Y-43400503D01*
X227596107Y-43225393D01*
X227420997Y-43081684D01*
X227221215Y-42974898D01*
X227004439Y-42909140D01*
X226863976Y-42895306D01*
X226806915Y-42788551D01*
X226638213Y-42582987D01*
X226432649Y-42414285D01*
X226198122Y-42288928D01*
X225943646Y-42211733D01*
X225745321Y-42192200D01*
X225679000Y-42185668D01*
X225612679Y-42192200D01*
X224987888Y-42192200D01*
X224034182Y-41238494D01*
X223963207Y-41067146D01*
X223953467Y-40968255D01*
X223876272Y-40713779D01*
X223841140Y-40648051D01*
X223750915Y-40479250D01*
X223624490Y-40325201D01*
X223624487Y-40325198D01*
X223582213Y-40273687D01*
X223530702Y-40231413D01*
X222169581Y-38870293D01*
X222338892Y-38616900D01*
X222455735Y-38334818D01*
X222515300Y-38035362D01*
X222515300Y-37730038D01*
X222497888Y-37642500D01*
X223423436Y-37642500D01*
X223423436Y-39142500D01*
X223445640Y-39367939D01*
X223511398Y-39584715D01*
X223618184Y-39784497D01*
X223761893Y-39959607D01*
X223937003Y-40103316D01*
X224136785Y-40210102D01*
X224353561Y-40275860D01*
X224579000Y-40298064D01*
X226779000Y-40298064D01*
X226880117Y-40288105D01*
X230235209Y-43643197D01*
X230277487Y-43694713D01*
X230329002Y-43736990D01*
X230483050Y-43863415D01*
X230608407Y-43930419D01*
X230664077Y-43960175D01*
X230669398Y-43977715D01*
X230776184Y-44177497D01*
X230919893Y-44352607D01*
X231095003Y-44496316D01*
X231294785Y-44603102D01*
X231511561Y-44668860D01*
X231737000Y-44691064D01*
X233337000Y-44691064D01*
X233562439Y-44668860D01*
X233779215Y-44603102D01*
X233978997Y-44496316D01*
X234154107Y-44352607D01*
X234297816Y-44177497D01*
X234404602Y-43977715D01*
X234470360Y-43760939D01*
X234473828Y-43725725D01*
X235493853Y-43725725D01*
X235562173Y-43978894D01*
X235819635Y-44106164D01*
X236096980Y-44180760D01*
X236383547Y-44199815D01*
X236668327Y-44162598D01*
X236940374Y-44070538D01*
X237111827Y-43978894D01*
X237180147Y-43725725D01*
X236337000Y-42882578D01*
X235493853Y-43725725D01*
X234473828Y-43725725D01*
X234492564Y-43535500D01*
X234492564Y-42782047D01*
X234872685Y-42782047D01*
X234909902Y-43066827D01*
X235001962Y-43338874D01*
X235093606Y-43510327D01*
X235346775Y-43578647D01*
X236189922Y-42735500D01*
X236484078Y-42735500D01*
X237327225Y-43578647D01*
X237580394Y-43510327D01*
X237707664Y-43252865D01*
X237782260Y-42975520D01*
X237801315Y-42688953D01*
X237764098Y-42404173D01*
X237672038Y-42132126D01*
X237580394Y-41960673D01*
X237327225Y-41892353D01*
X236484078Y-42735500D01*
X236189922Y-42735500D01*
X235346775Y-41892353D01*
X235093606Y-41960673D01*
X234966336Y-42218135D01*
X234891740Y-42495480D01*
X234872685Y-42782047D01*
X234492564Y-42782047D01*
X234492564Y-41935500D01*
X234473829Y-41745275D01*
X235493853Y-41745275D01*
X236337000Y-42588422D01*
X237180147Y-41745275D01*
X237111827Y-41492106D01*
X236854365Y-41364836D01*
X236577020Y-41290240D01*
X236290453Y-41271185D01*
X236005673Y-41308402D01*
X235733626Y-41400462D01*
X235562173Y-41492106D01*
X235493853Y-41745275D01*
X234473829Y-41745275D01*
X234470360Y-41710061D01*
X234404602Y-41493285D01*
X234297816Y-41293503D01*
X234154107Y-41118393D01*
X233978997Y-40974684D01*
X233779215Y-40867898D01*
X233562439Y-40802140D01*
X233337000Y-40779936D01*
X231737000Y-40779936D01*
X231511561Y-40802140D01*
X231294785Y-40867898D01*
X231284033Y-40873645D01*
X228617581Y-38207193D01*
X228609767Y-38127854D01*
X228532572Y-37873378D01*
X228407215Y-37638851D01*
X228238513Y-37433287D01*
X228032949Y-37264585D01*
X227820184Y-37150860D01*
X227739816Y-37000503D01*
X227596107Y-36825393D01*
X227420997Y-36681684D01*
X227221215Y-36574898D01*
X227004439Y-36509140D01*
X226779000Y-36486936D01*
X224579000Y-36486936D01*
X224353561Y-36509140D01*
X224136785Y-36574898D01*
X223937003Y-36681684D01*
X223761893Y-36825393D01*
X223618184Y-37000503D01*
X223511398Y-37200285D01*
X223445640Y-37417061D01*
X223423436Y-37642500D01*
X222497888Y-37642500D01*
X222455735Y-37430582D01*
X222338892Y-37148500D01*
X222169264Y-36894632D01*
X221953368Y-36678736D01*
X221699500Y-36509108D01*
X221417418Y-36392265D01*
X221117962Y-36332700D01*
X220883360Y-36332700D01*
X220944518Y-36320535D01*
X221226600Y-36203692D01*
X221480468Y-36034064D01*
X221696364Y-35818168D01*
X221865992Y-35564300D01*
X221982835Y-35282218D01*
X222042400Y-34982762D01*
X222042400Y-34677438D01*
X221982835Y-34377982D01*
X221874318Y-34116000D01*
X223468736Y-34116000D01*
X223491184Y-34157997D01*
X223634893Y-34333107D01*
X223810003Y-34476816D01*
X224009785Y-34583602D01*
X224226561Y-34649360D01*
X224452000Y-34671564D01*
X226652000Y-34671564D01*
X226873290Y-34649769D01*
X227039300Y-34760692D01*
X227321382Y-34877535D01*
X227620838Y-34937100D01*
X227926162Y-34937100D01*
X228225618Y-34877535D01*
X228367992Y-34818561D01*
X239004381Y-34818561D01*
X239064237Y-35015890D01*
X239195775Y-35280634D01*
X239376434Y-35514629D01*
X239599272Y-35708883D01*
X239671852Y-35750500D01*
X239599272Y-35792117D01*
X239376434Y-35986371D01*
X239195775Y-36220366D01*
X239064237Y-36485110D01*
X239004381Y-36682439D01*
X239134531Y-36916500D01*
X240370000Y-36916500D01*
X240370000Y-34584500D01*
X239134531Y-34584500D01*
X239004381Y-34818561D01*
X228367992Y-34818561D01*
X228507700Y-34760692D01*
X228761568Y-34591064D01*
X228977464Y-34375168D01*
X229147092Y-34121300D01*
X229263935Y-33839218D01*
X229323500Y-33539762D01*
X229323500Y-33234438D01*
X229263935Y-32934982D01*
X229147092Y-32652900D01*
X228977464Y-32399032D01*
X228761568Y-32183136D01*
X228507700Y-32013508D01*
X228225618Y-31896665D01*
X228183844Y-31888356D01*
X228153789Y-31858301D01*
X228111513Y-31806787D01*
X227905949Y-31638085D01*
X227693184Y-31524360D01*
X227612816Y-31374003D01*
X227578597Y-31332307D01*
X227671335Y-31108418D01*
X227730900Y-30808962D01*
X227730900Y-30503638D01*
X227671335Y-30204182D01*
X227554492Y-29922100D01*
X227384864Y-29668232D01*
X227168968Y-29452336D01*
X226915100Y-29282708D01*
X226633018Y-29165865D01*
X226333562Y-29106300D01*
X226028238Y-29106300D01*
X225728782Y-29165865D01*
X225446700Y-29282708D01*
X225411392Y-29306300D01*
X225283072Y-29306300D01*
X225297600Y-29233262D01*
X225297600Y-28927938D01*
X225238035Y-28628482D01*
X225121192Y-28346400D01*
X225071189Y-28271564D01*
X226652000Y-28271564D01*
X226877439Y-28249360D01*
X227094215Y-28183602D01*
X227293997Y-28076816D01*
X227469107Y-27933107D01*
X227612816Y-27757997D01*
X227635264Y-27716000D01*
X228468512Y-27716000D01*
X232140209Y-31387697D01*
X232182487Y-31439213D01*
X232354185Y-31580122D01*
X232388051Y-31607915D01*
X232569078Y-31704676D01*
X232574398Y-31722215D01*
X232681184Y-31921997D01*
X232824893Y-32097107D01*
X233000003Y-32240816D01*
X233199785Y-32347602D01*
X233416561Y-32413360D01*
X233642000Y-32435564D01*
X235242000Y-32435564D01*
X235467439Y-32413360D01*
X235684215Y-32347602D01*
X235883997Y-32240816D01*
X236059107Y-32097107D01*
X236202816Y-31921997D01*
X236309602Y-31722215D01*
X236375360Y-31505439D01*
X236397564Y-31280000D01*
X236397564Y-29680000D01*
X236375360Y-29454561D01*
X236309602Y-29237785D01*
X236202816Y-29038003D01*
X236059107Y-28862893D01*
X235883997Y-28719184D01*
X235684215Y-28612398D01*
X235467439Y-28546640D01*
X235242000Y-28524436D01*
X233642000Y-28524436D01*
X233416561Y-28546640D01*
X233199785Y-28612398D01*
X233189033Y-28618145D01*
X232241113Y-27670225D01*
X233598853Y-27670225D01*
X233667173Y-27923394D01*
X233924635Y-28050664D01*
X234201980Y-28125260D01*
X234488547Y-28144315D01*
X234773327Y-28107098D01*
X235045374Y-28015038D01*
X235216827Y-27923394D01*
X235285147Y-27670225D01*
X234442000Y-26827078D01*
X233598853Y-27670225D01*
X232241113Y-27670225D01*
X231297435Y-26726547D01*
X232977685Y-26726547D01*
X233014902Y-27011327D01*
X233106962Y-27283374D01*
X233198606Y-27454827D01*
X233451775Y-27523147D01*
X234294922Y-26680000D01*
X234589078Y-26680000D01*
X235432225Y-27523147D01*
X235685394Y-27454827D01*
X235812664Y-27197365D01*
X235887260Y-26920020D01*
X235906315Y-26633453D01*
X235869098Y-26348673D01*
X235777038Y-26076626D01*
X235685394Y-25905173D01*
X235432225Y-25836853D01*
X234589078Y-26680000D01*
X234294922Y-26680000D01*
X233451775Y-25836853D01*
X233198606Y-25905173D01*
X233071336Y-26162635D01*
X232996740Y-26439980D01*
X232977685Y-26726547D01*
X231297435Y-26726547D01*
X230029191Y-25458303D01*
X229986913Y-25406787D01*
X229862885Y-25305000D01*
X233956718Y-25305000D01*
X233838626Y-25344962D01*
G04 #@! TA.AperFunction,Conductor*
D20*
G36*
X233838626Y-25344962D02*
G01*
X233667173Y-25436606D01*
X233598853Y-25689775D01*
X234442000Y-26532922D01*
X235285147Y-25689775D01*
X235216827Y-25436606D01*
X234959365Y-25309336D01*
X234943244Y-25305000D01*
X241258222Y-25305000D01*
X241219853Y-29934936D01*
X239624000Y-29934936D01*
X239398561Y-29957140D01*
X239181785Y-30022898D01*
X238982003Y-30129684D01*
X238806893Y-30273393D01*
X238663184Y-30448503D01*
X238556398Y-30648285D01*
X238490640Y-30865061D01*
X238468436Y-31090500D01*
X238468436Y-32790500D01*
X238490640Y-33015939D01*
X238556398Y-33232715D01*
X238663184Y-33432497D01*
X238806893Y-33607607D01*
X238982003Y-33751316D01*
X239123062Y-33826714D01*
X239064237Y-33945110D01*
X239004381Y-34142439D01*
X239134531Y-34376500D01*
X240370000Y-34376500D01*
X240370000Y-34356500D01*
X240578000Y-34356500D01*
X240578000Y-34376500D01*
X240598000Y-34376500D01*
X240598000Y-34584500D01*
X240578000Y-34584500D01*
X240578000Y-36916500D01*
X240598000Y-36916500D01*
X240598000Y-37124500D01*
X240578000Y-37124500D01*
X240578000Y-37144500D01*
X240370000Y-37144500D01*
X240370000Y-37124500D01*
X239134531Y-37124500D01*
X239004381Y-37358561D01*
X239064237Y-37555890D01*
X239195775Y-37820634D01*
X239291817Y-37945030D01*
X239199074Y-38006999D01*
X238920499Y-38285574D01*
X238701623Y-38613145D01*
X238550859Y-38977122D01*
X238474000Y-39363517D01*
X238474000Y-39757483D01*
X238550859Y-40143878D01*
X238701623Y-40507855D01*
X238920499Y-40835426D01*
X239199074Y-41114001D01*
X239526645Y-41332877D01*
X239890622Y-41483641D01*
X240277017Y-41560500D01*
X240670983Y-41560500D01*
X241057378Y-41483641D01*
X241124376Y-41455890D01*
X241087183Y-45943803D01*
X227852798Y-45964290D01*
X227912360Y-45767939D01*
X227934564Y-45542500D01*
X227934564Y-44042500D01*
X227912360Y-43817061D01*
X227846602Y-43600285D01*
X227739816Y-43400503D01*
X227596107Y-43225393D01*
X227420997Y-43081684D01*
X227221215Y-42974898D01*
X227004439Y-42909140D01*
X226863976Y-42895306D01*
X226806915Y-42788551D01*
X226638213Y-42582987D01*
X226432649Y-42414285D01*
X226198122Y-42288928D01*
X225943646Y-42211733D01*
X225745321Y-42192200D01*
X225679000Y-42185668D01*
X225612679Y-42192200D01*
X224987888Y-42192200D01*
X224034182Y-41238494D01*
X223963207Y-41067146D01*
X223953467Y-40968255D01*
X223876272Y-40713779D01*
X223841140Y-40648051D01*
X223750915Y-40479250D01*
X223624490Y-40325201D01*
X223624487Y-40325198D01*
X223582213Y-40273687D01*
X223530702Y-40231413D01*
X222169581Y-38870293D01*
X222338892Y-38616900D01*
X222455735Y-38334818D01*
X222515300Y-38035362D01*
X222515300Y-37730038D01*
X222497888Y-37642500D01*
X223423436Y-37642500D01*
X223423436Y-39142500D01*
X223445640Y-39367939D01*
X223511398Y-39584715D01*
X223618184Y-39784497D01*
X223761893Y-39959607D01*
X223937003Y-40103316D01*
X224136785Y-40210102D01*
X224353561Y-40275860D01*
X224579000Y-40298064D01*
X226779000Y-40298064D01*
X226880117Y-40288105D01*
X230235209Y-43643197D01*
X230277487Y-43694713D01*
X230329002Y-43736990D01*
X230483050Y-43863415D01*
X230608407Y-43930419D01*
X230664077Y-43960175D01*
X230669398Y-43977715D01*
X230776184Y-44177497D01*
X230919893Y-44352607D01*
X231095003Y-44496316D01*
X231294785Y-44603102D01*
X231511561Y-44668860D01*
X231737000Y-44691064D01*
X233337000Y-44691064D01*
X233562439Y-44668860D01*
X233779215Y-44603102D01*
X233978997Y-44496316D01*
X234154107Y-44352607D01*
X234297816Y-44177497D01*
X234404602Y-43977715D01*
X234470360Y-43760939D01*
X234473828Y-43725725D01*
X235493853Y-43725725D01*
X235562173Y-43978894D01*
X235819635Y-44106164D01*
X236096980Y-44180760D01*
X236383547Y-44199815D01*
X236668327Y-44162598D01*
X236940374Y-44070538D01*
X237111827Y-43978894D01*
X237180147Y-43725725D01*
X236337000Y-42882578D01*
X235493853Y-43725725D01*
X234473828Y-43725725D01*
X234492564Y-43535500D01*
X234492564Y-42782047D01*
X234872685Y-42782047D01*
X234909902Y-43066827D01*
X235001962Y-43338874D01*
X235093606Y-43510327D01*
X235346775Y-43578647D01*
X236189922Y-42735500D01*
X236484078Y-42735500D01*
X237327225Y-43578647D01*
X237580394Y-43510327D01*
X237707664Y-43252865D01*
X237782260Y-42975520D01*
X237801315Y-42688953D01*
X237764098Y-42404173D01*
X237672038Y-42132126D01*
X237580394Y-41960673D01*
X237327225Y-41892353D01*
X236484078Y-42735500D01*
X236189922Y-42735500D01*
X235346775Y-41892353D01*
X235093606Y-41960673D01*
X234966336Y-42218135D01*
X234891740Y-42495480D01*
X234872685Y-42782047D01*
X234492564Y-42782047D01*
X234492564Y-41935500D01*
X234473829Y-41745275D01*
X235493853Y-41745275D01*
X236337000Y-42588422D01*
X237180147Y-41745275D01*
X237111827Y-41492106D01*
X236854365Y-41364836D01*
X236577020Y-41290240D01*
X236290453Y-41271185D01*
X236005673Y-41308402D01*
X235733626Y-41400462D01*
X235562173Y-41492106D01*
X235493853Y-41745275D01*
X234473829Y-41745275D01*
X234470360Y-41710061D01*
X234404602Y-41493285D01*
X234297816Y-41293503D01*
X234154107Y-41118393D01*
X233978997Y-40974684D01*
X233779215Y-40867898D01*
X233562439Y-40802140D01*
X233337000Y-40779936D01*
X231737000Y-40779936D01*
X231511561Y-40802140D01*
X231294785Y-40867898D01*
X231284033Y-40873645D01*
X228617581Y-38207193D01*
X228609767Y-38127854D01*
X228532572Y-37873378D01*
X228407215Y-37638851D01*
X228238513Y-37433287D01*
X228032949Y-37264585D01*
X227820184Y-37150860D01*
X227739816Y-37000503D01*
X227596107Y-36825393D01*
X227420997Y-36681684D01*
X227221215Y-36574898D01*
X227004439Y-36509140D01*
X226779000Y-36486936D01*
X224579000Y-36486936D01*
X224353561Y-36509140D01*
X224136785Y-36574898D01*
X223937003Y-36681684D01*
X223761893Y-36825393D01*
X223618184Y-37000503D01*
X223511398Y-37200285D01*
X223445640Y-37417061D01*
X223423436Y-37642500D01*
X222497888Y-37642500D01*
X222455735Y-37430582D01*
X222338892Y-37148500D01*
X222169264Y-36894632D01*
X221953368Y-36678736D01*
X221699500Y-36509108D01*
X221417418Y-36392265D01*
X221117962Y-36332700D01*
X220883360Y-36332700D01*
X220944518Y-36320535D01*
X221226600Y-36203692D01*
X221480468Y-36034064D01*
X221696364Y-35818168D01*
X221865992Y-35564300D01*
X221982835Y-35282218D01*
X222042400Y-34982762D01*
X222042400Y-34677438D01*
X221982835Y-34377982D01*
X221874318Y-34116000D01*
X223468736Y-34116000D01*
X223491184Y-34157997D01*
X223634893Y-34333107D01*
X223810003Y-34476816D01*
X224009785Y-34583602D01*
X224226561Y-34649360D01*
X224452000Y-34671564D01*
X226652000Y-34671564D01*
X226873290Y-34649769D01*
X227039300Y-34760692D01*
X227321382Y-34877535D01*
X227620838Y-34937100D01*
X227926162Y-34937100D01*
X228225618Y-34877535D01*
X228367992Y-34818561D01*
X239004381Y-34818561D01*
X239064237Y-35015890D01*
X239195775Y-35280634D01*
X239376434Y-35514629D01*
X239599272Y-35708883D01*
X239671852Y-35750500D01*
X239599272Y-35792117D01*
X239376434Y-35986371D01*
X239195775Y-36220366D01*
X239064237Y-36485110D01*
X239004381Y-36682439D01*
X239134531Y-36916500D01*
X240370000Y-36916500D01*
X240370000Y-34584500D01*
X239134531Y-34584500D01*
X239004381Y-34818561D01*
X228367992Y-34818561D01*
X228507700Y-34760692D01*
X228761568Y-34591064D01*
X228977464Y-34375168D01*
X229147092Y-34121300D01*
X229263935Y-33839218D01*
X229323500Y-33539762D01*
X229323500Y-33234438D01*
X229263935Y-32934982D01*
X229147092Y-32652900D01*
X228977464Y-32399032D01*
X228761568Y-32183136D01*
X228507700Y-32013508D01*
X228225618Y-31896665D01*
X228183844Y-31888356D01*
X228153789Y-31858301D01*
X228111513Y-31806787D01*
X227905949Y-31638085D01*
X227693184Y-31524360D01*
X227612816Y-31374003D01*
X227578597Y-31332307D01*
X227671335Y-31108418D01*
X227730900Y-30808962D01*
X227730900Y-30503638D01*
X227671335Y-30204182D01*
X227554492Y-29922100D01*
X227384864Y-29668232D01*
X227168968Y-29452336D01*
X226915100Y-29282708D01*
X226633018Y-29165865D01*
X226333562Y-29106300D01*
X226028238Y-29106300D01*
X225728782Y-29165865D01*
X225446700Y-29282708D01*
X225411392Y-29306300D01*
X225283072Y-29306300D01*
X225297600Y-29233262D01*
X225297600Y-28927938D01*
X225238035Y-28628482D01*
X225121192Y-28346400D01*
X225071189Y-28271564D01*
X226652000Y-28271564D01*
X226877439Y-28249360D01*
X227094215Y-28183602D01*
X227293997Y-28076816D01*
X227469107Y-27933107D01*
X227612816Y-27757997D01*
X227635264Y-27716000D01*
X228468512Y-27716000D01*
X232140209Y-31387697D01*
X232182487Y-31439213D01*
X232354185Y-31580122D01*
X232388051Y-31607915D01*
X232569078Y-31704676D01*
X232574398Y-31722215D01*
X232681184Y-31921997D01*
X232824893Y-32097107D01*
X233000003Y-32240816D01*
X233199785Y-32347602D01*
X233416561Y-32413360D01*
X233642000Y-32435564D01*
X235242000Y-32435564D01*
X235467439Y-32413360D01*
X235684215Y-32347602D01*
X235883997Y-32240816D01*
X236059107Y-32097107D01*
X236202816Y-31921997D01*
X236309602Y-31722215D01*
X236375360Y-31505439D01*
X236397564Y-31280000D01*
X236397564Y-29680000D01*
X236375360Y-29454561D01*
X236309602Y-29237785D01*
X236202816Y-29038003D01*
X236059107Y-28862893D01*
X235883997Y-28719184D01*
X235684215Y-28612398D01*
X235467439Y-28546640D01*
X235242000Y-28524436D01*
X233642000Y-28524436D01*
X233416561Y-28546640D01*
X233199785Y-28612398D01*
X233189033Y-28618145D01*
X232241113Y-27670225D01*
X233598853Y-27670225D01*
X233667173Y-27923394D01*
X233924635Y-28050664D01*
X234201980Y-28125260D01*
X234488547Y-28144315D01*
X234773327Y-28107098D01*
X235045374Y-28015038D01*
X235216827Y-27923394D01*
X235285147Y-27670225D01*
X234442000Y-26827078D01*
X233598853Y-27670225D01*
X232241113Y-27670225D01*
X231297435Y-26726547D01*
X232977685Y-26726547D01*
X233014902Y-27011327D01*
X233106962Y-27283374D01*
X233198606Y-27454827D01*
X233451775Y-27523147D01*
X234294922Y-26680000D01*
X234589078Y-26680000D01*
X235432225Y-27523147D01*
X235685394Y-27454827D01*
X235812664Y-27197365D01*
X235887260Y-26920020D01*
X235906315Y-26633453D01*
X235869098Y-26348673D01*
X235777038Y-26076626D01*
X235685394Y-25905173D01*
X235432225Y-25836853D01*
X234589078Y-26680000D01*
X234294922Y-26680000D01*
X233451775Y-25836853D01*
X233198606Y-25905173D01*
X233071336Y-26162635D01*
X232996740Y-26439980D01*
X232977685Y-26726547D01*
X231297435Y-26726547D01*
X230029191Y-25458303D01*
X229986913Y-25406787D01*
X229862885Y-25305000D01*
X233956718Y-25305000D01*
X233838626Y-25344962D01*
G37*
G04 #@! TD.AperFunction*
D19*
X208946626Y-25344962D02*
X208775173Y-25436606D01*
X208706853Y-25689775D01*
X209550000Y-26532922D01*
X210393147Y-25689775D01*
X210324827Y-25436606D01*
X210067365Y-25309336D01*
X210051244Y-25305000D01*
X215553888Y-25305000D01*
X215548816Y-25356500D01*
X215552000Y-26338000D01*
X215716500Y-26502500D01*
X217256000Y-26502500D01*
X217256000Y-26482500D01*
X217464000Y-26482500D01*
X217464000Y-26502500D01*
X219003500Y-26502500D01*
X219168000Y-26338000D01*
X219171184Y-25356500D01*
X219166112Y-25305000D01*
X223344595Y-25305000D01*
X223318640Y-25390561D01*
X223296436Y-25616000D01*
X223296436Y-27116000D01*
X223318640Y-27341439D01*
X223357426Y-27469300D01*
X219169928Y-27469300D01*
X219168000Y-26875000D01*
X219003500Y-26710500D01*
X217464000Y-26710500D01*
X217464000Y-26730500D01*
X217256000Y-26730500D01*
X217256000Y-26710500D01*
X215716500Y-26710500D01*
X215552000Y-26875000D01*
X215549919Y-27516565D01*
X215375051Y-27569610D01*
X215131838Y-27699610D01*
X214918661Y-27874561D01*
X214874820Y-27927981D01*
X213701894Y-29100908D01*
X213699748Y-29100257D01*
X213494077Y-29080000D01*
X213494069Y-29080000D01*
X213425300Y-29073227D01*
X213356531Y-29080000D01*
X211333264Y-29080000D01*
X211310816Y-29038003D01*
X211167107Y-28862893D01*
X210991997Y-28719184D01*
X210792215Y-28612398D01*
X210575439Y-28546640D01*
X210350000Y-28524436D01*
X208750000Y-28524436D01*
X208524561Y-28546640D01*
X208307785Y-28612398D01*
X208108003Y-28719184D01*
X207932893Y-28862893D01*
X207789184Y-29038003D01*
X207757612Y-29097070D01*
X207725252Y-29100257D01*
X207461350Y-29180310D01*
X207410957Y-29207246D01*
X207218138Y-29310310D01*
X207004961Y-29485261D01*
X206961120Y-29538681D01*
X204752802Y-31747000D01*
X204705090Y-31747000D01*
X204724854Y-31710024D01*
X204762480Y-31585991D01*
X204775184Y-31457000D01*
X204772000Y-30875500D01*
X204607500Y-30711000D01*
X203368000Y-30711000D01*
X203368000Y-30731000D01*
X203160000Y-30731000D01*
X203160000Y-30711000D01*
X203140000Y-30711000D01*
X203140000Y-30503000D01*
X203160000Y-30503000D01*
X203160000Y-29263500D01*
X203368000Y-29263500D01*
X203368000Y-30503000D01*
X204607500Y-30503000D01*
X204772000Y-30338500D01*
X204775184Y-29757000D01*
X204762480Y-29628009D01*
X204724854Y-29503976D01*
X204663754Y-29389666D01*
X204581528Y-29289472D01*
X204481334Y-29207246D01*
X204367024Y-29146146D01*
X204242991Y-29108520D01*
X204114000Y-29095816D01*
X203532500Y-29099000D01*
X203368000Y-29263500D01*
X203160000Y-29263500D01*
X202995500Y-29099000D01*
X202414000Y-29095816D01*
X202406500Y-29096555D01*
X202406500Y-27670225D01*
X208706853Y-27670225D01*
X208775173Y-27923394D01*
X209032635Y-28050664D01*
X209309980Y-28125260D01*
X209596547Y-28144315D01*
X209881327Y-28107098D01*
X210153374Y-28015038D01*
X210324827Y-27923394D01*
X210393147Y-27670225D01*
X209550000Y-26827078D01*
X208706853Y-27670225D01*
X202406500Y-27670225D01*
X202406500Y-26726547D01*
X208085685Y-26726547D01*
X208122902Y-27011327D01*
X208214962Y-27283374D01*
X208306606Y-27454827D01*
X208559775Y-27523147D01*
X209402922Y-26680000D01*
X209697078Y-26680000D01*
X210540225Y-27523147D01*
X210793394Y-27454827D01*
X210920664Y-27197365D01*
X210995260Y-26920020D01*
X211014315Y-26633453D01*
X210977098Y-26348673D01*
X210885038Y-26076626D01*
X210793394Y-25905173D01*
X210540225Y-25836853D01*
X209697078Y-26680000D01*
X209402922Y-26680000D01*
X208559775Y-25836853D01*
X208306606Y-25905173D01*
X208179336Y-26162635D01*
X208104740Y-26439980D01*
X208085685Y-26726547D01*
X202406500Y-26726547D01*
X202406500Y-25305000D01*
X209064718Y-25305000D01*
X208946626Y-25344962D01*
G04 #@! TA.AperFunction,Conductor*
D20*
G36*
X208946626Y-25344962D02*
G01*
X208775173Y-25436606D01*
X208706853Y-25689775D01*
X209550000Y-26532922D01*
X210393147Y-25689775D01*
X210324827Y-25436606D01*
X210067365Y-25309336D01*
X210051244Y-25305000D01*
X215553888Y-25305000D01*
X215548816Y-25356500D01*
X215552000Y-26338000D01*
X215716500Y-26502500D01*
X217256000Y-26502500D01*
X217256000Y-26482500D01*
X217464000Y-26482500D01*
X217464000Y-26502500D01*
X219003500Y-26502500D01*
X219168000Y-26338000D01*
X219171184Y-25356500D01*
X219166112Y-25305000D01*
X223344595Y-25305000D01*
X223318640Y-25390561D01*
X223296436Y-25616000D01*
X223296436Y-27116000D01*
X223318640Y-27341439D01*
X223357426Y-27469300D01*
X219169928Y-27469300D01*
X219168000Y-26875000D01*
X219003500Y-26710500D01*
X217464000Y-26710500D01*
X217464000Y-26730500D01*
X217256000Y-26730500D01*
X217256000Y-26710500D01*
X215716500Y-26710500D01*
X215552000Y-26875000D01*
X215549919Y-27516565D01*
X215375051Y-27569610D01*
X215131838Y-27699610D01*
X214918661Y-27874561D01*
X214874820Y-27927981D01*
X213701894Y-29100908D01*
X213699748Y-29100257D01*
X213494077Y-29080000D01*
X213494069Y-29080000D01*
X213425300Y-29073227D01*
X213356531Y-29080000D01*
X211333264Y-29080000D01*
X211310816Y-29038003D01*
X211167107Y-28862893D01*
X210991997Y-28719184D01*
X210792215Y-28612398D01*
X210575439Y-28546640D01*
X210350000Y-28524436D01*
X208750000Y-28524436D01*
X208524561Y-28546640D01*
X208307785Y-28612398D01*
X208108003Y-28719184D01*
X207932893Y-28862893D01*
X207789184Y-29038003D01*
X207757612Y-29097070D01*
X207725252Y-29100257D01*
X207461350Y-29180310D01*
X207410957Y-29207246D01*
X207218138Y-29310310D01*
X207004961Y-29485261D01*
X206961120Y-29538681D01*
X204752802Y-31747000D01*
X204705090Y-31747000D01*
X204724854Y-31710024D01*
X204762480Y-31585991D01*
X204775184Y-31457000D01*
X204772000Y-30875500D01*
X204607500Y-30711000D01*
X203368000Y-30711000D01*
X203368000Y-30731000D01*
X203160000Y-30731000D01*
X203160000Y-30711000D01*
X203140000Y-30711000D01*
X203140000Y-30503000D01*
X203160000Y-30503000D01*
X203160000Y-29263500D01*
X203368000Y-29263500D01*
X203368000Y-30503000D01*
X204607500Y-30503000D01*
X204772000Y-30338500D01*
X204775184Y-29757000D01*
X204762480Y-29628009D01*
X204724854Y-29503976D01*
X204663754Y-29389666D01*
X204581528Y-29289472D01*
X204481334Y-29207246D01*
X204367024Y-29146146D01*
X204242991Y-29108520D01*
X204114000Y-29095816D01*
X203532500Y-29099000D01*
X203368000Y-29263500D01*
X203160000Y-29263500D01*
X202995500Y-29099000D01*
X202414000Y-29095816D01*
X202406500Y-29096555D01*
X202406500Y-27670225D01*
X208706853Y-27670225D01*
X208775173Y-27923394D01*
X209032635Y-28050664D01*
X209309980Y-28125260D01*
X209596547Y-28144315D01*
X209881327Y-28107098D01*
X210153374Y-28015038D01*
X210324827Y-27923394D01*
X210393147Y-27670225D01*
X209550000Y-26827078D01*
X208706853Y-27670225D01*
X202406500Y-27670225D01*
X202406500Y-26726547D01*
X208085685Y-26726547D01*
X208122902Y-27011327D01*
X208214962Y-27283374D01*
X208306606Y-27454827D01*
X208559775Y-27523147D01*
X209402922Y-26680000D01*
X209697078Y-26680000D01*
X210540225Y-27523147D01*
X210793394Y-27454827D01*
X210920664Y-27197365D01*
X210995260Y-26920020D01*
X211014315Y-26633453D01*
X210977098Y-26348673D01*
X210885038Y-26076626D01*
X210793394Y-25905173D01*
X210540225Y-25836853D01*
X209697078Y-26680000D01*
X209402922Y-26680000D01*
X208559775Y-25836853D01*
X208306606Y-25905173D01*
X208179336Y-26162635D01*
X208104740Y-26439980D01*
X208085685Y-26726547D01*
X202406500Y-26726547D01*
X202406500Y-25305000D01*
X209064718Y-25305000D01*
X208946626Y-25344962D01*
G37*
G04 #@! TD.AperFunction*
M02*
