G04 #@! TF.GenerationSoftware,KiCad,Pcbnew,(5.1.9)-1*
G04 #@! TF.CreationDate,2021-04-15T17:27:27+03:00*
G04 #@! TF.ProjectId,Cbc_power_supply_module,4362635f-706f-4776-9572-5f737570706c,rev?*
G04 #@! TF.SameCoordinates,Original*
G04 #@! TF.FileFunction,Legend,Top*
G04 #@! TF.FilePolarity,Positive*
%FSLAX46Y46*%
G04 Gerber Fmt 4.6, Leading zero omitted, Abs format (unit mm)*
G04 Created by KiCad (PCBNEW (5.1.9)-1) date 2021-04-15 17:27:27*
%MOMM*%
%LPD*%
G01*
G04 APERTURE LIST*
%ADD10C,0.150000*%
%ADD11C,0.300000*%
%ADD12C,0.120000*%
G04 APERTURE END LIST*
D10*
X232664095Y-34079419D02*
X232711714Y-34031800D01*
X232806952Y-33984180D01*
X233045047Y-33984180D01*
X233140285Y-34031800D01*
X233187904Y-34079419D01*
X233235523Y-34174657D01*
X233235523Y-34269895D01*
X233187904Y-34412752D01*
X232616476Y-34984180D01*
X233235523Y-34984180D01*
X233568857Y-33984180D02*
X234235523Y-34984180D01*
X234235523Y-33984180D02*
X233568857Y-34984180D01*
X230235523Y-36634180D02*
X230235523Y-35634180D01*
X230806952Y-36634180D01*
X230806952Y-35634180D01*
X231854571Y-36538942D02*
X231806952Y-36586561D01*
X231664095Y-36634180D01*
X231568857Y-36634180D01*
X231426000Y-36586561D01*
X231330761Y-36491323D01*
X231283142Y-36396085D01*
X231235523Y-36205609D01*
X231235523Y-36062752D01*
X231283142Y-35872276D01*
X231330761Y-35777038D01*
X231426000Y-35681800D01*
X231568857Y-35634180D01*
X231664095Y-35634180D01*
X231806952Y-35681800D01*
X231854571Y-35729419D01*
X232283142Y-36634180D02*
X232283142Y-35634180D01*
X232664095Y-35634180D01*
X232759333Y-35681800D01*
X232806952Y-35729419D01*
X232854571Y-35824657D01*
X232854571Y-35967514D01*
X232806952Y-36062752D01*
X232759333Y-36110371D01*
X232664095Y-36157990D01*
X232283142Y-36157990D01*
X233187904Y-35634180D02*
X233806952Y-35634180D01*
X233473619Y-36015133D01*
X233616476Y-36015133D01*
X233711714Y-36062752D01*
X233759333Y-36110371D01*
X233806952Y-36205609D01*
X233806952Y-36443704D01*
X233759333Y-36538942D01*
X233711714Y-36586561D01*
X233616476Y-36634180D01*
X233330761Y-36634180D01*
X233235523Y-36586561D01*
X233187904Y-36538942D01*
X234426000Y-35634180D02*
X234521238Y-35634180D01*
X234616476Y-35681800D01*
X234664095Y-35729419D01*
X234711714Y-35824657D01*
X234759333Y-36015133D01*
X234759333Y-36253228D01*
X234711714Y-36443704D01*
X234664095Y-36538942D01*
X234616476Y-36586561D01*
X234521238Y-36634180D01*
X234426000Y-36634180D01*
X234330761Y-36586561D01*
X234283142Y-36538942D01*
X234235523Y-36443704D01*
X234187904Y-36253228D01*
X234187904Y-36015133D01*
X234235523Y-35824657D01*
X234283142Y-35729419D01*
X234330761Y-35681800D01*
X234426000Y-35634180D01*
X235616476Y-35634180D02*
X235426000Y-35634180D01*
X235330761Y-35681800D01*
X235283142Y-35729419D01*
X235187904Y-35872276D01*
X235140285Y-36062752D01*
X235140285Y-36443704D01*
X235187904Y-36538942D01*
X235235523Y-36586561D01*
X235330761Y-36634180D01*
X235521238Y-36634180D01*
X235616476Y-36586561D01*
X235664095Y-36538942D01*
X235711714Y-36443704D01*
X235711714Y-36205609D01*
X235664095Y-36110371D01*
X235616476Y-36062752D01*
X235521238Y-36015133D01*
X235330761Y-36015133D01*
X235235523Y-36062752D01*
X235187904Y-36110371D01*
X235140285Y-36205609D01*
X236568857Y-35967514D02*
X236568857Y-36634180D01*
X236330761Y-35586561D02*
X236092666Y-36300847D01*
X236711714Y-36300847D01*
D11*
X208350171Y-33561542D02*
X208350171Y-34275828D01*
X207873980Y-33990114D02*
X208350171Y-34275828D01*
X208826361Y-33990114D01*
X208064457Y-34847257D02*
X208350171Y-34275828D01*
X208635885Y-34847257D01*
X210635885Y-33704400D02*
X210445409Y-33561542D01*
X210159695Y-33561542D01*
X209873980Y-33704400D01*
X209683504Y-33990114D01*
X209588266Y-34275828D01*
X209493028Y-34847257D01*
X209493028Y-35275828D01*
X209588266Y-35847257D01*
X209683504Y-36132971D01*
X209873980Y-36418685D01*
X210159695Y-36561542D01*
X210350171Y-36561542D01*
X210635885Y-36418685D01*
X210731123Y-36275828D01*
X210731123Y-35275828D01*
X210350171Y-35275828D01*
X212540647Y-36561542D02*
X211588266Y-36561542D01*
X211588266Y-33561542D01*
X213493028Y-33561542D02*
X213493028Y-34275828D01*
X213016838Y-33990114D02*
X213493028Y-34275828D01*
X213969219Y-33990114D01*
X213207314Y-34847257D02*
X213493028Y-34275828D01*
X213778742Y-34847257D01*
D12*
X239144000Y-30610500D02*
X240474000Y-30610500D01*
X239144000Y-31940500D02*
X239144000Y-30610500D01*
X239144000Y-33210500D02*
X241804000Y-33210500D01*
X241804000Y-33210500D02*
X241804000Y-40890500D01*
X239144000Y-33210500D02*
X239144000Y-40890500D01*
X239144000Y-40890500D02*
X241804000Y-40890500D01*
X221852000Y-25866000D02*
X224152000Y-25866000D01*
X221852000Y-33266000D02*
X221852000Y-25866000D01*
X224152000Y-33266000D02*
X221852000Y-33266000D01*
X229252000Y-33266000D02*
X226952000Y-33266000D01*
X229252000Y-25866000D02*
X229252000Y-33266000D01*
X226952000Y-25866000D02*
X229252000Y-25866000D01*
X201934000Y-42097000D02*
X204594000Y-42097000D01*
X201934000Y-31877000D02*
X201934000Y-42097000D01*
X204594000Y-31877000D02*
X204594000Y-42097000D01*
X201934000Y-31877000D02*
X204594000Y-31877000D01*
X201934000Y-30607000D02*
X201934000Y-29277000D01*
X201934000Y-29277000D02*
X203264000Y-29277000D01*
X227079000Y-37892500D02*
X229379000Y-37892500D01*
X229379000Y-37892500D02*
X229379000Y-45292500D01*
X229379000Y-45292500D02*
X227079000Y-45292500D01*
X224279000Y-45292500D02*
X221979000Y-45292500D01*
X221979000Y-45292500D02*
X221979000Y-37892500D01*
X221979000Y-37892500D02*
X224279000Y-37892500D01*
X215210000Y-32306500D02*
X215210000Y-26606500D01*
X219510000Y-32306500D02*
X219510000Y-26606500D01*
X215210000Y-32306500D02*
X219510000Y-32306500D01*
X220336000Y-38233000D02*
X220336000Y-43933000D01*
X216036000Y-38233000D02*
X216036000Y-43933000D01*
X220336000Y-38233000D02*
X216036000Y-38233000D01*
X231727000Y-32589698D02*
X232527000Y-32589698D01*
X232127000Y-32989698D02*
X232127000Y-32189698D01*
X233909000Y-24499000D02*
X234975000Y-24499000D01*
X233674000Y-24539000D02*
X235210000Y-24539000D01*
X233494000Y-24579000D02*
X235390000Y-24579000D01*
X233344000Y-24619000D02*
X235540000Y-24619000D01*
X233213000Y-24659000D02*
X235671000Y-24659000D01*
X233096000Y-24699000D02*
X235788000Y-24699000D01*
X232989000Y-24739000D02*
X235895000Y-24739000D01*
X232890000Y-24779000D02*
X235994000Y-24779000D01*
X232797000Y-24819000D02*
X236087000Y-24819000D01*
X232711000Y-24859000D02*
X236173000Y-24859000D01*
X232629000Y-24899000D02*
X236255000Y-24899000D01*
X232552000Y-24939000D02*
X236332000Y-24939000D01*
X232478000Y-24979000D02*
X236406000Y-24979000D01*
X232408000Y-25019000D02*
X236476000Y-25019000D01*
X232340000Y-25059000D02*
X236544000Y-25059000D01*
X232276000Y-25099000D02*
X236608000Y-25099000D01*
X232214000Y-25139000D02*
X236670000Y-25139000D01*
X232155000Y-25179000D02*
X236729000Y-25179000D01*
X232097000Y-25219000D02*
X236787000Y-25219000D01*
X232042000Y-25259000D02*
X236842000Y-25259000D01*
X231988000Y-25299000D02*
X236896000Y-25299000D01*
X231937000Y-25339000D02*
X236947000Y-25339000D01*
X231886000Y-25379000D02*
X236998000Y-25379000D01*
X231838000Y-25419000D02*
X237046000Y-25419000D01*
X231791000Y-25459000D02*
X237093000Y-25459000D01*
X231745000Y-25499000D02*
X237139000Y-25499000D01*
X231701000Y-25539000D02*
X237183000Y-25539000D01*
X231658000Y-25579000D02*
X237226000Y-25579000D01*
X231616000Y-25619000D02*
X237268000Y-25619000D01*
X235482000Y-25659000D02*
X237309000Y-25659000D01*
X231575000Y-25659000D02*
X233402000Y-25659000D01*
X235482000Y-25699000D02*
X237349000Y-25699000D01*
X231535000Y-25699000D02*
X233402000Y-25699000D01*
X235482000Y-25739000D02*
X237387000Y-25739000D01*
X231497000Y-25739000D02*
X233402000Y-25739000D01*
X235482000Y-25779000D02*
X237425000Y-25779000D01*
X231459000Y-25779000D02*
X233402000Y-25779000D01*
X235482000Y-25819000D02*
X237461000Y-25819000D01*
X231423000Y-25819000D02*
X233402000Y-25819000D01*
X235482000Y-25859000D02*
X237497000Y-25859000D01*
X231387000Y-25859000D02*
X233402000Y-25859000D01*
X235482000Y-25899000D02*
X237532000Y-25899000D01*
X231352000Y-25899000D02*
X233402000Y-25899000D01*
X235482000Y-25939000D02*
X237566000Y-25939000D01*
X231318000Y-25939000D02*
X233402000Y-25939000D01*
X235482000Y-25979000D02*
X237598000Y-25979000D01*
X231286000Y-25979000D02*
X233402000Y-25979000D01*
X235482000Y-26019000D02*
X237631000Y-26019000D01*
X231253000Y-26019000D02*
X233402000Y-26019000D01*
X235482000Y-26059000D02*
X237662000Y-26059000D01*
X231222000Y-26059000D02*
X233402000Y-26059000D01*
X235482000Y-26099000D02*
X237692000Y-26099000D01*
X231192000Y-26099000D02*
X233402000Y-26099000D01*
X235482000Y-26139000D02*
X237722000Y-26139000D01*
X231162000Y-26139000D02*
X233402000Y-26139000D01*
X235482000Y-26179000D02*
X237751000Y-26179000D01*
X231133000Y-26179000D02*
X233402000Y-26179000D01*
X235482000Y-26219000D02*
X237780000Y-26219000D01*
X231104000Y-26219000D02*
X233402000Y-26219000D01*
X235482000Y-26259000D02*
X237807000Y-26259000D01*
X231077000Y-26259000D02*
X233402000Y-26259000D01*
X235482000Y-26299000D02*
X237834000Y-26299000D01*
X231050000Y-26299000D02*
X233402000Y-26299000D01*
X235482000Y-26339000D02*
X237860000Y-26339000D01*
X231024000Y-26339000D02*
X233402000Y-26339000D01*
X235482000Y-26379000D02*
X237886000Y-26379000D01*
X230998000Y-26379000D02*
X233402000Y-26379000D01*
X235482000Y-26419000D02*
X237911000Y-26419000D01*
X230973000Y-26419000D02*
X233402000Y-26419000D01*
X235482000Y-26459000D02*
X237935000Y-26459000D01*
X230949000Y-26459000D02*
X233402000Y-26459000D01*
X235482000Y-26499000D02*
X237959000Y-26499000D01*
X230925000Y-26499000D02*
X233402000Y-26499000D01*
X235482000Y-26539000D02*
X237982000Y-26539000D01*
X230902000Y-26539000D02*
X233402000Y-26539000D01*
X235482000Y-26579000D02*
X238004000Y-26579000D01*
X230880000Y-26579000D02*
X233402000Y-26579000D01*
X235482000Y-26619000D02*
X238026000Y-26619000D01*
X230858000Y-26619000D02*
X233402000Y-26619000D01*
X235482000Y-26659000D02*
X238048000Y-26659000D01*
X230836000Y-26659000D02*
X233402000Y-26659000D01*
X235482000Y-26699000D02*
X238069000Y-26699000D01*
X230815000Y-26699000D02*
X233402000Y-26699000D01*
X235482000Y-26739000D02*
X238089000Y-26739000D01*
X230795000Y-26739000D02*
X233402000Y-26739000D01*
X235482000Y-26779000D02*
X238108000Y-26779000D01*
X230776000Y-26779000D02*
X233402000Y-26779000D01*
X235482000Y-26819000D02*
X238128000Y-26819000D01*
X230756000Y-26819000D02*
X233402000Y-26819000D01*
X235482000Y-26859000D02*
X238146000Y-26859000D01*
X230738000Y-26859000D02*
X233402000Y-26859000D01*
X235482000Y-26899000D02*
X238164000Y-26899000D01*
X230720000Y-26899000D02*
X233402000Y-26899000D01*
X235482000Y-26939000D02*
X238182000Y-26939000D01*
X230702000Y-26939000D02*
X233402000Y-26939000D01*
X235482000Y-26979000D02*
X238199000Y-26979000D01*
X230685000Y-26979000D02*
X233402000Y-26979000D01*
X235482000Y-27019000D02*
X238216000Y-27019000D01*
X230668000Y-27019000D02*
X233402000Y-27019000D01*
X235482000Y-27059000D02*
X238232000Y-27059000D01*
X230652000Y-27059000D02*
X233402000Y-27059000D01*
X235482000Y-27099000D02*
X238247000Y-27099000D01*
X230637000Y-27099000D02*
X233402000Y-27099000D01*
X235482000Y-27139000D02*
X238263000Y-27139000D01*
X230621000Y-27139000D02*
X233402000Y-27139000D01*
X235482000Y-27179000D02*
X238277000Y-27179000D01*
X230607000Y-27179000D02*
X233402000Y-27179000D01*
X235482000Y-27219000D02*
X238292000Y-27219000D01*
X230592000Y-27219000D02*
X233402000Y-27219000D01*
X235482000Y-27259000D02*
X238305000Y-27259000D01*
X230579000Y-27259000D02*
X233402000Y-27259000D01*
X235482000Y-27299000D02*
X238319000Y-27299000D01*
X230565000Y-27299000D02*
X233402000Y-27299000D01*
X235482000Y-27339000D02*
X238331000Y-27339000D01*
X230553000Y-27339000D02*
X233402000Y-27339000D01*
X235482000Y-27379000D02*
X238344000Y-27379000D01*
X230540000Y-27379000D02*
X233402000Y-27379000D01*
X235482000Y-27419000D02*
X238356000Y-27419000D01*
X230528000Y-27419000D02*
X233402000Y-27419000D01*
X235482000Y-27459000D02*
X238367000Y-27459000D01*
X230517000Y-27459000D02*
X233402000Y-27459000D01*
X235482000Y-27499000D02*
X238378000Y-27499000D01*
X230506000Y-27499000D02*
X233402000Y-27499000D01*
X235482000Y-27539000D02*
X238389000Y-27539000D01*
X230495000Y-27539000D02*
X233402000Y-27539000D01*
X235482000Y-27579000D02*
X238399000Y-27579000D01*
X230485000Y-27579000D02*
X233402000Y-27579000D01*
X235482000Y-27619000D02*
X238409000Y-27619000D01*
X230475000Y-27619000D02*
X233402000Y-27619000D01*
X235482000Y-27659000D02*
X238418000Y-27659000D01*
X230466000Y-27659000D02*
X233402000Y-27659000D01*
X235482000Y-27699000D02*
X238427000Y-27699000D01*
X230457000Y-27699000D02*
X233402000Y-27699000D01*
X230448000Y-27739000D02*
X238436000Y-27739000D01*
X230440000Y-27779000D02*
X238444000Y-27779000D01*
X230432000Y-27819000D02*
X238452000Y-27819000D01*
X230425000Y-27859000D02*
X238459000Y-27859000D01*
X230418000Y-27900000D02*
X238466000Y-27900000D01*
X230412000Y-27940000D02*
X238472000Y-27940000D01*
X230405000Y-27980000D02*
X238479000Y-27980000D01*
X230400000Y-28020000D02*
X238484000Y-28020000D01*
X230394000Y-28060000D02*
X238490000Y-28060000D01*
X230390000Y-28100000D02*
X238494000Y-28100000D01*
X230385000Y-28140000D02*
X238499000Y-28140000D01*
X230381000Y-28180000D02*
X238503000Y-28180000D01*
X230377000Y-28220000D02*
X238507000Y-28220000D01*
X230374000Y-28260000D02*
X238510000Y-28260000D01*
X230371000Y-28300000D02*
X238513000Y-28300000D01*
X230368000Y-28340000D02*
X238516000Y-28340000D01*
X230366000Y-28380000D02*
X238518000Y-28380000D01*
X230365000Y-28420000D02*
X238519000Y-28420000D01*
X230363000Y-28460000D02*
X238521000Y-28460000D01*
X230362000Y-28500000D02*
X238522000Y-28500000D01*
X230362000Y-28540000D02*
X238522000Y-28540000D01*
X230362000Y-28580000D02*
X238522000Y-28580000D01*
X238562000Y-28580000D02*
G75*
G03*
X238562000Y-28580000I-4120000J0D01*
G01*
X230427302Y-40020500D02*
X230427302Y-40820500D01*
X230027302Y-40420500D02*
X230827302Y-40420500D01*
X238518000Y-42202500D02*
X238518000Y-43268500D01*
X238478000Y-41967500D02*
X238478000Y-43503500D01*
X238438000Y-41787500D02*
X238438000Y-43683500D01*
X238398000Y-41637500D02*
X238398000Y-43833500D01*
X238358000Y-41506500D02*
X238358000Y-43964500D01*
X238318000Y-41389500D02*
X238318000Y-44081500D01*
X238278000Y-41282500D02*
X238278000Y-44188500D01*
X238238000Y-41183500D02*
X238238000Y-44287500D01*
X238198000Y-41090500D02*
X238198000Y-44380500D01*
X238158000Y-41004500D02*
X238158000Y-44466500D01*
X238118000Y-40922500D02*
X238118000Y-44548500D01*
X238078000Y-40845500D02*
X238078000Y-44625500D01*
X238038000Y-40771500D02*
X238038000Y-44699500D01*
X237998000Y-40701500D02*
X237998000Y-44769500D01*
X237958000Y-40633500D02*
X237958000Y-44837500D01*
X237918000Y-40569500D02*
X237918000Y-44901500D01*
X237878000Y-40507500D02*
X237878000Y-44963500D01*
X237838000Y-40448500D02*
X237838000Y-45022500D01*
X237798000Y-40390500D02*
X237798000Y-45080500D01*
X237758000Y-40335500D02*
X237758000Y-45135500D01*
X237718000Y-40281500D02*
X237718000Y-45189500D01*
X237678000Y-40230500D02*
X237678000Y-45240500D01*
X237638000Y-40179500D02*
X237638000Y-45291500D01*
X237598000Y-40131500D02*
X237598000Y-45339500D01*
X237558000Y-40084500D02*
X237558000Y-45386500D01*
X237518000Y-40038500D02*
X237518000Y-45432500D01*
X237478000Y-39994500D02*
X237478000Y-45476500D01*
X237438000Y-39951500D02*
X237438000Y-45519500D01*
X237398000Y-39909500D02*
X237398000Y-45561500D01*
X237358000Y-43775500D02*
X237358000Y-45602500D01*
X237358000Y-39868500D02*
X237358000Y-41695500D01*
X237318000Y-43775500D02*
X237318000Y-45642500D01*
X237318000Y-39828500D02*
X237318000Y-41695500D01*
X237278000Y-43775500D02*
X237278000Y-45680500D01*
X237278000Y-39790500D02*
X237278000Y-41695500D01*
X237238000Y-43775500D02*
X237238000Y-45718500D01*
X237238000Y-39752500D02*
X237238000Y-41695500D01*
X237198000Y-43775500D02*
X237198000Y-45754500D01*
X237198000Y-39716500D02*
X237198000Y-41695500D01*
X237158000Y-43775500D02*
X237158000Y-45790500D01*
X237158000Y-39680500D02*
X237158000Y-41695500D01*
X237118000Y-43775500D02*
X237118000Y-45825500D01*
X237118000Y-39645500D02*
X237118000Y-41695500D01*
X237078000Y-43775500D02*
X237078000Y-45859500D01*
X237078000Y-39611500D02*
X237078000Y-41695500D01*
X237038000Y-43775500D02*
X237038000Y-45891500D01*
X237038000Y-39579500D02*
X237038000Y-41695500D01*
X236998000Y-43775500D02*
X236998000Y-45924500D01*
X236998000Y-39546500D02*
X236998000Y-41695500D01*
X236958000Y-43775500D02*
X236958000Y-45955500D01*
X236958000Y-39515500D02*
X236958000Y-41695500D01*
X236918000Y-43775500D02*
X236918000Y-45985500D01*
X236918000Y-39485500D02*
X236918000Y-41695500D01*
X236878000Y-43775500D02*
X236878000Y-46015500D01*
X236878000Y-39455500D02*
X236878000Y-41695500D01*
X236838000Y-43775500D02*
X236838000Y-46044500D01*
X236838000Y-39426500D02*
X236838000Y-41695500D01*
X236798000Y-43775500D02*
X236798000Y-46073500D01*
X236798000Y-39397500D02*
X236798000Y-41695500D01*
X236758000Y-43775500D02*
X236758000Y-46100500D01*
X236758000Y-39370500D02*
X236758000Y-41695500D01*
X236718000Y-43775500D02*
X236718000Y-46127500D01*
X236718000Y-39343500D02*
X236718000Y-41695500D01*
X236678000Y-43775500D02*
X236678000Y-46153500D01*
X236678000Y-39317500D02*
X236678000Y-41695500D01*
X236638000Y-43775500D02*
X236638000Y-46179500D01*
X236638000Y-39291500D02*
X236638000Y-41695500D01*
X236598000Y-43775500D02*
X236598000Y-46204500D01*
X236598000Y-39266500D02*
X236598000Y-41695500D01*
X236558000Y-43775500D02*
X236558000Y-46228500D01*
X236558000Y-39242500D02*
X236558000Y-41695500D01*
X236518000Y-43775500D02*
X236518000Y-46252500D01*
X236518000Y-39218500D02*
X236518000Y-41695500D01*
X236478000Y-43775500D02*
X236478000Y-46275500D01*
X236478000Y-39195500D02*
X236478000Y-41695500D01*
X236438000Y-43775500D02*
X236438000Y-46297500D01*
X236438000Y-39173500D02*
X236438000Y-41695500D01*
X236398000Y-43775500D02*
X236398000Y-46319500D01*
X236398000Y-39151500D02*
X236398000Y-41695500D01*
X236358000Y-43775500D02*
X236358000Y-46341500D01*
X236358000Y-39129500D02*
X236358000Y-41695500D01*
X236318000Y-43775500D02*
X236318000Y-46362500D01*
X236318000Y-39108500D02*
X236318000Y-41695500D01*
X236278000Y-43775500D02*
X236278000Y-46382500D01*
X236278000Y-39088500D02*
X236278000Y-41695500D01*
X236238000Y-43775500D02*
X236238000Y-46401500D01*
X236238000Y-39069500D02*
X236238000Y-41695500D01*
X236198000Y-43775500D02*
X236198000Y-46421500D01*
X236198000Y-39049500D02*
X236198000Y-41695500D01*
X236158000Y-43775500D02*
X236158000Y-46439500D01*
X236158000Y-39031500D02*
X236158000Y-41695500D01*
X236118000Y-43775500D02*
X236118000Y-46457500D01*
X236118000Y-39013500D02*
X236118000Y-41695500D01*
X236078000Y-43775500D02*
X236078000Y-46475500D01*
X236078000Y-38995500D02*
X236078000Y-41695500D01*
X236038000Y-43775500D02*
X236038000Y-46492500D01*
X236038000Y-38978500D02*
X236038000Y-41695500D01*
X235998000Y-43775500D02*
X235998000Y-46509500D01*
X235998000Y-38961500D02*
X235998000Y-41695500D01*
X235958000Y-43775500D02*
X235958000Y-46525500D01*
X235958000Y-38945500D02*
X235958000Y-41695500D01*
X235918000Y-43775500D02*
X235918000Y-46540500D01*
X235918000Y-38930500D02*
X235918000Y-41695500D01*
X235878000Y-43775500D02*
X235878000Y-46556500D01*
X235878000Y-38914500D02*
X235878000Y-41695500D01*
X235838000Y-43775500D02*
X235838000Y-46570500D01*
X235838000Y-38900500D02*
X235838000Y-41695500D01*
X235798000Y-43775500D02*
X235798000Y-46585500D01*
X235798000Y-38885500D02*
X235798000Y-41695500D01*
X235758000Y-43775500D02*
X235758000Y-46598500D01*
X235758000Y-38872500D02*
X235758000Y-41695500D01*
X235718000Y-43775500D02*
X235718000Y-46612500D01*
X235718000Y-38858500D02*
X235718000Y-41695500D01*
X235678000Y-43775500D02*
X235678000Y-46624500D01*
X235678000Y-38846500D02*
X235678000Y-41695500D01*
X235638000Y-43775500D02*
X235638000Y-46637500D01*
X235638000Y-38833500D02*
X235638000Y-41695500D01*
X235598000Y-43775500D02*
X235598000Y-46649500D01*
X235598000Y-38821500D02*
X235598000Y-41695500D01*
X235558000Y-43775500D02*
X235558000Y-46660500D01*
X235558000Y-38810500D02*
X235558000Y-41695500D01*
X235518000Y-43775500D02*
X235518000Y-46671500D01*
X235518000Y-38799500D02*
X235518000Y-41695500D01*
X235478000Y-43775500D02*
X235478000Y-46682500D01*
X235478000Y-38788500D02*
X235478000Y-41695500D01*
X235438000Y-43775500D02*
X235438000Y-46692500D01*
X235438000Y-38778500D02*
X235438000Y-41695500D01*
X235398000Y-43775500D02*
X235398000Y-46702500D01*
X235398000Y-38768500D02*
X235398000Y-41695500D01*
X235358000Y-43775500D02*
X235358000Y-46711500D01*
X235358000Y-38759500D02*
X235358000Y-41695500D01*
X235318000Y-43775500D02*
X235318000Y-46720500D01*
X235318000Y-38750500D02*
X235318000Y-41695500D01*
X235278000Y-38741500D02*
X235278000Y-46729500D01*
X235238000Y-38733500D02*
X235238000Y-46737500D01*
X235198000Y-38725500D02*
X235198000Y-46745500D01*
X235158000Y-38718500D02*
X235158000Y-46752500D01*
X235117000Y-38711500D02*
X235117000Y-46759500D01*
X235077000Y-38705500D02*
X235077000Y-46765500D01*
X235037000Y-38698500D02*
X235037000Y-46772500D01*
X234997000Y-38693500D02*
X234997000Y-46777500D01*
X234957000Y-38687500D02*
X234957000Y-46783500D01*
X234917000Y-38683500D02*
X234917000Y-46787500D01*
X234877000Y-38678500D02*
X234877000Y-46792500D01*
X234837000Y-38674500D02*
X234837000Y-46796500D01*
X234797000Y-38670500D02*
X234797000Y-46800500D01*
X234757000Y-38667500D02*
X234757000Y-46803500D01*
X234717000Y-38664500D02*
X234717000Y-46806500D01*
X234677000Y-38661500D02*
X234677000Y-46809500D01*
X234637000Y-38659500D02*
X234637000Y-46811500D01*
X234597000Y-38658500D02*
X234597000Y-46812500D01*
X234557000Y-38656500D02*
X234557000Y-46814500D01*
X234517000Y-38655500D02*
X234517000Y-46815500D01*
X234477000Y-38655500D02*
X234477000Y-46815500D01*
X234437000Y-38655500D02*
X234437000Y-46815500D01*
X238557000Y-42735500D02*
G75*
G03*
X238557000Y-42735500I-4120000J0D01*
G01*
X206835000Y-32589698D02*
X207635000Y-32589698D01*
X207235000Y-32989698D02*
X207235000Y-32189698D01*
X209017000Y-24499000D02*
X210083000Y-24499000D01*
X208782000Y-24539000D02*
X210318000Y-24539000D01*
X208602000Y-24579000D02*
X210498000Y-24579000D01*
X208452000Y-24619000D02*
X210648000Y-24619000D01*
X208321000Y-24659000D02*
X210779000Y-24659000D01*
X208204000Y-24699000D02*
X210896000Y-24699000D01*
X208097000Y-24739000D02*
X211003000Y-24739000D01*
X207998000Y-24779000D02*
X211102000Y-24779000D01*
X207905000Y-24819000D02*
X211195000Y-24819000D01*
X207819000Y-24859000D02*
X211281000Y-24859000D01*
X207737000Y-24899000D02*
X211363000Y-24899000D01*
X207660000Y-24939000D02*
X211440000Y-24939000D01*
X207586000Y-24979000D02*
X211514000Y-24979000D01*
X207516000Y-25019000D02*
X211584000Y-25019000D01*
X207448000Y-25059000D02*
X211652000Y-25059000D01*
X207384000Y-25099000D02*
X211716000Y-25099000D01*
X207322000Y-25139000D02*
X211778000Y-25139000D01*
X207263000Y-25179000D02*
X211837000Y-25179000D01*
X207205000Y-25219000D02*
X211895000Y-25219000D01*
X207150000Y-25259000D02*
X211950000Y-25259000D01*
X207096000Y-25299000D02*
X212004000Y-25299000D01*
X207045000Y-25339000D02*
X212055000Y-25339000D01*
X206994000Y-25379000D02*
X212106000Y-25379000D01*
X206946000Y-25419000D02*
X212154000Y-25419000D01*
X206899000Y-25459000D02*
X212201000Y-25459000D01*
X206853000Y-25499000D02*
X212247000Y-25499000D01*
X206809000Y-25539000D02*
X212291000Y-25539000D01*
X206766000Y-25579000D02*
X212334000Y-25579000D01*
X206724000Y-25619000D02*
X212376000Y-25619000D01*
X210590000Y-25659000D02*
X212417000Y-25659000D01*
X206683000Y-25659000D02*
X208510000Y-25659000D01*
X210590000Y-25699000D02*
X212457000Y-25699000D01*
X206643000Y-25699000D02*
X208510000Y-25699000D01*
X210590000Y-25739000D02*
X212495000Y-25739000D01*
X206605000Y-25739000D02*
X208510000Y-25739000D01*
X210590000Y-25779000D02*
X212533000Y-25779000D01*
X206567000Y-25779000D02*
X208510000Y-25779000D01*
X210590000Y-25819000D02*
X212569000Y-25819000D01*
X206531000Y-25819000D02*
X208510000Y-25819000D01*
X210590000Y-25859000D02*
X212605000Y-25859000D01*
X206495000Y-25859000D02*
X208510000Y-25859000D01*
X210590000Y-25899000D02*
X212640000Y-25899000D01*
X206460000Y-25899000D02*
X208510000Y-25899000D01*
X210590000Y-25939000D02*
X212674000Y-25939000D01*
X206426000Y-25939000D02*
X208510000Y-25939000D01*
X210590000Y-25979000D02*
X212706000Y-25979000D01*
X206394000Y-25979000D02*
X208510000Y-25979000D01*
X210590000Y-26019000D02*
X212739000Y-26019000D01*
X206361000Y-26019000D02*
X208510000Y-26019000D01*
X210590000Y-26059000D02*
X212770000Y-26059000D01*
X206330000Y-26059000D02*
X208510000Y-26059000D01*
X210590000Y-26099000D02*
X212800000Y-26099000D01*
X206300000Y-26099000D02*
X208510000Y-26099000D01*
X210590000Y-26139000D02*
X212830000Y-26139000D01*
X206270000Y-26139000D02*
X208510000Y-26139000D01*
X210590000Y-26179000D02*
X212859000Y-26179000D01*
X206241000Y-26179000D02*
X208510000Y-26179000D01*
X210590000Y-26219000D02*
X212888000Y-26219000D01*
X206212000Y-26219000D02*
X208510000Y-26219000D01*
X210590000Y-26259000D02*
X212915000Y-26259000D01*
X206185000Y-26259000D02*
X208510000Y-26259000D01*
X210590000Y-26299000D02*
X212942000Y-26299000D01*
X206158000Y-26299000D02*
X208510000Y-26299000D01*
X210590000Y-26339000D02*
X212968000Y-26339000D01*
X206132000Y-26339000D02*
X208510000Y-26339000D01*
X210590000Y-26379000D02*
X212994000Y-26379000D01*
X206106000Y-26379000D02*
X208510000Y-26379000D01*
X210590000Y-26419000D02*
X213019000Y-26419000D01*
X206081000Y-26419000D02*
X208510000Y-26419000D01*
X210590000Y-26459000D02*
X213043000Y-26459000D01*
X206057000Y-26459000D02*
X208510000Y-26459000D01*
X210590000Y-26499000D02*
X213067000Y-26499000D01*
X206033000Y-26499000D02*
X208510000Y-26499000D01*
X210590000Y-26539000D02*
X213090000Y-26539000D01*
X206010000Y-26539000D02*
X208510000Y-26539000D01*
X210590000Y-26579000D02*
X213112000Y-26579000D01*
X205988000Y-26579000D02*
X208510000Y-26579000D01*
X210590000Y-26619000D02*
X213134000Y-26619000D01*
X205966000Y-26619000D02*
X208510000Y-26619000D01*
X210590000Y-26659000D02*
X213156000Y-26659000D01*
X205944000Y-26659000D02*
X208510000Y-26659000D01*
X210590000Y-26699000D02*
X213177000Y-26699000D01*
X205923000Y-26699000D02*
X208510000Y-26699000D01*
X210590000Y-26739000D02*
X213197000Y-26739000D01*
X205903000Y-26739000D02*
X208510000Y-26739000D01*
X210590000Y-26779000D02*
X213216000Y-26779000D01*
X205884000Y-26779000D02*
X208510000Y-26779000D01*
X210590000Y-26819000D02*
X213236000Y-26819000D01*
X205864000Y-26819000D02*
X208510000Y-26819000D01*
X210590000Y-26859000D02*
X213254000Y-26859000D01*
X205846000Y-26859000D02*
X208510000Y-26859000D01*
X210590000Y-26899000D02*
X213272000Y-26899000D01*
X205828000Y-26899000D02*
X208510000Y-26899000D01*
X210590000Y-26939000D02*
X213290000Y-26939000D01*
X205810000Y-26939000D02*
X208510000Y-26939000D01*
X210590000Y-26979000D02*
X213307000Y-26979000D01*
X205793000Y-26979000D02*
X208510000Y-26979000D01*
X210590000Y-27019000D02*
X213324000Y-27019000D01*
X205776000Y-27019000D02*
X208510000Y-27019000D01*
X210590000Y-27059000D02*
X213340000Y-27059000D01*
X205760000Y-27059000D02*
X208510000Y-27059000D01*
X210590000Y-27099000D02*
X213355000Y-27099000D01*
X205745000Y-27099000D02*
X208510000Y-27099000D01*
X210590000Y-27139000D02*
X213371000Y-27139000D01*
X205729000Y-27139000D02*
X208510000Y-27139000D01*
X210590000Y-27179000D02*
X213385000Y-27179000D01*
X205715000Y-27179000D02*
X208510000Y-27179000D01*
X210590000Y-27219000D02*
X213400000Y-27219000D01*
X205700000Y-27219000D02*
X208510000Y-27219000D01*
X210590000Y-27259000D02*
X213413000Y-27259000D01*
X205687000Y-27259000D02*
X208510000Y-27259000D01*
X210590000Y-27299000D02*
X213427000Y-27299000D01*
X205673000Y-27299000D02*
X208510000Y-27299000D01*
X210590000Y-27339000D02*
X213439000Y-27339000D01*
X205661000Y-27339000D02*
X208510000Y-27339000D01*
X210590000Y-27379000D02*
X213452000Y-27379000D01*
X205648000Y-27379000D02*
X208510000Y-27379000D01*
X210590000Y-27419000D02*
X213464000Y-27419000D01*
X205636000Y-27419000D02*
X208510000Y-27419000D01*
X210590000Y-27459000D02*
X213475000Y-27459000D01*
X205625000Y-27459000D02*
X208510000Y-27459000D01*
X210590000Y-27499000D02*
X213486000Y-27499000D01*
X205614000Y-27499000D02*
X208510000Y-27499000D01*
X210590000Y-27539000D02*
X213497000Y-27539000D01*
X205603000Y-27539000D02*
X208510000Y-27539000D01*
X210590000Y-27579000D02*
X213507000Y-27579000D01*
X205593000Y-27579000D02*
X208510000Y-27579000D01*
X210590000Y-27619000D02*
X213517000Y-27619000D01*
X205583000Y-27619000D02*
X208510000Y-27619000D01*
X210590000Y-27659000D02*
X213526000Y-27659000D01*
X205574000Y-27659000D02*
X208510000Y-27659000D01*
X210590000Y-27699000D02*
X213535000Y-27699000D01*
X205565000Y-27699000D02*
X208510000Y-27699000D01*
X205556000Y-27739000D02*
X213544000Y-27739000D01*
X205548000Y-27779000D02*
X213552000Y-27779000D01*
X205540000Y-27819000D02*
X213560000Y-27819000D01*
X205533000Y-27859000D02*
X213567000Y-27859000D01*
X205526000Y-27900000D02*
X213574000Y-27900000D01*
X205520000Y-27940000D02*
X213580000Y-27940000D01*
X205513000Y-27980000D02*
X213587000Y-27980000D01*
X205508000Y-28020000D02*
X213592000Y-28020000D01*
X205502000Y-28060000D02*
X213598000Y-28060000D01*
X205498000Y-28100000D02*
X213602000Y-28100000D01*
X205493000Y-28140000D02*
X213607000Y-28140000D01*
X205489000Y-28180000D02*
X213611000Y-28180000D01*
X205485000Y-28220000D02*
X213615000Y-28220000D01*
X205482000Y-28260000D02*
X213618000Y-28260000D01*
X205479000Y-28300000D02*
X213621000Y-28300000D01*
X205476000Y-28340000D02*
X213624000Y-28340000D01*
X205474000Y-28380000D02*
X213626000Y-28380000D01*
X205473000Y-28420000D02*
X213627000Y-28420000D01*
X205471000Y-28460000D02*
X213629000Y-28460000D01*
X205470000Y-28500000D02*
X213630000Y-28500000D01*
X205470000Y-28540000D02*
X213630000Y-28540000D01*
X205470000Y-28580000D02*
X213630000Y-28580000D01*
X213670000Y-28580000D02*
G75*
G03*
X213670000Y-28580000I-4120000J0D01*
G01*
X212265000Y-38593802D02*
X211465000Y-38593802D01*
X211865000Y-38193802D02*
X211865000Y-38993802D01*
X210083000Y-46684500D02*
X209017000Y-46684500D01*
X210318000Y-46644500D02*
X208782000Y-46644500D01*
X210498000Y-46604500D02*
X208602000Y-46604500D01*
X210648000Y-46564500D02*
X208452000Y-46564500D01*
X210779000Y-46524500D02*
X208321000Y-46524500D01*
X210896000Y-46484500D02*
X208204000Y-46484500D01*
X211003000Y-46444500D02*
X208097000Y-46444500D01*
X211102000Y-46404500D02*
X207998000Y-46404500D01*
X211195000Y-46364500D02*
X207905000Y-46364500D01*
X211281000Y-46324500D02*
X207819000Y-46324500D01*
X211363000Y-46284500D02*
X207737000Y-46284500D01*
X211440000Y-46244500D02*
X207660000Y-46244500D01*
X211514000Y-46204500D02*
X207586000Y-46204500D01*
X211584000Y-46164500D02*
X207516000Y-46164500D01*
X211652000Y-46124500D02*
X207448000Y-46124500D01*
X211716000Y-46084500D02*
X207384000Y-46084500D01*
X211778000Y-46044500D02*
X207322000Y-46044500D01*
X211837000Y-46004500D02*
X207263000Y-46004500D01*
X211895000Y-45964500D02*
X207205000Y-45964500D01*
X211950000Y-45924500D02*
X207150000Y-45924500D01*
X212004000Y-45884500D02*
X207096000Y-45884500D01*
X212055000Y-45844500D02*
X207045000Y-45844500D01*
X212106000Y-45804500D02*
X206994000Y-45804500D01*
X212154000Y-45764500D02*
X206946000Y-45764500D01*
X212201000Y-45724500D02*
X206899000Y-45724500D01*
X212247000Y-45684500D02*
X206853000Y-45684500D01*
X212291000Y-45644500D02*
X206809000Y-45644500D01*
X212334000Y-45604500D02*
X206766000Y-45604500D01*
X212376000Y-45564500D02*
X206724000Y-45564500D01*
X208510000Y-45524500D02*
X206683000Y-45524500D01*
X212417000Y-45524500D02*
X210590000Y-45524500D01*
X208510000Y-45484500D02*
X206643000Y-45484500D01*
X212457000Y-45484500D02*
X210590000Y-45484500D01*
X208510000Y-45444500D02*
X206605000Y-45444500D01*
X212495000Y-45444500D02*
X210590000Y-45444500D01*
X208510000Y-45404500D02*
X206567000Y-45404500D01*
X212533000Y-45404500D02*
X210590000Y-45404500D01*
X208510000Y-45364500D02*
X206531000Y-45364500D01*
X212569000Y-45364500D02*
X210590000Y-45364500D01*
X208510000Y-45324500D02*
X206495000Y-45324500D01*
X212605000Y-45324500D02*
X210590000Y-45324500D01*
X208510000Y-45284500D02*
X206460000Y-45284500D01*
X212640000Y-45284500D02*
X210590000Y-45284500D01*
X208510000Y-45244500D02*
X206426000Y-45244500D01*
X212674000Y-45244500D02*
X210590000Y-45244500D01*
X208510000Y-45204500D02*
X206394000Y-45204500D01*
X212706000Y-45204500D02*
X210590000Y-45204500D01*
X208510000Y-45164500D02*
X206361000Y-45164500D01*
X212739000Y-45164500D02*
X210590000Y-45164500D01*
X208510000Y-45124500D02*
X206330000Y-45124500D01*
X212770000Y-45124500D02*
X210590000Y-45124500D01*
X208510000Y-45084500D02*
X206300000Y-45084500D01*
X212800000Y-45084500D02*
X210590000Y-45084500D01*
X208510000Y-45044500D02*
X206270000Y-45044500D01*
X212830000Y-45044500D02*
X210590000Y-45044500D01*
X208510000Y-45004500D02*
X206241000Y-45004500D01*
X212859000Y-45004500D02*
X210590000Y-45004500D01*
X208510000Y-44964500D02*
X206212000Y-44964500D01*
X212888000Y-44964500D02*
X210590000Y-44964500D01*
X208510000Y-44924500D02*
X206185000Y-44924500D01*
X212915000Y-44924500D02*
X210590000Y-44924500D01*
X208510000Y-44884500D02*
X206158000Y-44884500D01*
X212942000Y-44884500D02*
X210590000Y-44884500D01*
X208510000Y-44844500D02*
X206132000Y-44844500D01*
X212968000Y-44844500D02*
X210590000Y-44844500D01*
X208510000Y-44804500D02*
X206106000Y-44804500D01*
X212994000Y-44804500D02*
X210590000Y-44804500D01*
X208510000Y-44764500D02*
X206081000Y-44764500D01*
X213019000Y-44764500D02*
X210590000Y-44764500D01*
X208510000Y-44724500D02*
X206057000Y-44724500D01*
X213043000Y-44724500D02*
X210590000Y-44724500D01*
X208510000Y-44684500D02*
X206033000Y-44684500D01*
X213067000Y-44684500D02*
X210590000Y-44684500D01*
X208510000Y-44644500D02*
X206010000Y-44644500D01*
X213090000Y-44644500D02*
X210590000Y-44644500D01*
X208510000Y-44604500D02*
X205988000Y-44604500D01*
X213112000Y-44604500D02*
X210590000Y-44604500D01*
X208510000Y-44564500D02*
X205966000Y-44564500D01*
X213134000Y-44564500D02*
X210590000Y-44564500D01*
X208510000Y-44524500D02*
X205944000Y-44524500D01*
X213156000Y-44524500D02*
X210590000Y-44524500D01*
X208510000Y-44484500D02*
X205923000Y-44484500D01*
X213177000Y-44484500D02*
X210590000Y-44484500D01*
X208510000Y-44444500D02*
X205903000Y-44444500D01*
X213197000Y-44444500D02*
X210590000Y-44444500D01*
X208510000Y-44404500D02*
X205884000Y-44404500D01*
X213216000Y-44404500D02*
X210590000Y-44404500D01*
X208510000Y-44364500D02*
X205864000Y-44364500D01*
X213236000Y-44364500D02*
X210590000Y-44364500D01*
X208510000Y-44324500D02*
X205846000Y-44324500D01*
X213254000Y-44324500D02*
X210590000Y-44324500D01*
X208510000Y-44284500D02*
X205828000Y-44284500D01*
X213272000Y-44284500D02*
X210590000Y-44284500D01*
X208510000Y-44244500D02*
X205810000Y-44244500D01*
X213290000Y-44244500D02*
X210590000Y-44244500D01*
X208510000Y-44204500D02*
X205793000Y-44204500D01*
X213307000Y-44204500D02*
X210590000Y-44204500D01*
X208510000Y-44164500D02*
X205776000Y-44164500D01*
X213324000Y-44164500D02*
X210590000Y-44164500D01*
X208510000Y-44124500D02*
X205760000Y-44124500D01*
X213340000Y-44124500D02*
X210590000Y-44124500D01*
X208510000Y-44084500D02*
X205745000Y-44084500D01*
X213355000Y-44084500D02*
X210590000Y-44084500D01*
X208510000Y-44044500D02*
X205729000Y-44044500D01*
X213371000Y-44044500D02*
X210590000Y-44044500D01*
X208510000Y-44004500D02*
X205715000Y-44004500D01*
X213385000Y-44004500D02*
X210590000Y-44004500D01*
X208510000Y-43964500D02*
X205700000Y-43964500D01*
X213400000Y-43964500D02*
X210590000Y-43964500D01*
X208510000Y-43924500D02*
X205687000Y-43924500D01*
X213413000Y-43924500D02*
X210590000Y-43924500D01*
X208510000Y-43884500D02*
X205673000Y-43884500D01*
X213427000Y-43884500D02*
X210590000Y-43884500D01*
X208510000Y-43844500D02*
X205661000Y-43844500D01*
X213439000Y-43844500D02*
X210590000Y-43844500D01*
X208510000Y-43804500D02*
X205648000Y-43804500D01*
X213452000Y-43804500D02*
X210590000Y-43804500D01*
X208510000Y-43764500D02*
X205636000Y-43764500D01*
X213464000Y-43764500D02*
X210590000Y-43764500D01*
X208510000Y-43724500D02*
X205625000Y-43724500D01*
X213475000Y-43724500D02*
X210590000Y-43724500D01*
X208510000Y-43684500D02*
X205614000Y-43684500D01*
X213486000Y-43684500D02*
X210590000Y-43684500D01*
X208510000Y-43644500D02*
X205603000Y-43644500D01*
X213497000Y-43644500D02*
X210590000Y-43644500D01*
X208510000Y-43604500D02*
X205593000Y-43604500D01*
X213507000Y-43604500D02*
X210590000Y-43604500D01*
X208510000Y-43564500D02*
X205583000Y-43564500D01*
X213517000Y-43564500D02*
X210590000Y-43564500D01*
X208510000Y-43524500D02*
X205574000Y-43524500D01*
X213526000Y-43524500D02*
X210590000Y-43524500D01*
X208510000Y-43484500D02*
X205565000Y-43484500D01*
X213535000Y-43484500D02*
X210590000Y-43484500D01*
X213544000Y-43444500D02*
X205556000Y-43444500D01*
X213552000Y-43404500D02*
X205548000Y-43404500D01*
X213560000Y-43364500D02*
X205540000Y-43364500D01*
X213567000Y-43324500D02*
X205533000Y-43324500D01*
X213574000Y-43283500D02*
X205526000Y-43283500D01*
X213580000Y-43243500D02*
X205520000Y-43243500D01*
X213587000Y-43203500D02*
X205513000Y-43203500D01*
X213592000Y-43163500D02*
X205508000Y-43163500D01*
X213598000Y-43123500D02*
X205502000Y-43123500D01*
X213602000Y-43083500D02*
X205498000Y-43083500D01*
X213607000Y-43043500D02*
X205493000Y-43043500D01*
X213611000Y-43003500D02*
X205489000Y-43003500D01*
X213615000Y-42963500D02*
X205485000Y-42963500D01*
X213618000Y-42923500D02*
X205482000Y-42923500D01*
X213621000Y-42883500D02*
X205479000Y-42883500D01*
X213624000Y-42843500D02*
X205476000Y-42843500D01*
X213626000Y-42803500D02*
X205474000Y-42803500D01*
X213627000Y-42763500D02*
X205473000Y-42763500D01*
X213629000Y-42723500D02*
X205471000Y-42723500D01*
X213630000Y-42683500D02*
X205470000Y-42683500D01*
X213630000Y-42643500D02*
X205470000Y-42643500D01*
X213630000Y-42603500D02*
X205470000Y-42603500D01*
X213670000Y-42603500D02*
G75*
G03*
X213670000Y-42603500I-4120000J0D01*
G01*
D10*
X240140666Y-29062880D02*
X240140666Y-29777166D01*
X240093047Y-29920023D01*
X239997809Y-30015261D01*
X239854952Y-30062880D01*
X239759714Y-30062880D01*
X240569238Y-29158119D02*
X240616857Y-29110500D01*
X240712095Y-29062880D01*
X240950190Y-29062880D01*
X241045428Y-29110500D01*
X241093047Y-29158119D01*
X241140666Y-29253357D01*
X241140666Y-29348595D01*
X241093047Y-29491452D01*
X240521619Y-30062880D01*
X241140666Y-30062880D01*
X223413580Y-34964666D02*
X223413580Y-35440857D01*
X222413580Y-35440857D01*
X222508819Y-34678952D02*
X222461200Y-34631333D01*
X222413580Y-34536095D01*
X222413580Y-34298000D01*
X222461200Y-34202761D01*
X222508819Y-34155142D01*
X222604057Y-34107523D01*
X222699295Y-34107523D01*
X222842152Y-34155142D01*
X223413580Y-34726571D01*
X223413580Y-34107523D01*
X202930666Y-27729380D02*
X202930666Y-28443666D01*
X202883047Y-28586523D01*
X202787809Y-28681761D01*
X202644952Y-28729380D01*
X202549714Y-28729380D01*
X203930666Y-28729380D02*
X203359238Y-28729380D01*
X203644952Y-28729380D02*
X203644952Y-27729380D01*
X203549714Y-27872238D01*
X203454476Y-27967476D01*
X203359238Y-28015095D01*
X228645980Y-36590266D02*
X228645980Y-37066457D01*
X227645980Y-37066457D01*
X228645980Y-35733123D02*
X228645980Y-36304552D01*
X228645980Y-36018838D02*
X227645980Y-36018838D01*
X227788838Y-36114076D01*
X227884076Y-36209314D01*
X227931695Y-36304552D01*
X216351880Y-34723295D02*
X215351880Y-34723295D01*
X215351880Y-34485200D01*
X215399500Y-34342342D01*
X215494738Y-34247104D01*
X215589976Y-34199485D01*
X215780452Y-34151866D01*
X215923309Y-34151866D01*
X216113785Y-34199485D01*
X216209023Y-34247104D01*
X216304261Y-34342342D01*
X216351880Y-34485200D01*
X216351880Y-34723295D01*
X215685214Y-33294723D02*
X216351880Y-33294723D01*
X215304261Y-33532819D02*
X216018547Y-33770914D01*
X216018547Y-33151866D01*
X218231980Y-37669695D02*
X217231980Y-37669695D01*
X217231980Y-37431600D01*
X217279600Y-37288742D01*
X217374838Y-37193504D01*
X217470076Y-37145885D01*
X217660552Y-37098266D01*
X217803409Y-37098266D01*
X217993885Y-37145885D01*
X218089123Y-37193504D01*
X218184361Y-37288742D01*
X218231980Y-37431600D01*
X218231980Y-37669695D01*
X217231980Y-36764933D02*
X217231980Y-36145885D01*
X217612933Y-36479219D01*
X217612933Y-36336361D01*
X217660552Y-36241123D01*
X217708171Y-36193504D01*
X217803409Y-36145885D01*
X218041504Y-36145885D01*
X218136742Y-36193504D01*
X218184361Y-36241123D01*
X218231980Y-36336361D01*
X218231980Y-36622076D01*
X218184361Y-36717314D01*
X218136742Y-36764933D01*
X236389942Y-33834342D02*
X236342323Y-33881961D01*
X236199466Y-33929580D01*
X236104228Y-33929580D01*
X235961371Y-33881961D01*
X235866133Y-33786723D01*
X235818514Y-33691485D01*
X235770895Y-33501009D01*
X235770895Y-33358152D01*
X235818514Y-33167676D01*
X235866133Y-33072438D01*
X235961371Y-32977200D01*
X236104228Y-32929580D01*
X236199466Y-32929580D01*
X236342323Y-32977200D01*
X236389942Y-33024819D01*
X237342323Y-33929580D02*
X236770895Y-33929580D01*
X237056609Y-33929580D02*
X237056609Y-32929580D01*
X236961371Y-33072438D01*
X236866133Y-33167676D01*
X236770895Y-33215295D01*
X237961371Y-32929580D02*
X238056609Y-32929580D01*
X238151847Y-32977200D01*
X238199466Y-33024819D01*
X238247085Y-33120057D01*
X238294704Y-33310533D01*
X238294704Y-33548628D01*
X238247085Y-33739104D01*
X238199466Y-33834342D01*
X238151847Y-33881961D01*
X238056609Y-33929580D01*
X237961371Y-33929580D01*
X237866133Y-33881961D01*
X237818514Y-33834342D01*
X237770895Y-33739104D01*
X237723276Y-33548628D01*
X237723276Y-33310533D01*
X237770895Y-33120057D01*
X237818514Y-33024819D01*
X237866133Y-32977200D01*
X237961371Y-32929580D01*
X236612133Y-38304742D02*
X236564514Y-38352361D01*
X236421657Y-38399980D01*
X236326419Y-38399980D01*
X236183561Y-38352361D01*
X236088323Y-38257123D01*
X236040704Y-38161885D01*
X235993085Y-37971409D01*
X235993085Y-37828552D01*
X236040704Y-37638076D01*
X236088323Y-37542838D01*
X236183561Y-37447600D01*
X236326419Y-37399980D01*
X236421657Y-37399980D01*
X236564514Y-37447600D01*
X236612133Y-37495219D01*
X237183561Y-37828552D02*
X237088323Y-37780933D01*
X237040704Y-37733314D01*
X236993085Y-37638076D01*
X236993085Y-37590457D01*
X237040704Y-37495219D01*
X237088323Y-37447600D01*
X237183561Y-37399980D01*
X237374038Y-37399980D01*
X237469276Y-37447600D01*
X237516895Y-37495219D01*
X237564514Y-37590457D01*
X237564514Y-37638076D01*
X237516895Y-37733314D01*
X237469276Y-37780933D01*
X237374038Y-37828552D01*
X237183561Y-37828552D01*
X237088323Y-37876171D01*
X237040704Y-37923790D01*
X236993085Y-38019028D01*
X236993085Y-38209504D01*
X237040704Y-38304742D01*
X237088323Y-38352361D01*
X237183561Y-38399980D01*
X237374038Y-38399980D01*
X237469276Y-38352361D01*
X237516895Y-38304742D01*
X237564514Y-38209504D01*
X237564514Y-38019028D01*
X237516895Y-37923790D01*
X237469276Y-37876171D01*
X237374038Y-37828552D01*
X205268533Y-25553942D02*
X205220914Y-25601561D01*
X205078057Y-25649180D01*
X204982819Y-25649180D01*
X204839961Y-25601561D01*
X204744723Y-25506323D01*
X204697104Y-25411085D01*
X204649485Y-25220609D01*
X204649485Y-25077752D01*
X204697104Y-24887276D01*
X204744723Y-24792038D01*
X204839961Y-24696800D01*
X204982819Y-24649180D01*
X205078057Y-24649180D01*
X205220914Y-24696800D01*
X205268533Y-24744419D01*
X206125676Y-24982514D02*
X206125676Y-25649180D01*
X205887580Y-24601561D02*
X205649485Y-25315847D01*
X206268533Y-25315847D01*
X212383642Y-46331166D02*
X212431261Y-46378785D01*
X212478880Y-46521642D01*
X212478880Y-46616880D01*
X212431261Y-46759738D01*
X212336023Y-46854976D01*
X212240785Y-46902595D01*
X212050309Y-46950214D01*
X211907452Y-46950214D01*
X211716976Y-46902595D01*
X211621738Y-46854976D01*
X211526500Y-46759738D01*
X211478880Y-46616880D01*
X211478880Y-46521642D01*
X211526500Y-46378785D01*
X211574119Y-46331166D01*
X211478880Y-45997833D02*
X211478880Y-45378785D01*
X211859833Y-45712119D01*
X211859833Y-45569261D01*
X211907452Y-45474023D01*
X211955071Y-45426404D01*
X212050309Y-45378785D01*
X212288404Y-45378785D01*
X212383642Y-45426404D01*
X212431261Y-45474023D01*
X212478880Y-45569261D01*
X212478880Y-45854976D01*
X212431261Y-45950214D01*
X212383642Y-45997833D01*
M02*
