M48
; DRILL file {KiCad (5.1.9)-1} date 04/23/21 08:13:26
; FORMAT={-:-/ absolute / metric / decimal}
; #@! TF.CreationDate,2021-04-23T08:13:26+03:00
; #@! TF.GenerationSoftware,Kicad,Pcbnew,(5.1.9)-1
; #@! TF.FileFunction,Plated,1,4,PTH
FMAT,2
METRIC
T1C0.300
T2C0.400
T3C0.600
T4C0.762
T5C0.800
T6C1.200
T7C1.400
T8C3.200
%
G90
G05
T1
X58.618Y-48.694
X59.599Y-100.701
X60.904Y-53.84
X61.087Y-45.783
X63.468Y-49.445
X68.834Y-62.293
X71.691Y-68.834
X79.947Y-57.34
X85.996Y-49.602
X88.339Y-103.322
X89.806Y-49.491
X93.616Y-49.323
X96.241Y-85.141
X97.426Y-49.087
X98.895Y-86.97
X101.236Y-48.945
X103.749Y-78.052
X104.562Y-89.797
X104.797Y-107.281
X104.811Y-45.093
X104.811Y-49.017
X105.143Y-77.086
X105.585Y-91.752
X105.598Y-71.394
X106.533Y-77.135
X106.85Y-89.87
X106.975Y-78.588
X108.041Y-74.844
X108.229Y-71.686
X108.849Y-74.859
X109.169Y-88.524
X109.261Y-89.647
X109.4Y-86.571
X109.995Y-74.755
X110.33Y-81.554
X111.012Y-87.04
X111.021Y-77.818
X112.065Y-77.917
X112.324Y-49.545
X112.936Y-91.691
X114.066Y-79.781
X114.424Y-81.864
X114.504Y-89.785
X114.752Y-63.096
X114.752Y-65.542
X115.011Y-84.493
X115.763Y-85.786
X116.06Y-111.201
X117.889Y-81.018
X118.077Y-112.926
X118.821Y-83.873
X118.849Y-74.755
X120.423Y-71.845
X120.795Y-74.747
X120.838Y-111.592
X121.221Y-87.02
X122.022Y-62.385
X122.077Y-111.252
X122.106Y-71.875
X122.447Y-90.753
X123.172Y-62.116
X123.38Y-111.295
X124.399Y-81.021
X124.64Y-111.318
X125.834Y-111.227
X125.933Y-71.796
X126.406Y-91.074
X126.716Y-93.342
X127.175Y-99.073
X127.234Y-111.148
X127.663Y-96.878
X128.435Y-111.082
X128.458Y-104.772
X128.679Y-90.561
X128.768Y-77.15
X128.791Y-65.598
X129.07Y-94.981
X129.08Y-91.915
X129.235Y-56.49
X129.789Y-93.147
X130.056Y-61.976
X130.848Y-105.496
X131.526Y-84.132
X131.926Y-86.592
X132.324Y-106.69
X132.451Y-74.826
X133.228Y-86.439
X133.619Y-99.06
X133.919Y-91.885
X134.333Y-106.139
X134.595Y-75.09
X134.638Y-99.362
X134.806Y-71.793
X135.001Y-92.299
X135.082Y-79.822
X135.336Y-91.181
X135.418Y-111.018
X136.675Y-91.854
X137.168Y-113.546
X137.578Y-92.864
X137.818Y-105.761
X138.712Y-71.857
X139.111Y-65.489
X139.202Y-96.644
X139.705Y-97.963
X140.023Y-58.763
X140.099Y-87.02
X140.719Y-71.844
X141.361Y-92.593
X141.671Y-116.406
X141.674Y-98.885
X142.09Y-105.349
X142.371Y-75.919
X142.907Y-113.433
X143.144Y-81.115
X143.332Y-63.185
X143.363Y-89.7
X143.421Y-97.218
X143.634Y-71.783
X144.332Y-97.74
X144.821Y-59.058
X145.492Y-92.175
X145.57Y-103.624
X146.492Y-93.005
X146.52Y-84.861
X147.447Y-74.963
X147.62Y-108.316
X147.648Y-89.334
X148.039Y-65.629
X149.3Y-88.924
X151.859Y-100.472
X152.586Y-62.961
X153.005Y-92.413
X154.018Y-63.335
X154.836Y-76.761
X154.866Y-92.641
X156.129Y-108.405
X156.428Y-52.537
T2
X66.058Y-53.475
X67.323Y-48.468
X69.228Y-110.99
X71.755Y-48.641
X72.691Y-98.495
X73.071Y-108.349
X77.14Y-112.525
X97.333Y-84.074
X98.087Y-114.32
X99.959Y-101.895
X101.846Y-87.163
X102.85Y-65.928
X103.886Y-74.625
X108.138Y-99.537
X110.587Y-119.116
X113.594Y-111.458
X117.985Y-119.982
X119.235Y-107.038
X119.918Y-54.773
X121.351Y-97.18
X122.664Y-50.241
X124.328Y-86.799
X125.265Y-106.756
X129.484Y-121.539
X129.522Y-119.568
X135.113Y-47.993
X135.64Y-59.386
X136.136Y-63.063
X136.436Y-115.379
X136.602Y-78.536
X137.389Y-75.118
X137.399Y-49.347
X138.523Y-79.892
X139.167Y-74.986
X140.299Y-111.989
X140.432Y-108.422
X142.24Y-86.058
X143.256Y-74.854
X144.64Y-99.256
X146.157Y-82.606
X146.289Y-111.989
X148.052Y-80.439
X149.301Y-106.53
X150.371Y-107.859
X152.532Y-99.123
X153.7Y-72.507
X156.507Y-65.451
T3
X60.134Y-122.745
X61.634Y-117.745
X78.486Y-122.809
X79.986Y-117.809
X96.266Y-122.872
X97.766Y-117.872
X99.984Y-59.792
X101.234Y-59.792
X102.484Y-59.792
X103.734Y-59.792
X105.908Y-108.392
X107.158Y-108.392
X108.408Y-108.392
X109.658Y-108.392
X110.908Y-108.392
X112.158Y-108.392
X113.408Y-108.392
X114.658Y-108.392
X119.126Y-60.3
X120.274Y-108.372
X120.376Y-60.3
X120.71Y-121.839
X121.524Y-108.372
X121.626Y-60.3
X121.96Y-121.839
X122.774Y-108.372
X122.876Y-60.3
X123.21Y-121.839
X124.024Y-108.372
X124.46Y-121.839
X125.274Y-108.372
X125.71Y-121.839
T4
X62.134Y-73.325
X62.134Y-75.865
X62.134Y-78.405
X62.134Y-80.945
X62.134Y-83.485
X99.268Y-74.671
X99.268Y-77.211
X99.268Y-79.751
X99.268Y-82.291
T5
X75.946Y-69.953
X75.946Y-72.453
X76.708Y-83.86
X76.708Y-86.36
X83.617Y-69.992
X83.617Y-72.492
X84.328Y-83.86
X84.328Y-86.36
X88.519Y-61.468
X91.186Y-69.839
X91.186Y-72.339
X91.948Y-83.86
X91.948Y-86.36
X92.319Y-61.468
X104.326Y-67.752
X104.326Y-70.292
X104.326Y-80.452
X104.326Y-82.992
X104.326Y-85.532
X104.326Y-93.152
X104.326Y-95.692
X104.326Y-98.232
X104.326Y-100.772
X104.326Y-103.312
X106.866Y-67.752
X106.866Y-70.292
X106.866Y-80.452
X106.866Y-82.992
X106.866Y-85.532
X106.866Y-93.152
X106.866Y-95.692
X106.866Y-98.232
X106.866Y-100.772
X106.866Y-103.312
X109.406Y-67.752
X109.406Y-70.292
X109.406Y-100.772
X109.406Y-103.312
X111.946Y-67.752
X111.946Y-70.292
X111.946Y-100.772
X111.946Y-103.312
X114.486Y-67.752
X114.486Y-70.292
X114.486Y-100.772
X114.486Y-103.312
X117.026Y-67.752
X117.026Y-70.292
X117.026Y-100.772
X117.026Y-103.312
X119.566Y-67.752
X119.566Y-70.292
X119.566Y-100.772
X119.566Y-103.312
X122.106Y-67.752
X122.106Y-70.292
X122.106Y-100.772
X122.106Y-103.312
X124.646Y-67.752
X124.646Y-70.292
X124.646Y-100.772
X124.646Y-103.312
X127.186Y-67.752
X127.186Y-70.292
X127.186Y-100.772
X127.186Y-103.312
X129.726Y-67.752
X129.726Y-70.292
X129.726Y-100.772
X129.726Y-103.312
X132.266Y-67.752
X132.266Y-70.292
X132.266Y-100.772
X132.266Y-103.312
X134.806Y-67.752
X134.806Y-70.292
X134.806Y-100.772
X134.806Y-103.312
X137.346Y-67.752
X137.346Y-70.292
X137.346Y-100.772
X137.346Y-103.312
X138.405Y-81.585
X138.405Y-84.085
X139.886Y-67.752
X139.886Y-70.292
X139.886Y-100.772
X139.886Y-103.312
X142.426Y-67.752
X142.426Y-70.292
X142.426Y-100.772
X142.426Y-103.312
X144.966Y-67.752
X144.966Y-70.292
X147.506Y-67.752
X147.506Y-70.292
X150.046Y-67.752
X150.046Y-70.292
X152.586Y-67.752
X152.586Y-70.292
X155.126Y-67.752
X155.126Y-70.292
T6
X85.996Y-52.603
X89.806Y-52.603
X93.616Y-52.603
X97.426Y-52.603
X101.236Y-52.603
X108.514Y-52.547
X112.324Y-52.547
X116.134Y-52.547
X123.591Y-52.573
X127.401Y-52.573
X131.211Y-52.573
X133.391Y-118.415
X137.201Y-118.415
X138.643Y-52.573
X142.453Y-52.573
X144.551Y-118.44
X146.263Y-52.573
X148.361Y-118.44
T7
X62.691Y-95.273
X62.691Y-105.474
X67.429Y-54.585
X67.691Y-92.773
X67.787Y-116.373
X72.429Y-54.585
X72.691Y-95.273
X72.691Y-105.474
X72.787Y-116.373
X76.423Y-98.512
X76.423Y-108.712
X77.429Y-54.585
X81.423Y-96.012
X85.598Y-116.408
X86.423Y-98.512
X86.423Y-108.712
X90.076Y-98.552
X90.076Y-108.752
X90.598Y-116.408
X95.076Y-96.052
X100.076Y-98.552
X100.076Y-108.752
X103.439Y-116.398
X108.439Y-116.398
T8
X64.668Y-110.998
X64.679Y-59.954
X150.678Y-59.974
X150.693Y-111.008
T0
M30
