G04 #@! TF.GenerationSoftware,KiCad,Pcbnew,(5.1.9)-1*
G04 #@! TF.CreationDate,2021-04-15T17:28:59+03:00*
G04 #@! TF.ProjectId,Cbc_power_supply_module,4362635f-706f-4776-9572-5f737570706c,rev?*
G04 #@! TF.SameCoordinates,Original*
G04 #@! TF.FileFunction,Legend,Bot*
G04 #@! TF.FilePolarity,Positive*
%FSLAX46Y46*%
G04 Gerber Fmt 4.6, Leading zero omitted, Abs format (unit mm)*
G04 Created by KiCad (PCBNEW (5.1.9)-1) date 2021-04-15 17:28:59*
%MOMM*%
%LPD*%
G01*
G04 APERTURE LIST*
%ADD10C,0.150000*%
%ADD11C,0.120000*%
G04 APERTURE END LIST*
D10*
X238978914Y-38806380D02*
X239074152Y-38758761D01*
X239121771Y-38711142D01*
X239169390Y-38615904D01*
X239169390Y-38330190D01*
X239121771Y-38234952D01*
X239074152Y-38187333D01*
X238978914Y-38139714D01*
X238836057Y-38139714D01*
X238740819Y-38187333D01*
X238693200Y-38234952D01*
X238645580Y-38330190D01*
X238645580Y-38615904D01*
X238693200Y-38711142D01*
X238740819Y-38758761D01*
X238836057Y-38806380D01*
X238978914Y-38806380D01*
X237788438Y-38139714D02*
X237788438Y-38806380D01*
X238217009Y-38139714D02*
X238217009Y-38663523D01*
X238169390Y-38758761D01*
X238074152Y-38806380D01*
X237931295Y-38806380D01*
X237836057Y-38758761D01*
X237788438Y-38711142D01*
X237455104Y-38139714D02*
X237074152Y-38139714D01*
X237312247Y-37806380D02*
X237312247Y-38663523D01*
X237264628Y-38758761D01*
X237169390Y-38806380D01*
X237074152Y-38806380D01*
X236788438Y-37901619D02*
X236740819Y-37854000D01*
X236645580Y-37806380D01*
X236407485Y-37806380D01*
X236312247Y-37854000D01*
X236264628Y-37901619D01*
X236217009Y-37996857D01*
X236217009Y-38092095D01*
X236264628Y-38234952D01*
X236836057Y-38806380D01*
X236217009Y-38806380D01*
X238282076Y-36310914D02*
X238282076Y-37120438D01*
X238329695Y-37215676D01*
X238377314Y-37263295D01*
X238472552Y-37310914D01*
X238615409Y-37310914D01*
X238710647Y-37263295D01*
X238282076Y-36929961D02*
X238377314Y-36977580D01*
X238567790Y-36977580D01*
X238663028Y-36929961D01*
X238710647Y-36882342D01*
X238758266Y-36787104D01*
X238758266Y-36501390D01*
X238710647Y-36406152D01*
X238663028Y-36358533D01*
X238567790Y-36310914D01*
X238377314Y-36310914D01*
X238282076Y-36358533D01*
X237805885Y-36310914D02*
X237805885Y-36977580D01*
X237805885Y-36406152D02*
X237758266Y-36358533D01*
X237663028Y-36310914D01*
X237520171Y-36310914D01*
X237424933Y-36358533D01*
X237377314Y-36453771D01*
X237377314Y-36977580D01*
X236472552Y-36977580D02*
X236472552Y-35977580D01*
X236472552Y-36929961D02*
X236567790Y-36977580D01*
X236758266Y-36977580D01*
X236853504Y-36929961D01*
X236901123Y-36882342D01*
X236948742Y-36787104D01*
X236948742Y-36501390D01*
X236901123Y-36406152D01*
X236853504Y-36358533D01*
X236758266Y-36310914D01*
X236567790Y-36310914D01*
X236472552Y-36358533D01*
X238180476Y-34075714D02*
X238180476Y-34885238D01*
X238228095Y-34980476D01*
X238275714Y-35028095D01*
X238370952Y-35075714D01*
X238513809Y-35075714D01*
X238609047Y-35028095D01*
X238180476Y-34694761D02*
X238275714Y-34742380D01*
X238466190Y-34742380D01*
X238561428Y-34694761D01*
X238609047Y-34647142D01*
X238656666Y-34551904D01*
X238656666Y-34266190D01*
X238609047Y-34170952D01*
X238561428Y-34123333D01*
X238466190Y-34075714D01*
X238275714Y-34075714D01*
X238180476Y-34123333D01*
X237704285Y-34075714D02*
X237704285Y-34742380D01*
X237704285Y-34170952D02*
X237656666Y-34123333D01*
X237561428Y-34075714D01*
X237418571Y-34075714D01*
X237323333Y-34123333D01*
X237275714Y-34218571D01*
X237275714Y-34742380D01*
X236370952Y-34742380D02*
X236370952Y-33742380D01*
X236370952Y-34694761D02*
X236466190Y-34742380D01*
X236656666Y-34742380D01*
X236751904Y-34694761D01*
X236799523Y-34647142D01*
X236847142Y-34551904D01*
X236847142Y-34266190D01*
X236799523Y-34170952D01*
X236751904Y-34123333D01*
X236656666Y-34075714D01*
X236466190Y-34075714D01*
X236370952Y-34123333D01*
X238674114Y-32405580D02*
X238769352Y-32357961D01*
X238816971Y-32310342D01*
X238864590Y-32215104D01*
X238864590Y-31929390D01*
X238816971Y-31834152D01*
X238769352Y-31786533D01*
X238674114Y-31738914D01*
X238531257Y-31738914D01*
X238436019Y-31786533D01*
X238388400Y-31834152D01*
X238340780Y-31929390D01*
X238340780Y-32215104D01*
X238388400Y-32310342D01*
X238436019Y-32357961D01*
X238531257Y-32405580D01*
X238674114Y-32405580D01*
X237483638Y-31738914D02*
X237483638Y-32405580D01*
X237912209Y-31738914D02*
X237912209Y-32262723D01*
X237864590Y-32357961D01*
X237769352Y-32405580D01*
X237626495Y-32405580D01*
X237531257Y-32357961D01*
X237483638Y-32310342D01*
X237150304Y-31738914D02*
X236769352Y-31738914D01*
X237007447Y-31405580D02*
X237007447Y-32262723D01*
X236959828Y-32357961D01*
X236864590Y-32405580D01*
X236769352Y-32405580D01*
X235912209Y-32405580D02*
X236483638Y-32405580D01*
X236197923Y-32405580D02*
X236197923Y-31405580D01*
X236293161Y-31548438D01*
X236388400Y-31643676D01*
X236483638Y-31691295D01*
X204242895Y-43838761D02*
X204338133Y-43886380D01*
X204528609Y-43886380D01*
X204623847Y-43838761D01*
X204671466Y-43743523D01*
X204671466Y-43362571D01*
X204623847Y-43267333D01*
X204528609Y-43219714D01*
X204338133Y-43219714D01*
X204242895Y-43267333D01*
X204195276Y-43362571D01*
X204195276Y-43457809D01*
X204671466Y-43553047D01*
X203766704Y-43219714D02*
X203766704Y-43886380D01*
X203766704Y-43314952D02*
X203719085Y-43267333D01*
X203623847Y-43219714D01*
X203480990Y-43219714D01*
X203385752Y-43267333D01*
X203338133Y-43362571D01*
X203338133Y-43886380D01*
X202909561Y-42981619D02*
X202861942Y-42934000D01*
X202766704Y-42886380D01*
X202528609Y-42886380D01*
X202433371Y-42934000D01*
X202385752Y-42981619D01*
X202338133Y-43076857D01*
X202338133Y-43172095D01*
X202385752Y-43314952D01*
X202957180Y-43886380D01*
X202338133Y-43886380D01*
X206427295Y-39368361D02*
X206522533Y-39415980D01*
X206713009Y-39415980D01*
X206808247Y-39368361D01*
X206855866Y-39273123D01*
X206855866Y-38892171D01*
X206808247Y-38796933D01*
X206713009Y-38749314D01*
X206522533Y-38749314D01*
X206427295Y-38796933D01*
X206379676Y-38892171D01*
X206379676Y-38987409D01*
X206855866Y-39082647D01*
X205951104Y-38749314D02*
X205951104Y-39415980D01*
X205951104Y-38844552D02*
X205903485Y-38796933D01*
X205808247Y-38749314D01*
X205665390Y-38749314D01*
X205570152Y-38796933D01*
X205522533Y-38892171D01*
X205522533Y-39415980D01*
X204522533Y-39415980D02*
X205093961Y-39415980D01*
X204808247Y-39415980D02*
X204808247Y-38415980D01*
X204903485Y-38558838D01*
X204998723Y-38654076D01*
X205093961Y-38701695D01*
X206719371Y-36418780D02*
X206719371Y-35752114D01*
X206719371Y-35418780D02*
X206766990Y-35466400D01*
X206719371Y-35514019D01*
X206671752Y-35466400D01*
X206719371Y-35418780D01*
X206719371Y-35514019D01*
X206243180Y-35752114D02*
X206243180Y-36418780D01*
X206243180Y-35847352D02*
X206195561Y-35799733D01*
X206100323Y-35752114D01*
X205957466Y-35752114D01*
X205862228Y-35799733D01*
X205814609Y-35894971D01*
X205814609Y-36418780D01*
X205386038Y-35514019D02*
X205338419Y-35466400D01*
X205243180Y-35418780D01*
X205005085Y-35418780D01*
X204909847Y-35466400D01*
X204862228Y-35514019D01*
X204814609Y-35609257D01*
X204814609Y-35704495D01*
X204862228Y-35847352D01*
X205433657Y-36418780D01*
X204814609Y-36418780D01*
X206617771Y-32659580D02*
X206617771Y-31992914D01*
X206617771Y-31659580D02*
X206665390Y-31707200D01*
X206617771Y-31754819D01*
X206570152Y-31707200D01*
X206617771Y-31659580D01*
X206617771Y-31754819D01*
X206141580Y-31992914D02*
X206141580Y-32659580D01*
X206141580Y-32088152D02*
X206093961Y-32040533D01*
X205998723Y-31992914D01*
X205855866Y-31992914D01*
X205760628Y-32040533D01*
X205713009Y-32135771D01*
X205713009Y-32659580D01*
X204713009Y-32659580D02*
X205284438Y-32659580D01*
X204998723Y-32659580D02*
X204998723Y-31659580D01*
X205093961Y-31802438D01*
X205189200Y-31897676D01*
X205284438Y-31945295D01*
X204195276Y-28182914D02*
X204195276Y-28992438D01*
X204242895Y-29087676D01*
X204290514Y-29135295D01*
X204385752Y-29182914D01*
X204528609Y-29182914D01*
X204623847Y-29135295D01*
X204195276Y-28801961D02*
X204290514Y-28849580D01*
X204480990Y-28849580D01*
X204576228Y-28801961D01*
X204623847Y-28754342D01*
X204671466Y-28659104D01*
X204671466Y-28373390D01*
X204623847Y-28278152D01*
X204576228Y-28230533D01*
X204480990Y-28182914D01*
X204290514Y-28182914D01*
X204195276Y-28230533D01*
X203719085Y-28182914D02*
X203719085Y-28849580D01*
X203719085Y-28278152D02*
X203671466Y-28230533D01*
X203576228Y-28182914D01*
X203433371Y-28182914D01*
X203338133Y-28230533D01*
X203290514Y-28325771D01*
X203290514Y-28849580D01*
X202385752Y-28849580D02*
X202385752Y-27849580D01*
X202385752Y-28801961D02*
X202480990Y-28849580D01*
X202671466Y-28849580D01*
X202766704Y-28801961D01*
X202814323Y-28754342D01*
X202861942Y-28659104D01*
X202861942Y-28373390D01*
X202814323Y-28278152D01*
X202766704Y-28230533D01*
X202671466Y-28182914D01*
X202480990Y-28182914D01*
X202385752Y-28230533D01*
D11*
X212521737Y-38883500D02*
X211074263Y-38883500D01*
X212521737Y-36173500D02*
X211074263Y-36173500D01*
X236628000Y-28963252D02*
X236628000Y-28440748D01*
X238098000Y-28963252D02*
X238098000Y-28440748D01*
X234265748Y-39270000D02*
X234788252Y-39270000D01*
X234265748Y-40740000D02*
X234788252Y-40740000D01*
X221566000Y-27206752D02*
X221566000Y-26684248D01*
X223036000Y-27206752D02*
X223036000Y-26684248D01*
X207555000Y-41944748D02*
X207555000Y-42467252D01*
X206085000Y-41944748D02*
X206085000Y-42467252D01*
X220619000Y-40371800D02*
X220619000Y-43821800D01*
X220619000Y-40371800D02*
X220619000Y-38421800D01*
X215499000Y-40371800D02*
X215499000Y-42321800D01*
X215499000Y-40371800D02*
X215499000Y-38421800D01*
X215308000Y-30608500D02*
X215308000Y-27158500D01*
X215308000Y-30608500D02*
X215308000Y-32558500D01*
X220428000Y-30608500D02*
X220428000Y-28658500D01*
X220428000Y-30608500D02*
X220428000Y-32558500D01*
X223391000Y-31234136D02*
X223391000Y-31688264D01*
X221921000Y-31234136D02*
X221921000Y-31688264D01*
X233024936Y-34063000D02*
X233479064Y-34063000D01*
X233024936Y-35533000D02*
X233479064Y-35533000D01*
X224728064Y-41273400D02*
X224273936Y-41273400D01*
X224728064Y-39803400D02*
X224273936Y-39803400D01*
X228055000Y-40502064D02*
X228055000Y-40047936D01*
X229525000Y-40502064D02*
X229525000Y-40047936D01*
X227772936Y-31265000D02*
X228227064Y-31265000D01*
X227772936Y-32735000D02*
X228227064Y-32735000D01*
X224426936Y-42495800D02*
X224881064Y-42495800D01*
X224426936Y-43965800D02*
X224881064Y-43965800D01*
X207240724Y-35003000D02*
X206731276Y-35003000D01*
X207240724Y-33958000D02*
X206731276Y-33958000D01*
X207304724Y-37987500D02*
X206795276Y-37987500D01*
X207304724Y-36942500D02*
X206795276Y-36942500D01*
X212395737Y-35137000D02*
X210948263Y-35137000D01*
X212395737Y-32427000D02*
X210948263Y-32427000D01*
X211852000Y-30137000D02*
X211852000Y-25837000D01*
X213852000Y-30137000D02*
X211852000Y-30137000D01*
X213852000Y-25837000D02*
X213852000Y-30137000D01*
X214296000Y-40602000D02*
X214296000Y-44902000D01*
X212296000Y-40602000D02*
X214296000Y-40602000D01*
X212296000Y-44902000D02*
X212296000Y-40602000D01*
X229738748Y-26265000D02*
X230261252Y-26265000D01*
X229738748Y-27735000D02*
X230261252Y-27735000D01*
X220333748Y-44934200D02*
X220856252Y-44934200D01*
X220333748Y-46404200D02*
X220856252Y-46404200D01*
D10*
X212573666Y-40647880D02*
X212907000Y-40171690D01*
X213145095Y-40647880D02*
X213145095Y-39647880D01*
X212764142Y-39647880D01*
X212668904Y-39695500D01*
X212621285Y-39743119D01*
X212573666Y-39838357D01*
X212573666Y-39981214D01*
X212621285Y-40076452D01*
X212668904Y-40124071D01*
X212764142Y-40171690D01*
X213145095Y-40171690D01*
X212192714Y-39743119D02*
X212145095Y-39695500D01*
X212049857Y-39647880D01*
X211811761Y-39647880D01*
X211716523Y-39695500D01*
X211668904Y-39743119D01*
X211621285Y-39838357D01*
X211621285Y-39933595D01*
X211668904Y-40076452D01*
X212240333Y-40647880D01*
X211621285Y-40647880D01*
X239675942Y-26249333D02*
X239723561Y-26201714D01*
X239771180Y-26058857D01*
X239771180Y-25963619D01*
X239723561Y-25820761D01*
X239628323Y-25725523D01*
X239533085Y-25677904D01*
X239342609Y-25630285D01*
X239199752Y-25630285D01*
X239009276Y-25677904D01*
X238914038Y-25725523D01*
X238818800Y-25820761D01*
X238771180Y-25963619D01*
X238771180Y-26058857D01*
X238818800Y-26201714D01*
X238866419Y-26249333D01*
X239771180Y-26725523D02*
X239771180Y-26916000D01*
X239723561Y-27011238D01*
X239675942Y-27058857D01*
X239533085Y-27154095D01*
X239342609Y-27201714D01*
X238961657Y-27201714D01*
X238866419Y-27154095D01*
X238818800Y-27106476D01*
X238771180Y-27011238D01*
X238771180Y-26820761D01*
X238818800Y-26725523D01*
X238866419Y-26677904D01*
X238961657Y-26630285D01*
X239199752Y-26630285D01*
X239294990Y-26677904D01*
X239342609Y-26725523D01*
X239390228Y-26820761D01*
X239390228Y-27011238D01*
X239342609Y-27106476D01*
X239294990Y-27154095D01*
X239199752Y-27201714D01*
X234693666Y-42042142D02*
X234741285Y-42089761D01*
X234884142Y-42137380D01*
X234979380Y-42137380D01*
X235122238Y-42089761D01*
X235217476Y-41994523D01*
X235265095Y-41899285D01*
X235312714Y-41708809D01*
X235312714Y-41565952D01*
X235265095Y-41375476D01*
X235217476Y-41280238D01*
X235122238Y-41185000D01*
X234979380Y-41137380D01*
X234884142Y-41137380D01*
X234741285Y-41185000D01*
X234693666Y-41232619D01*
X234360333Y-41137380D02*
X233693666Y-41137380D01*
X234122238Y-42137380D01*
X224740742Y-26554133D02*
X224788361Y-26506514D01*
X224835980Y-26363657D01*
X224835980Y-26268419D01*
X224788361Y-26125561D01*
X224693123Y-26030323D01*
X224597885Y-25982704D01*
X224407409Y-25935085D01*
X224264552Y-25935085D01*
X224074076Y-25982704D01*
X223978838Y-26030323D01*
X223883600Y-26125561D01*
X223835980Y-26268419D01*
X223835980Y-26363657D01*
X223883600Y-26506514D01*
X223931219Y-26554133D01*
X223931219Y-26935085D02*
X223883600Y-26982704D01*
X223835980Y-27077942D01*
X223835980Y-27316038D01*
X223883600Y-27411276D01*
X223931219Y-27458895D01*
X224026457Y-27506514D01*
X224121695Y-27506514D01*
X224264552Y-27458895D01*
X224835980Y-26887466D01*
X224835980Y-27506514D01*
X206617866Y-45619942D02*
X206665485Y-45667561D01*
X206808342Y-45715180D01*
X206903580Y-45715180D01*
X207046438Y-45667561D01*
X207141676Y-45572323D01*
X207189295Y-45477085D01*
X207236914Y-45286609D01*
X207236914Y-45143752D01*
X207189295Y-44953276D01*
X207141676Y-44858038D01*
X207046438Y-44762800D01*
X206903580Y-44715180D01*
X206808342Y-44715180D01*
X206665485Y-44762800D01*
X206617866Y-44810419D01*
X205665485Y-45715180D02*
X206236914Y-45715180D01*
X205951200Y-45715180D02*
X205951200Y-44715180D01*
X206046438Y-44858038D01*
X206141676Y-44953276D01*
X206236914Y-45000895D01*
X219670380Y-34747295D02*
X220479904Y-34747295D01*
X220575142Y-34794914D01*
X220622761Y-34842533D01*
X220670380Y-34937771D01*
X220670380Y-35128247D01*
X220622761Y-35223485D01*
X220575142Y-35271104D01*
X220479904Y-35318723D01*
X219670380Y-35318723D01*
X219765619Y-35747295D02*
X219718000Y-35794914D01*
X219670380Y-35890152D01*
X219670380Y-36128247D01*
X219718000Y-36223485D01*
X219765619Y-36271104D01*
X219860857Y-36318723D01*
X219956095Y-36318723D01*
X220098952Y-36271104D01*
X220670380Y-35699676D01*
X220670380Y-36318723D01*
X219479380Y-24701595D02*
X220288904Y-24701595D01*
X220384142Y-24749214D01*
X220431761Y-24796833D01*
X220479380Y-24892071D01*
X220479380Y-25082547D01*
X220431761Y-25177785D01*
X220384142Y-25225404D01*
X220288904Y-25273023D01*
X219479380Y-25273023D01*
X220479380Y-26273023D02*
X220479380Y-25701595D01*
X220479380Y-25987309D02*
X219479380Y-25987309D01*
X219622238Y-25892071D01*
X219717476Y-25796833D01*
X219765095Y-25701595D01*
X225241980Y-29075142D02*
X224765790Y-28741809D01*
X225241980Y-28503714D02*
X224241980Y-28503714D01*
X224241980Y-28884666D01*
X224289600Y-28979904D01*
X224337219Y-29027523D01*
X224432457Y-29075142D01*
X224575314Y-29075142D01*
X224670552Y-29027523D01*
X224718171Y-28979904D01*
X224765790Y-28884666D01*
X224765790Y-28503714D01*
X225241980Y-30027523D02*
X225241980Y-29456095D01*
X225241980Y-29741809D02*
X224241980Y-29741809D01*
X224384838Y-29646571D01*
X224480076Y-29551333D01*
X224527695Y-29456095D01*
X224337219Y-30408476D02*
X224289600Y-30456095D01*
X224241980Y-30551333D01*
X224241980Y-30789428D01*
X224289600Y-30884666D01*
X224337219Y-30932285D01*
X224432457Y-30979904D01*
X224527695Y-30979904D01*
X224670552Y-30932285D01*
X225241980Y-30360857D01*
X225241980Y-30979904D01*
X233894857Y-36900380D02*
X234228190Y-36424190D01*
X234466285Y-36900380D02*
X234466285Y-35900380D01*
X234085333Y-35900380D01*
X233990095Y-35948000D01*
X233942476Y-35995619D01*
X233894857Y-36090857D01*
X233894857Y-36233714D01*
X233942476Y-36328952D01*
X233990095Y-36376571D01*
X234085333Y-36424190D01*
X234466285Y-36424190D01*
X232942476Y-36900380D02*
X233513904Y-36900380D01*
X233228190Y-36900380D02*
X233228190Y-35900380D01*
X233323428Y-36043238D01*
X233418666Y-36138476D01*
X233513904Y-36186095D01*
X231990095Y-36900380D02*
X232561523Y-36900380D01*
X232275809Y-36900380D02*
X232275809Y-35900380D01*
X232371047Y-36043238D01*
X232466285Y-36138476D01*
X232561523Y-36186095D01*
X225143857Y-39340780D02*
X225477190Y-38864590D01*
X225715285Y-39340780D02*
X225715285Y-38340780D01*
X225334333Y-38340780D01*
X225239095Y-38388400D01*
X225191476Y-38436019D01*
X225143857Y-38531257D01*
X225143857Y-38674114D01*
X225191476Y-38769352D01*
X225239095Y-38816971D01*
X225334333Y-38864590D01*
X225715285Y-38864590D01*
X224191476Y-39340780D02*
X224762904Y-39340780D01*
X224477190Y-39340780D02*
X224477190Y-38340780D01*
X224572428Y-38483638D01*
X224667666Y-38578876D01*
X224762904Y-38626495D01*
X223572428Y-38340780D02*
X223477190Y-38340780D01*
X223381952Y-38388400D01*
X223334333Y-38436019D01*
X223286714Y-38531257D01*
X223239095Y-38721733D01*
X223239095Y-38959828D01*
X223286714Y-39150304D01*
X223334333Y-39245542D01*
X223381952Y-39293161D01*
X223477190Y-39340780D01*
X223572428Y-39340780D01*
X223667666Y-39293161D01*
X223715285Y-39245542D01*
X223762904Y-39150304D01*
X223810523Y-38959828D01*
X223810523Y-38721733D01*
X223762904Y-38531257D01*
X223715285Y-38436019D01*
X223667666Y-38388400D01*
X223572428Y-38340780D01*
X230892380Y-40108333D02*
X230416190Y-39775000D01*
X230892380Y-39536904D02*
X229892380Y-39536904D01*
X229892380Y-39917857D01*
X229940000Y-40013095D01*
X229987619Y-40060714D01*
X230082857Y-40108333D01*
X230225714Y-40108333D01*
X230320952Y-40060714D01*
X230368571Y-40013095D01*
X230416190Y-39917857D01*
X230416190Y-39536904D01*
X230892380Y-40584523D02*
X230892380Y-40775000D01*
X230844761Y-40870238D01*
X230797142Y-40917857D01*
X230654285Y-41013095D01*
X230463809Y-41060714D01*
X230082857Y-41060714D01*
X229987619Y-41013095D01*
X229940000Y-40965476D01*
X229892380Y-40870238D01*
X229892380Y-40679761D01*
X229940000Y-40584523D01*
X229987619Y-40536904D01*
X230082857Y-40489285D01*
X230320952Y-40489285D01*
X230416190Y-40536904D01*
X230463809Y-40584523D01*
X230511428Y-40679761D01*
X230511428Y-40870238D01*
X230463809Y-40965476D01*
X230416190Y-41013095D01*
X230320952Y-41060714D01*
X225134666Y-32452380D02*
X225468000Y-31976190D01*
X225706095Y-32452380D02*
X225706095Y-31452380D01*
X225325142Y-31452380D01*
X225229904Y-31500000D01*
X225182285Y-31547619D01*
X225134666Y-31642857D01*
X225134666Y-31785714D01*
X225182285Y-31880952D01*
X225229904Y-31928571D01*
X225325142Y-31976190D01*
X225706095Y-31976190D01*
X224563238Y-31880952D02*
X224658476Y-31833333D01*
X224706095Y-31785714D01*
X224753714Y-31690476D01*
X224753714Y-31642857D01*
X224706095Y-31547619D01*
X224658476Y-31500000D01*
X224563238Y-31452380D01*
X224372761Y-31452380D01*
X224277523Y-31500000D01*
X224229904Y-31547619D01*
X224182285Y-31642857D01*
X224182285Y-31690476D01*
X224229904Y-31785714D01*
X224277523Y-31833333D01*
X224372761Y-31880952D01*
X224563238Y-31880952D01*
X224658476Y-31928571D01*
X224706095Y-31976190D01*
X224753714Y-32071428D01*
X224753714Y-32261904D01*
X224706095Y-32357142D01*
X224658476Y-32404761D01*
X224563238Y-32452380D01*
X224372761Y-32452380D01*
X224277523Y-32404761D01*
X224229904Y-32357142D01*
X224182285Y-32261904D01*
X224182285Y-32071428D01*
X224229904Y-31976190D01*
X224277523Y-31928571D01*
X224372761Y-31880952D01*
X224820666Y-45333180D02*
X225154000Y-44856990D01*
X225392095Y-45333180D02*
X225392095Y-44333180D01*
X225011142Y-44333180D01*
X224915904Y-44380800D01*
X224868285Y-44428419D01*
X224820666Y-44523657D01*
X224820666Y-44666514D01*
X224868285Y-44761752D01*
X224915904Y-44809371D01*
X225011142Y-44856990D01*
X225392095Y-44856990D01*
X224487333Y-44333180D02*
X223820666Y-44333180D01*
X224249238Y-45333180D01*
X208294266Y-33269180D02*
X208627600Y-32792990D01*
X208865695Y-33269180D02*
X208865695Y-32269180D01*
X208484742Y-32269180D01*
X208389504Y-32316800D01*
X208341885Y-32364419D01*
X208294266Y-32459657D01*
X208294266Y-32602514D01*
X208341885Y-32697752D01*
X208389504Y-32745371D01*
X208484742Y-32792990D01*
X208865695Y-32792990D01*
X207437123Y-32269180D02*
X207627600Y-32269180D01*
X207722838Y-32316800D01*
X207770457Y-32364419D01*
X207865695Y-32507276D01*
X207913314Y-32697752D01*
X207913314Y-33078704D01*
X207865695Y-33173942D01*
X207818076Y-33221561D01*
X207722838Y-33269180D01*
X207532361Y-33269180D01*
X207437123Y-33221561D01*
X207389504Y-33173942D01*
X207341885Y-33078704D01*
X207341885Y-32840609D01*
X207389504Y-32745371D01*
X207437123Y-32697752D01*
X207532361Y-32650133D01*
X207722838Y-32650133D01*
X207818076Y-32697752D01*
X207865695Y-32745371D01*
X207913314Y-32840609D01*
X208345066Y-36418780D02*
X208678400Y-35942590D01*
X208916495Y-36418780D02*
X208916495Y-35418780D01*
X208535542Y-35418780D01*
X208440304Y-35466400D01*
X208392685Y-35514019D01*
X208345066Y-35609257D01*
X208345066Y-35752114D01*
X208392685Y-35847352D01*
X208440304Y-35894971D01*
X208535542Y-35942590D01*
X208916495Y-35942590D01*
X207440304Y-35418780D02*
X207916495Y-35418780D01*
X207964114Y-35894971D01*
X207916495Y-35847352D01*
X207821257Y-35799733D01*
X207583161Y-35799733D01*
X207487923Y-35847352D01*
X207440304Y-35894971D01*
X207392685Y-35990209D01*
X207392685Y-36228304D01*
X207440304Y-36323542D01*
X207487923Y-36371161D01*
X207583161Y-36418780D01*
X207821257Y-36418780D01*
X207916495Y-36371161D01*
X207964114Y-36323542D01*
X212384166Y-31757880D02*
X212717500Y-31281690D01*
X212955595Y-31757880D02*
X212955595Y-30757880D01*
X212574642Y-30757880D01*
X212479404Y-30805500D01*
X212431785Y-30853119D01*
X212384166Y-30948357D01*
X212384166Y-31091214D01*
X212431785Y-31186452D01*
X212479404Y-31234071D01*
X212574642Y-31281690D01*
X212955595Y-31281690D01*
X212050833Y-30757880D02*
X211431785Y-30757880D01*
X211765119Y-31138833D01*
X211622261Y-31138833D01*
X211527023Y-31186452D01*
X211479404Y-31234071D01*
X211431785Y-31329309D01*
X211431785Y-31567404D01*
X211479404Y-31662642D01*
X211527023Y-31710261D01*
X211622261Y-31757880D01*
X211907976Y-31757880D01*
X212003214Y-31710261D01*
X212050833Y-31662642D01*
X211526380Y-27646404D02*
X210526380Y-27646404D01*
X210526380Y-27884500D01*
X210574000Y-28027357D01*
X210669238Y-28122595D01*
X210764476Y-28170214D01*
X210954952Y-28217833D01*
X211097809Y-28217833D01*
X211288285Y-28170214D01*
X211383523Y-28122595D01*
X211478761Y-28027357D01*
X211526380Y-27884500D01*
X211526380Y-27646404D01*
X210621619Y-28598785D02*
X210574000Y-28646404D01*
X210526380Y-28741642D01*
X210526380Y-28979738D01*
X210574000Y-29074976D01*
X210621619Y-29122595D01*
X210716857Y-29170214D01*
X210812095Y-29170214D01*
X210954952Y-29122595D01*
X211526380Y-28551166D01*
X211526380Y-29170214D01*
X211748380Y-42413904D02*
X210748380Y-42413904D01*
X210748380Y-42652000D01*
X210796000Y-42794857D01*
X210891238Y-42890095D01*
X210986476Y-42937714D01*
X211176952Y-42985333D01*
X211319809Y-42985333D01*
X211510285Y-42937714D01*
X211605523Y-42890095D01*
X211700761Y-42794857D01*
X211748380Y-42652000D01*
X211748380Y-42413904D01*
X211748380Y-43937714D02*
X211748380Y-43366285D01*
X211748380Y-43652000D02*
X210748380Y-43652000D01*
X210891238Y-43556761D01*
X210986476Y-43461523D01*
X211034095Y-43366285D01*
X227097166Y-27865142D02*
X227144785Y-27912761D01*
X227287642Y-27960380D01*
X227382880Y-27960380D01*
X227525738Y-27912761D01*
X227620976Y-27817523D01*
X227668595Y-27722285D01*
X227716214Y-27531809D01*
X227716214Y-27388952D01*
X227668595Y-27198476D01*
X227620976Y-27103238D01*
X227525738Y-27008000D01*
X227382880Y-26960380D01*
X227287642Y-26960380D01*
X227144785Y-27008000D01*
X227097166Y-27055619D01*
X226240023Y-26960380D02*
X226430500Y-26960380D01*
X226525738Y-27008000D01*
X226573357Y-27055619D01*
X226668595Y-27198476D01*
X226716214Y-27388952D01*
X226716214Y-27769904D01*
X226668595Y-27865142D01*
X226620976Y-27912761D01*
X226525738Y-27960380D01*
X226335261Y-27960380D01*
X226240023Y-27912761D01*
X226192404Y-27865142D01*
X226144785Y-27769904D01*
X226144785Y-27531809D01*
X226192404Y-27436571D01*
X226240023Y-27388952D01*
X226335261Y-27341333D01*
X226525738Y-27341333D01*
X226620976Y-27388952D01*
X226668595Y-27436571D01*
X226716214Y-27531809D01*
X217488966Y-46483542D02*
X217536585Y-46531161D01*
X217679442Y-46578780D01*
X217774680Y-46578780D01*
X217917538Y-46531161D01*
X218012776Y-46435923D01*
X218060395Y-46340685D01*
X218108014Y-46150209D01*
X218108014Y-46007352D01*
X218060395Y-45816876D01*
X218012776Y-45721638D01*
X217917538Y-45626400D01*
X217774680Y-45578780D01*
X217679442Y-45578780D01*
X217536585Y-45626400D01*
X217488966Y-45674019D01*
X216584204Y-45578780D02*
X217060395Y-45578780D01*
X217108014Y-46054971D01*
X217060395Y-46007352D01*
X216965157Y-45959733D01*
X216727061Y-45959733D01*
X216631823Y-46007352D01*
X216584204Y-46054971D01*
X216536585Y-46150209D01*
X216536585Y-46388304D01*
X216584204Y-46483542D01*
X216631823Y-46531161D01*
X216727061Y-46578780D01*
X216965157Y-46578780D01*
X217060395Y-46531161D01*
X217108014Y-46483542D01*
M02*
