G04 #@! TF.GenerationSoftware,KiCad,Pcbnew,(5.1.9)-1*
G04 #@! TF.CreationDate,2021-04-15T17:28:59+03:00*
G04 #@! TF.ProjectId,Cbc_power_supply_module,4362635f-706f-4776-9572-5f737570706c,rev?*
G04 #@! TF.SameCoordinates,Original*
G04 #@! TF.FileFunction,Copper,L2,Bot*
G04 #@! TF.FilePolarity,Positive*
%FSLAX46Y46*%
G04 Gerber Fmt 4.6, Leading zero omitted, Abs format (unit mm)*
G04 Created by KiCad (PCBNEW (5.1.9)-1) date 2021-04-15 17:28:59*
%MOMM*%
%LPD*%
G01*
G04 APERTURE LIST*
G04 #@! TA.AperFunction,ComponentPad*
%ADD10O,1.700000X1.700000*%
G04 #@! TD*
G04 #@! TA.AperFunction,ComponentPad*
%ADD11R,1.700000X1.700000*%
G04 #@! TD*
G04 #@! TA.AperFunction,SMDPad,CuDef*
%ADD12R,1.700000X1.300000*%
G04 #@! TD*
G04 #@! TA.AperFunction,ComponentPad*
%ADD13C,1.600000*%
G04 #@! TD*
G04 #@! TA.AperFunction,ComponentPad*
%ADD14R,1.600000X1.600000*%
G04 #@! TD*
G04 #@! TA.AperFunction,ViaPad*
%ADD15C,0.800000*%
G04 #@! TD*
G04 #@! TA.AperFunction,Conductor*
%ADD16C,0.500000*%
G04 #@! TD*
G04 #@! TA.AperFunction,Conductor*
%ADD17C,0.400000*%
G04 #@! TD*
G04 #@! TA.AperFunction,Conductor*
%ADD18C,0.300000*%
G04 #@! TD*
G04 #@! TA.AperFunction,Conductor*
%ADD19C,0.100000*%
G04 #@! TD*
G04 APERTURE END LIST*
G04 #@! TA.AperFunction,SMDPad,CuDef*
G36*
G01*
X210898000Y-36453500D02*
X210898000Y-38603500D01*
G75*
G02*
X210648000Y-38853500I-250000J0D01*
G01*
X209848000Y-38853500D01*
G75*
G02*
X209598000Y-38603500I0J250000D01*
G01*
X209598000Y-36453500D01*
G75*
G02*
X209848000Y-36203500I250000J0D01*
G01*
X210648000Y-36203500D01*
G75*
G02*
X210898000Y-36453500I0J-250000D01*
G01*
G37*
G04 #@! TD.AperFunction*
G04 #@! TA.AperFunction,SMDPad,CuDef*
G36*
G01*
X213998000Y-36453500D02*
X213998000Y-38603500D01*
G75*
G02*
X213748000Y-38853500I-250000J0D01*
G01*
X212948000Y-38853500D01*
G75*
G02*
X212698000Y-38603500I0J250000D01*
G01*
X212698000Y-36453500D01*
G75*
G02*
X212948000Y-36203500I250000J0D01*
G01*
X213748000Y-36203500D01*
G75*
G02*
X213998000Y-36453500I0J-250000D01*
G01*
G37*
G04 #@! TD.AperFunction*
D10*
X240474000Y-39560500D03*
X240474000Y-37020500D03*
X240474000Y-34480500D03*
D11*
X240474000Y-31940500D03*
D10*
X203264000Y-40767000D03*
X203264000Y-38227000D03*
X203264000Y-35687000D03*
X203264000Y-33147000D03*
D11*
X203264000Y-30607000D03*
G04 #@! TA.AperFunction,SMDPad,CuDef*
G36*
G01*
X237838000Y-28252000D02*
X236888000Y-28252000D01*
G75*
G02*
X236638000Y-28002000I0J250000D01*
G01*
X236638000Y-27327000D01*
G75*
G02*
X236888000Y-27077000I250000J0D01*
G01*
X237838000Y-27077000D01*
G75*
G02*
X238088000Y-27327000I0J-250000D01*
G01*
X238088000Y-28002000D01*
G75*
G02*
X237838000Y-28252000I-250000J0D01*
G01*
G37*
G04 #@! TD.AperFunction*
G04 #@! TA.AperFunction,SMDPad,CuDef*
G36*
G01*
X237838000Y-30327000D02*
X236888000Y-30327000D01*
G75*
G02*
X236638000Y-30077000I0J250000D01*
G01*
X236638000Y-29402000D01*
G75*
G02*
X236888000Y-29152000I250000J0D01*
G01*
X237838000Y-29152000D01*
G75*
G02*
X238088000Y-29402000I0J-250000D01*
G01*
X238088000Y-30077000D01*
G75*
G02*
X237838000Y-30327000I-250000J0D01*
G01*
G37*
G04 #@! TD.AperFunction*
G04 #@! TA.AperFunction,SMDPad,CuDef*
G36*
G01*
X234977000Y-40480000D02*
X234977000Y-39530000D01*
G75*
G02*
X235227000Y-39280000I250000J0D01*
G01*
X235902000Y-39280000D01*
G75*
G02*
X236152000Y-39530000I0J-250000D01*
G01*
X236152000Y-40480000D01*
G75*
G02*
X235902000Y-40730000I-250000J0D01*
G01*
X235227000Y-40730000D01*
G75*
G02*
X234977000Y-40480000I0J250000D01*
G01*
G37*
G04 #@! TD.AperFunction*
G04 #@! TA.AperFunction,SMDPad,CuDef*
G36*
G01*
X232902000Y-40480000D02*
X232902000Y-39530000D01*
G75*
G02*
X233152000Y-39280000I250000J0D01*
G01*
X233827000Y-39280000D01*
G75*
G02*
X234077000Y-39530000I0J-250000D01*
G01*
X234077000Y-40480000D01*
G75*
G02*
X233827000Y-40730000I-250000J0D01*
G01*
X233152000Y-40730000D01*
G75*
G02*
X232902000Y-40480000I0J250000D01*
G01*
G37*
G04 #@! TD.AperFunction*
G04 #@! TA.AperFunction,SMDPad,CuDef*
G36*
G01*
X222776000Y-26495500D02*
X221826000Y-26495500D01*
G75*
G02*
X221576000Y-26245500I0J250000D01*
G01*
X221576000Y-25570500D01*
G75*
G02*
X221826000Y-25320500I250000J0D01*
G01*
X222776000Y-25320500D01*
G75*
G02*
X223026000Y-25570500I0J-250000D01*
G01*
X223026000Y-26245500D01*
G75*
G02*
X222776000Y-26495500I-250000J0D01*
G01*
G37*
G04 #@! TD.AperFunction*
G04 #@! TA.AperFunction,SMDPad,CuDef*
G36*
G01*
X222776000Y-28570500D02*
X221826000Y-28570500D01*
G75*
G02*
X221576000Y-28320500I0J250000D01*
G01*
X221576000Y-27645500D01*
G75*
G02*
X221826000Y-27395500I250000J0D01*
G01*
X222776000Y-27395500D01*
G75*
G02*
X223026000Y-27645500I0J-250000D01*
G01*
X223026000Y-28320500D01*
G75*
G02*
X222776000Y-28570500I-250000J0D01*
G01*
G37*
G04 #@! TD.AperFunction*
G04 #@! TA.AperFunction,SMDPad,CuDef*
G36*
G01*
X206345000Y-42656000D02*
X207295000Y-42656000D01*
G75*
G02*
X207545000Y-42906000I0J-250000D01*
G01*
X207545000Y-43581000D01*
G75*
G02*
X207295000Y-43831000I-250000J0D01*
G01*
X206345000Y-43831000D01*
G75*
G02*
X206095000Y-43581000I0J250000D01*
G01*
X206095000Y-42906000D01*
G75*
G02*
X206345000Y-42656000I250000J0D01*
G01*
G37*
G04 #@! TD.AperFunction*
G04 #@! TA.AperFunction,SMDPad,CuDef*
G36*
G01*
X206345000Y-40581000D02*
X207295000Y-40581000D01*
G75*
G02*
X207545000Y-40831000I0J-250000D01*
G01*
X207545000Y-41506000D01*
G75*
G02*
X207295000Y-41756000I-250000J0D01*
G01*
X206345000Y-41756000D01*
G75*
G02*
X206095000Y-41506000I0J250000D01*
G01*
X206095000Y-40831000D01*
G75*
G02*
X206345000Y-40581000I250000J0D01*
G01*
G37*
G04 #@! TD.AperFunction*
G04 #@! TA.AperFunction,SMDPad,CuDef*
G36*
G01*
X220114000Y-38871800D02*
X219814000Y-38871800D01*
G75*
G02*
X219664000Y-38721800I0J150000D01*
G01*
X219664000Y-37071800D01*
G75*
G02*
X219814000Y-36921800I150000J0D01*
G01*
X220114000Y-36921800D01*
G75*
G02*
X220264000Y-37071800I0J-150000D01*
G01*
X220264000Y-38721800D01*
G75*
G02*
X220114000Y-38871800I-150000J0D01*
G01*
G37*
G04 #@! TD.AperFunction*
G04 #@! TA.AperFunction,SMDPad,CuDef*
G36*
G01*
X218844000Y-38871800D02*
X218544000Y-38871800D01*
G75*
G02*
X218394000Y-38721800I0J150000D01*
G01*
X218394000Y-37071800D01*
G75*
G02*
X218544000Y-36921800I150000J0D01*
G01*
X218844000Y-36921800D01*
G75*
G02*
X218994000Y-37071800I0J-150000D01*
G01*
X218994000Y-38721800D01*
G75*
G02*
X218844000Y-38871800I-150000J0D01*
G01*
G37*
G04 #@! TD.AperFunction*
G04 #@! TA.AperFunction,SMDPad,CuDef*
G36*
G01*
X217574000Y-38871800D02*
X217274000Y-38871800D01*
G75*
G02*
X217124000Y-38721800I0J150000D01*
G01*
X217124000Y-37071800D01*
G75*
G02*
X217274000Y-36921800I150000J0D01*
G01*
X217574000Y-36921800D01*
G75*
G02*
X217724000Y-37071800I0J-150000D01*
G01*
X217724000Y-38721800D01*
G75*
G02*
X217574000Y-38871800I-150000J0D01*
G01*
G37*
G04 #@! TD.AperFunction*
G04 #@! TA.AperFunction,SMDPad,CuDef*
G36*
G01*
X216304000Y-38871800D02*
X216004000Y-38871800D01*
G75*
G02*
X215854000Y-38721800I0J150000D01*
G01*
X215854000Y-37071800D01*
G75*
G02*
X216004000Y-36921800I150000J0D01*
G01*
X216304000Y-36921800D01*
G75*
G02*
X216454000Y-37071800I0J-150000D01*
G01*
X216454000Y-38721800D01*
G75*
G02*
X216304000Y-38871800I-150000J0D01*
G01*
G37*
G04 #@! TD.AperFunction*
G04 #@! TA.AperFunction,SMDPad,CuDef*
G36*
G01*
X216304000Y-43821800D02*
X216004000Y-43821800D01*
G75*
G02*
X215854000Y-43671800I0J150000D01*
G01*
X215854000Y-42021800D01*
G75*
G02*
X216004000Y-41871800I150000J0D01*
G01*
X216304000Y-41871800D01*
G75*
G02*
X216454000Y-42021800I0J-150000D01*
G01*
X216454000Y-43671800D01*
G75*
G02*
X216304000Y-43821800I-150000J0D01*
G01*
G37*
G04 #@! TD.AperFunction*
G04 #@! TA.AperFunction,SMDPad,CuDef*
G36*
G01*
X217574000Y-43821800D02*
X217274000Y-43821800D01*
G75*
G02*
X217124000Y-43671800I0J150000D01*
G01*
X217124000Y-42021800D01*
G75*
G02*
X217274000Y-41871800I150000J0D01*
G01*
X217574000Y-41871800D01*
G75*
G02*
X217724000Y-42021800I0J-150000D01*
G01*
X217724000Y-43671800D01*
G75*
G02*
X217574000Y-43821800I-150000J0D01*
G01*
G37*
G04 #@! TD.AperFunction*
G04 #@! TA.AperFunction,SMDPad,CuDef*
G36*
G01*
X218844000Y-43821800D02*
X218544000Y-43821800D01*
G75*
G02*
X218394000Y-43671800I0J150000D01*
G01*
X218394000Y-42021800D01*
G75*
G02*
X218544000Y-41871800I150000J0D01*
G01*
X218844000Y-41871800D01*
G75*
G02*
X218994000Y-42021800I0J-150000D01*
G01*
X218994000Y-43671800D01*
G75*
G02*
X218844000Y-43821800I-150000J0D01*
G01*
G37*
G04 #@! TD.AperFunction*
G04 #@! TA.AperFunction,SMDPad,CuDef*
G36*
G01*
X220114000Y-43821800D02*
X219814000Y-43821800D01*
G75*
G02*
X219664000Y-43671800I0J150000D01*
G01*
X219664000Y-42021800D01*
G75*
G02*
X219814000Y-41871800I150000J0D01*
G01*
X220114000Y-41871800D01*
G75*
G02*
X220264000Y-42021800I0J-150000D01*
G01*
X220264000Y-43671800D01*
G75*
G02*
X220114000Y-43821800I-150000J0D01*
G01*
G37*
G04 #@! TD.AperFunction*
G04 #@! TA.AperFunction,SMDPad,CuDef*
G36*
G01*
X215813000Y-32108500D02*
X216113000Y-32108500D01*
G75*
G02*
X216263000Y-32258500I0J-150000D01*
G01*
X216263000Y-33908500D01*
G75*
G02*
X216113000Y-34058500I-150000J0D01*
G01*
X215813000Y-34058500D01*
G75*
G02*
X215663000Y-33908500I0J150000D01*
G01*
X215663000Y-32258500D01*
G75*
G02*
X215813000Y-32108500I150000J0D01*
G01*
G37*
G04 #@! TD.AperFunction*
G04 #@! TA.AperFunction,SMDPad,CuDef*
G36*
G01*
X217083000Y-32108500D02*
X217383000Y-32108500D01*
G75*
G02*
X217533000Y-32258500I0J-150000D01*
G01*
X217533000Y-33908500D01*
G75*
G02*
X217383000Y-34058500I-150000J0D01*
G01*
X217083000Y-34058500D01*
G75*
G02*
X216933000Y-33908500I0J150000D01*
G01*
X216933000Y-32258500D01*
G75*
G02*
X217083000Y-32108500I150000J0D01*
G01*
G37*
G04 #@! TD.AperFunction*
G04 #@! TA.AperFunction,SMDPad,CuDef*
G36*
G01*
X218353000Y-32108500D02*
X218653000Y-32108500D01*
G75*
G02*
X218803000Y-32258500I0J-150000D01*
G01*
X218803000Y-33908500D01*
G75*
G02*
X218653000Y-34058500I-150000J0D01*
G01*
X218353000Y-34058500D01*
G75*
G02*
X218203000Y-33908500I0J150000D01*
G01*
X218203000Y-32258500D01*
G75*
G02*
X218353000Y-32108500I150000J0D01*
G01*
G37*
G04 #@! TD.AperFunction*
G04 #@! TA.AperFunction,SMDPad,CuDef*
G36*
G01*
X219623000Y-32108500D02*
X219923000Y-32108500D01*
G75*
G02*
X220073000Y-32258500I0J-150000D01*
G01*
X220073000Y-33908500D01*
G75*
G02*
X219923000Y-34058500I-150000J0D01*
G01*
X219623000Y-34058500D01*
G75*
G02*
X219473000Y-33908500I0J150000D01*
G01*
X219473000Y-32258500D01*
G75*
G02*
X219623000Y-32108500I150000J0D01*
G01*
G37*
G04 #@! TD.AperFunction*
G04 #@! TA.AperFunction,SMDPad,CuDef*
G36*
G01*
X219623000Y-27158500D02*
X219923000Y-27158500D01*
G75*
G02*
X220073000Y-27308500I0J-150000D01*
G01*
X220073000Y-28958500D01*
G75*
G02*
X219923000Y-29108500I-150000J0D01*
G01*
X219623000Y-29108500D01*
G75*
G02*
X219473000Y-28958500I0J150000D01*
G01*
X219473000Y-27308500D01*
G75*
G02*
X219623000Y-27158500I150000J0D01*
G01*
G37*
G04 #@! TD.AperFunction*
G04 #@! TA.AperFunction,SMDPad,CuDef*
G36*
G01*
X218353000Y-27158500D02*
X218653000Y-27158500D01*
G75*
G02*
X218803000Y-27308500I0J-150000D01*
G01*
X218803000Y-28958500D01*
G75*
G02*
X218653000Y-29108500I-150000J0D01*
G01*
X218353000Y-29108500D01*
G75*
G02*
X218203000Y-28958500I0J150000D01*
G01*
X218203000Y-27308500D01*
G75*
G02*
X218353000Y-27158500I150000J0D01*
G01*
G37*
G04 #@! TD.AperFunction*
G04 #@! TA.AperFunction,SMDPad,CuDef*
G36*
G01*
X217083000Y-27158500D02*
X217383000Y-27158500D01*
G75*
G02*
X217533000Y-27308500I0J-150000D01*
G01*
X217533000Y-28958500D01*
G75*
G02*
X217383000Y-29108500I-150000J0D01*
G01*
X217083000Y-29108500D01*
G75*
G02*
X216933000Y-28958500I0J150000D01*
G01*
X216933000Y-27308500D01*
G75*
G02*
X217083000Y-27158500I150000J0D01*
G01*
G37*
G04 #@! TD.AperFunction*
G04 #@! TA.AperFunction,SMDPad,CuDef*
G36*
G01*
X215813000Y-27158500D02*
X216113000Y-27158500D01*
G75*
G02*
X216263000Y-27308500I0J-150000D01*
G01*
X216263000Y-28958500D01*
G75*
G02*
X216113000Y-29108500I-150000J0D01*
G01*
X215813000Y-29108500D01*
G75*
G02*
X215663000Y-28958500I0J150000D01*
G01*
X215663000Y-27308500D01*
G75*
G02*
X215813000Y-27158500I150000J0D01*
G01*
G37*
G04 #@! TD.AperFunction*
G04 #@! TA.AperFunction,SMDPad,CuDef*
G36*
G01*
X222205999Y-31861200D02*
X223106001Y-31861200D01*
G75*
G02*
X223356000Y-32111199I0J-249999D01*
G01*
X223356000Y-32811201D01*
G75*
G02*
X223106001Y-33061200I-249999J0D01*
G01*
X222205999Y-33061200D01*
G75*
G02*
X221956000Y-32811201I0J249999D01*
G01*
X221956000Y-32111199D01*
G75*
G02*
X222205999Y-31861200I249999J0D01*
G01*
G37*
G04 #@! TD.AperFunction*
G04 #@! TA.AperFunction,SMDPad,CuDef*
G36*
G01*
X222205999Y-29861200D02*
X223106001Y-29861200D01*
G75*
G02*
X223356000Y-30111199I0J-249999D01*
G01*
X223356000Y-30811201D01*
G75*
G02*
X223106001Y-31061200I-249999J0D01*
G01*
X222205999Y-31061200D01*
G75*
G02*
X221956000Y-30811201I0J249999D01*
G01*
X221956000Y-30111199D01*
G75*
G02*
X222205999Y-29861200I249999J0D01*
G01*
G37*
G04 #@! TD.AperFunction*
G04 #@! TA.AperFunction,SMDPad,CuDef*
G36*
G01*
X233652000Y-35248001D02*
X233652000Y-34347999D01*
G75*
G02*
X233901999Y-34098000I249999J0D01*
G01*
X234602001Y-34098000D01*
G75*
G02*
X234852000Y-34347999I0J-249999D01*
G01*
X234852000Y-35248001D01*
G75*
G02*
X234602001Y-35498000I-249999J0D01*
G01*
X233901999Y-35498000D01*
G75*
G02*
X233652000Y-35248001I0J249999D01*
G01*
G37*
G04 #@! TD.AperFunction*
G04 #@! TA.AperFunction,SMDPad,CuDef*
G36*
G01*
X231652000Y-35248001D02*
X231652000Y-34347999D01*
G75*
G02*
X231901999Y-34098000I249999J0D01*
G01*
X232602001Y-34098000D01*
G75*
G02*
X232852000Y-34347999I0J-249999D01*
G01*
X232852000Y-35248001D01*
G75*
G02*
X232602001Y-35498000I-249999J0D01*
G01*
X231901999Y-35498000D01*
G75*
G02*
X231652000Y-35248001I0J249999D01*
G01*
G37*
G04 #@! TD.AperFunction*
G04 #@! TA.AperFunction,SMDPad,CuDef*
G36*
G01*
X224101000Y-40088399D02*
X224101000Y-40988401D01*
G75*
G02*
X223851001Y-41238400I-249999J0D01*
G01*
X223150999Y-41238400D01*
G75*
G02*
X222901000Y-40988401I0J249999D01*
G01*
X222901000Y-40088399D01*
G75*
G02*
X223150999Y-39838400I249999J0D01*
G01*
X223851001Y-39838400D01*
G75*
G02*
X224101000Y-40088399I0J-249999D01*
G01*
G37*
G04 #@! TD.AperFunction*
G04 #@! TA.AperFunction,SMDPad,CuDef*
G36*
G01*
X226101000Y-40088399D02*
X226101000Y-40988401D01*
G75*
G02*
X225851001Y-41238400I-249999J0D01*
G01*
X225150999Y-41238400D01*
G75*
G02*
X224901000Y-40988401I0J249999D01*
G01*
X224901000Y-40088399D01*
G75*
G02*
X225150999Y-39838400I249999J0D01*
G01*
X225851001Y-39838400D01*
G75*
G02*
X226101000Y-40088399I0J-249999D01*
G01*
G37*
G04 #@! TD.AperFunction*
G04 #@! TA.AperFunction,SMDPad,CuDef*
G36*
G01*
X229240001Y-39875000D02*
X228339999Y-39875000D01*
G75*
G02*
X228090000Y-39625001I0J249999D01*
G01*
X228090000Y-38924999D01*
G75*
G02*
X228339999Y-38675000I249999J0D01*
G01*
X229240001Y-38675000D01*
G75*
G02*
X229490000Y-38924999I0J-249999D01*
G01*
X229490000Y-39625001D01*
G75*
G02*
X229240001Y-39875000I-249999J0D01*
G01*
G37*
G04 #@! TD.AperFunction*
G04 #@! TA.AperFunction,SMDPad,CuDef*
G36*
G01*
X229240001Y-41875000D02*
X228339999Y-41875000D01*
G75*
G02*
X228090000Y-41625001I0J249999D01*
G01*
X228090000Y-40924999D01*
G75*
G02*
X228339999Y-40675000I249999J0D01*
G01*
X229240001Y-40675000D01*
G75*
G02*
X229490000Y-40924999I0J-249999D01*
G01*
X229490000Y-41625001D01*
G75*
G02*
X229240001Y-41875000I-249999J0D01*
G01*
G37*
G04 #@! TD.AperFunction*
G04 #@! TA.AperFunction,SMDPad,CuDef*
G36*
G01*
X228400000Y-32450001D02*
X228400000Y-31549999D01*
G75*
G02*
X228649999Y-31300000I249999J0D01*
G01*
X229350001Y-31300000D01*
G75*
G02*
X229600000Y-31549999I0J-249999D01*
G01*
X229600000Y-32450001D01*
G75*
G02*
X229350001Y-32700000I-249999J0D01*
G01*
X228649999Y-32700000D01*
G75*
G02*
X228400000Y-32450001I0J249999D01*
G01*
G37*
G04 #@! TD.AperFunction*
G04 #@! TA.AperFunction,SMDPad,CuDef*
G36*
G01*
X226400000Y-32450001D02*
X226400000Y-31549999D01*
G75*
G02*
X226649999Y-31300000I249999J0D01*
G01*
X227350001Y-31300000D01*
G75*
G02*
X227600000Y-31549999I0J-249999D01*
G01*
X227600000Y-32450001D01*
G75*
G02*
X227350001Y-32700000I-249999J0D01*
G01*
X226649999Y-32700000D01*
G75*
G02*
X226400000Y-32450001I0J249999D01*
G01*
G37*
G04 #@! TD.AperFunction*
G04 #@! TA.AperFunction,SMDPad,CuDef*
G36*
G01*
X225054000Y-43680801D02*
X225054000Y-42780799D01*
G75*
G02*
X225303999Y-42530800I249999J0D01*
G01*
X226004001Y-42530800D01*
G75*
G02*
X226254000Y-42780799I0J-249999D01*
G01*
X226254000Y-43680801D01*
G75*
G02*
X226004001Y-43930800I-249999J0D01*
G01*
X225303999Y-43930800D01*
G75*
G02*
X225054000Y-43680801I0J249999D01*
G01*
G37*
G04 #@! TD.AperFunction*
G04 #@! TA.AperFunction,SMDPad,CuDef*
G36*
G01*
X223054000Y-43680801D02*
X223054000Y-42780799D01*
G75*
G02*
X223303999Y-42530800I249999J0D01*
G01*
X224004001Y-42530800D01*
G75*
G02*
X224254000Y-42780799I0J-249999D01*
G01*
X224254000Y-43680801D01*
G75*
G02*
X224004001Y-43930800I-249999J0D01*
G01*
X223303999Y-43930800D01*
G75*
G02*
X223054000Y-43680801I0J249999D01*
G01*
G37*
G04 #@! TD.AperFunction*
G04 #@! TA.AperFunction,SMDPad,CuDef*
G36*
G01*
X206561000Y-34243000D02*
X206561000Y-34718000D01*
G75*
G02*
X206323500Y-34955500I-237500J0D01*
G01*
X205823500Y-34955500D01*
G75*
G02*
X205586000Y-34718000I0J237500D01*
G01*
X205586000Y-34243000D01*
G75*
G02*
X205823500Y-34005500I237500J0D01*
G01*
X206323500Y-34005500D01*
G75*
G02*
X206561000Y-34243000I0J-237500D01*
G01*
G37*
G04 #@! TD.AperFunction*
G04 #@! TA.AperFunction,SMDPad,CuDef*
G36*
G01*
X208386000Y-34243000D02*
X208386000Y-34718000D01*
G75*
G02*
X208148500Y-34955500I-237500J0D01*
G01*
X207648500Y-34955500D01*
G75*
G02*
X207411000Y-34718000I0J237500D01*
G01*
X207411000Y-34243000D01*
G75*
G02*
X207648500Y-34005500I237500J0D01*
G01*
X208148500Y-34005500D01*
G75*
G02*
X208386000Y-34243000I0J-237500D01*
G01*
G37*
G04 #@! TD.AperFunction*
G04 #@! TA.AperFunction,SMDPad,CuDef*
G36*
G01*
X206625000Y-37227500D02*
X206625000Y-37702500D01*
G75*
G02*
X206387500Y-37940000I-237500J0D01*
G01*
X205887500Y-37940000D01*
G75*
G02*
X205650000Y-37702500I0J237500D01*
G01*
X205650000Y-37227500D01*
G75*
G02*
X205887500Y-36990000I237500J0D01*
G01*
X206387500Y-36990000D01*
G75*
G02*
X206625000Y-37227500I0J-237500D01*
G01*
G37*
G04 #@! TD.AperFunction*
G04 #@! TA.AperFunction,SMDPad,CuDef*
G36*
G01*
X208450000Y-37227500D02*
X208450000Y-37702500D01*
G75*
G02*
X208212500Y-37940000I-237500J0D01*
G01*
X207712500Y-37940000D01*
G75*
G02*
X207475000Y-37702500I0J237500D01*
G01*
X207475000Y-37227500D01*
G75*
G02*
X207712500Y-36990000I237500J0D01*
G01*
X208212500Y-36990000D01*
G75*
G02*
X208450000Y-37227500I0J-237500D01*
G01*
G37*
G04 #@! TD.AperFunction*
G04 #@! TA.AperFunction,SMDPad,CuDef*
G36*
G01*
X210772000Y-32707000D02*
X210772000Y-34857000D01*
G75*
G02*
X210522000Y-35107000I-250000J0D01*
G01*
X209722000Y-35107000D01*
G75*
G02*
X209472000Y-34857000I0J250000D01*
G01*
X209472000Y-32707000D01*
G75*
G02*
X209722000Y-32457000I250000J0D01*
G01*
X210522000Y-32457000D01*
G75*
G02*
X210772000Y-32707000I0J-250000D01*
G01*
G37*
G04 #@! TD.AperFunction*
G04 #@! TA.AperFunction,SMDPad,CuDef*
G36*
G01*
X213872000Y-32707000D02*
X213872000Y-34857000D01*
G75*
G02*
X213622000Y-35107000I-250000J0D01*
G01*
X212822000Y-35107000D01*
G75*
G02*
X212572000Y-34857000I0J250000D01*
G01*
X212572000Y-32707000D01*
G75*
G02*
X212822000Y-32457000I250000J0D01*
G01*
X213622000Y-32457000D01*
G75*
G02*
X213872000Y-32707000I0J-250000D01*
G01*
G37*
G04 #@! TD.AperFunction*
D12*
X212852000Y-25837000D03*
X212852000Y-29337000D03*
X213296000Y-44902000D03*
X213296000Y-41402000D03*
D13*
X234442000Y-26680000D03*
D14*
X234442000Y-30480000D03*
D13*
X236337000Y-42735500D03*
D14*
X232537000Y-42735500D03*
G04 #@! TA.AperFunction,SMDPad,CuDef*
G36*
G01*
X230450000Y-27475000D02*
X230450000Y-26525000D01*
G75*
G02*
X230700000Y-26275000I250000J0D01*
G01*
X231375000Y-26275000D01*
G75*
G02*
X231625000Y-26525000I0J-250000D01*
G01*
X231625000Y-27475000D01*
G75*
G02*
X231375000Y-27725000I-250000J0D01*
G01*
X230700000Y-27725000D01*
G75*
G02*
X230450000Y-27475000I0J250000D01*
G01*
G37*
G04 #@! TD.AperFunction*
G04 #@! TA.AperFunction,SMDPad,CuDef*
G36*
G01*
X228375000Y-27475000D02*
X228375000Y-26525000D01*
G75*
G02*
X228625000Y-26275000I250000J0D01*
G01*
X229300000Y-26275000D01*
G75*
G02*
X229550000Y-26525000I0J-250000D01*
G01*
X229550000Y-27475000D01*
G75*
G02*
X229300000Y-27725000I-250000J0D01*
G01*
X228625000Y-27725000D01*
G75*
G02*
X228375000Y-27475000I0J250000D01*
G01*
G37*
G04 #@! TD.AperFunction*
G04 #@! TA.AperFunction,SMDPad,CuDef*
G36*
G01*
X221045000Y-46144200D02*
X221045000Y-45194200D01*
G75*
G02*
X221295000Y-44944200I250000J0D01*
G01*
X221970000Y-44944200D01*
G75*
G02*
X222220000Y-45194200I0J-250000D01*
G01*
X222220000Y-46144200D01*
G75*
G02*
X221970000Y-46394200I-250000J0D01*
G01*
X221295000Y-46394200D01*
G75*
G02*
X221045000Y-46144200I0J250000D01*
G01*
G37*
G04 #@! TD.AperFunction*
G04 #@! TA.AperFunction,SMDPad,CuDef*
G36*
G01*
X218970000Y-46144200D02*
X218970000Y-45194200D01*
G75*
G02*
X219220000Y-44944200I250000J0D01*
G01*
X219895000Y-44944200D01*
G75*
G02*
X220145000Y-45194200I0J-250000D01*
G01*
X220145000Y-46144200D01*
G75*
G02*
X219895000Y-46394200I-250000J0D01*
G01*
X219220000Y-46394200D01*
G75*
G02*
X218970000Y-46144200I0J250000D01*
G01*
G37*
G04 #@! TD.AperFunction*
D13*
X209550000Y-26680000D03*
D14*
X209550000Y-30480000D03*
D13*
X209550000Y-44503500D03*
D14*
X209550000Y-40703500D03*
D15*
X223747600Y-29080600D03*
X220492400Y-34830100D03*
X220634900Y-30656300D03*
X226180900Y-30656300D03*
X207950600Y-36283500D03*
X220965300Y-37882700D03*
X215115300Y-37882700D03*
X222580400Y-41779100D03*
X219472300Y-31061000D03*
X227773500Y-33387100D03*
X211723900Y-40440400D03*
X220463600Y-40413400D03*
X220995800Y-42302600D03*
D16*
X219773000Y-28133500D02*
X222100700Y-30461200D01*
X222100700Y-30461200D02*
X222656000Y-30461200D01*
X219773000Y-25908000D02*
X219773000Y-28133500D01*
X214452300Y-25837000D02*
X219702000Y-25837000D01*
X219702000Y-25837000D02*
X219773000Y-25908000D01*
X222301000Y-25908000D02*
X219773000Y-25908000D01*
X209550000Y-44503500D02*
X211297200Y-44503500D01*
X211297200Y-44503500D02*
X211695700Y-44902000D01*
X206820000Y-43243500D02*
X208290000Y-43243500D01*
X208290000Y-43243500D02*
X209550000Y-44503500D01*
X213296000Y-44902000D02*
X211695700Y-44902000D01*
X231037500Y-26828300D02*
X229709900Y-25500700D01*
X229709900Y-25500700D02*
X222708300Y-25500700D01*
X222708300Y-25500700D02*
X222301000Y-25908000D01*
X231037500Y-27000000D02*
X231037500Y-26828300D01*
X234442000Y-26680000D02*
X231185800Y-26680000D01*
X231185800Y-26680000D02*
X231037500Y-26828300D01*
X237363000Y-27664500D02*
X236378500Y-26680000D01*
X236378500Y-26680000D02*
X234442000Y-26680000D01*
X235776000Y-42174400D02*
X235564500Y-41963000D01*
X235564500Y-41963000D02*
X235564500Y-40005000D01*
X236337000Y-42735500D02*
X235776000Y-42174400D01*
X227049900Y-44114600D02*
X227221200Y-44285900D01*
X227221200Y-44285900D02*
X233664500Y-44285900D01*
X233664500Y-44285900D02*
X235776000Y-42174400D01*
X225501000Y-40538400D02*
X227049900Y-42087300D01*
X227049900Y-42087300D02*
X227049900Y-44114600D01*
X227049900Y-44114600D02*
X225495300Y-45669200D01*
X225495300Y-45669200D02*
X221632500Y-45669200D01*
X213296000Y-44902000D02*
X214896300Y-44902000D01*
X214896300Y-44902000D02*
X214896300Y-44104500D01*
X214896300Y-44104500D02*
X216154000Y-42846800D01*
X203264000Y-30607000D02*
X204864300Y-30607000D01*
X209550000Y-26680000D02*
X208791300Y-26680000D01*
X208791300Y-26680000D02*
X204864300Y-30607000D01*
X211251700Y-25837000D02*
X210408700Y-26680000D01*
X210408700Y-26680000D02*
X209550000Y-26680000D01*
X212852000Y-25837000D02*
X214452300Y-25837000D01*
X240474000Y-34480500D02*
X240474000Y-37020500D01*
X212852000Y-25837000D02*
X211251700Y-25837000D01*
X209550000Y-40703500D02*
X207285000Y-40703500D01*
X207285000Y-40703500D02*
X206820000Y-41168500D01*
X210179800Y-40703500D02*
X209550000Y-40703500D01*
X210179800Y-40703500D02*
X210179800Y-37596700D01*
X210179800Y-37596700D02*
X210248000Y-37528500D01*
X217424000Y-37896800D02*
X217424000Y-38928100D01*
X217424000Y-38928100D02*
X215103000Y-41249100D01*
X215103000Y-41249100D02*
X215103000Y-42174600D01*
X215103000Y-42174600D02*
X214475200Y-42802400D01*
X214475200Y-42802400D02*
X212119900Y-42802400D01*
X212119900Y-42802400D02*
X210179800Y-40862300D01*
X210179800Y-40862300D02*
X210179800Y-40703500D01*
X223747600Y-29080600D02*
X223398600Y-29080600D01*
X223398600Y-29080600D02*
X222301000Y-27983000D01*
X218503000Y-33083500D02*
X218503000Y-34066000D01*
X218503000Y-34066000D02*
X219267100Y-34830100D01*
X219267100Y-34830100D02*
X220492400Y-34830100D01*
X209550000Y-30480000D02*
X209550000Y-33210000D01*
X209550000Y-33210000D02*
X210122000Y-33782000D01*
D17*
X219557500Y-45549100D02*
X219557500Y-45669200D01*
X223654000Y-43230800D02*
X221875800Y-43230800D01*
X221875800Y-43230800D02*
X219557500Y-45549100D01*
X217424000Y-42846800D02*
X217424000Y-43526000D01*
X217424000Y-43526000D02*
X219447100Y-45549100D01*
X219447100Y-45549100D02*
X219557500Y-45549100D01*
X227000000Y-30656300D02*
X226180900Y-30656300D01*
X227000000Y-30656300D02*
X227000000Y-32000000D01*
X228962500Y-27000000D02*
X227000000Y-28962500D01*
X227000000Y-28962500D02*
X227000000Y-30656300D01*
X220634900Y-30656300D02*
X220139200Y-30160600D01*
X220139200Y-30160600D02*
X219562400Y-30160600D01*
X219562400Y-30160600D02*
X218503000Y-29101200D01*
X218503000Y-29101200D02*
X218503000Y-28133500D01*
X228790000Y-39275000D02*
X230376800Y-39275000D01*
X230376800Y-39275000D02*
X232537000Y-41435200D01*
X232537000Y-42735500D02*
X232537000Y-41435200D01*
X232537000Y-41435200D02*
X233489500Y-40482700D01*
X233489500Y-40482700D02*
X233489500Y-40005000D01*
X233489500Y-40005000D02*
X233489500Y-39906500D01*
X233489500Y-39906500D02*
X234825000Y-38571000D01*
X234825000Y-38571000D02*
X238134200Y-38571000D01*
X238134200Y-38571000D02*
X239123700Y-39560500D01*
X240474000Y-39560500D02*
X239123700Y-39560500D01*
X237292900Y-30109700D02*
X239123700Y-31940500D01*
X234442000Y-30480000D02*
X236922600Y-30480000D01*
X236922600Y-30480000D02*
X237292900Y-30109700D01*
X237292900Y-30109700D02*
X237292900Y-29809600D01*
X237292900Y-29809600D02*
X237363000Y-29739500D01*
X240474000Y-31940500D02*
X239123700Y-31940500D01*
X234442000Y-30480000D02*
X234442000Y-31780300D01*
X234252000Y-34798000D02*
X234252000Y-31970300D01*
X234252000Y-31970300D02*
X234442000Y-31780300D01*
X207962500Y-37465000D02*
X207950600Y-37453100D01*
X207950600Y-37453100D02*
X207950600Y-36283500D01*
X213296000Y-41402000D02*
X213296000Y-40251700D01*
X213296000Y-40251700D02*
X215115300Y-38432400D01*
X215115300Y-38432400D02*
X215115300Y-37882700D01*
X219964000Y-37896800D02*
X220951200Y-37896800D01*
X220951200Y-37896800D02*
X220965300Y-37882700D01*
X215963000Y-33083500D02*
X213366800Y-30487300D01*
X213366800Y-30487300D02*
X212852000Y-30487300D01*
X212852000Y-29337000D02*
X211501700Y-29337000D01*
X207898500Y-34480500D02*
X207898500Y-29471900D01*
X207898500Y-29471900D02*
X208392400Y-28978000D01*
X208392400Y-28978000D02*
X211142700Y-28978000D01*
X211142700Y-28978000D02*
X211501700Y-29337000D01*
X212852000Y-29337000D02*
X212852000Y-30487300D01*
X222370200Y-41989300D02*
X222580400Y-41779100D01*
X225654000Y-43230800D02*
X224412600Y-41989400D01*
X224412600Y-41989400D02*
X222370200Y-41989400D01*
X222370200Y-41989400D02*
X222370200Y-41989300D01*
X218694000Y-42846800D02*
X218694000Y-42222100D01*
X218694000Y-42222100D02*
X219565700Y-41350400D01*
X219565700Y-41350400D02*
X221731300Y-41350400D01*
X221731300Y-41350400D02*
X222370200Y-41989300D01*
X219472300Y-31061000D02*
X217233000Y-28821700D01*
X217233000Y-28821700D02*
X217233000Y-28133500D01*
X229000000Y-32000000D02*
X227773500Y-33226500D01*
X227773500Y-33226500D02*
X227773500Y-33387100D01*
X217233000Y-33083500D02*
X217233000Y-30718300D01*
X217233000Y-30718300D02*
X215963000Y-29448300D01*
X215963000Y-29448300D02*
X215963000Y-28133500D01*
X213222000Y-33782000D02*
X214018900Y-34578900D01*
X214018900Y-34578900D02*
X216422300Y-34578900D01*
X216422300Y-34578900D02*
X217233000Y-33768200D01*
X217233000Y-33768200D02*
X217233000Y-33083500D01*
X224098900Y-39708300D02*
X223501000Y-40306200D01*
X223501000Y-40306200D02*
X223501000Y-40538400D01*
X228790000Y-41275000D02*
X226625500Y-39110500D01*
X226625500Y-39110500D02*
X224696700Y-39110500D01*
X224696700Y-39110500D02*
X224098900Y-39708300D01*
X216154000Y-37896800D02*
X216154000Y-36913300D01*
X216154000Y-36913300D02*
X216858500Y-36208800D01*
X216858500Y-36208800D02*
X220599300Y-36208800D01*
X220599300Y-36208800D02*
X224098900Y-39708300D01*
X232252000Y-34798000D02*
X224992800Y-34798000D01*
X224992800Y-34798000D02*
X222656000Y-32461200D01*
X222656000Y-32461200D02*
X222033700Y-33083500D01*
X222033700Y-33083500D02*
X219773000Y-33083500D01*
X206137500Y-37465000D02*
X203264000Y-40338500D01*
X203264000Y-40338500D02*
X203264000Y-40767000D01*
X206073500Y-34480500D02*
X206073500Y-35417500D01*
X206073500Y-35417500D02*
X203264000Y-38227000D01*
X218694000Y-37896800D02*
X218694000Y-38643800D01*
X218694000Y-38643800D02*
X220463600Y-40413400D01*
X213348000Y-37528500D02*
X213348000Y-38816300D01*
X213348000Y-38816300D02*
X211723900Y-40440400D01*
X219964000Y-42846800D02*
X220451600Y-42846800D01*
X220451600Y-42846800D02*
X220995800Y-42302600D01*
D18*
X205046428Y-42043886D02*
X205176316Y-42286890D01*
X205351116Y-42499884D01*
X205441857Y-42574353D01*
X205433816Y-42656000D01*
X205437000Y-42975000D01*
X205601500Y-43139500D01*
X206716000Y-43139500D01*
X206716000Y-43119500D01*
X206924000Y-43119500D01*
X206924000Y-43139500D01*
X208038500Y-43139500D01*
X208203000Y-42975000D01*
X208206184Y-42656000D01*
X208198143Y-42574353D01*
X208243787Y-42536894D01*
X208307785Y-42571102D01*
X208524561Y-42636860D01*
X208750000Y-42659064D01*
X209996666Y-42659064D01*
X211081320Y-43743719D01*
X211125161Y-43797139D01*
X211338338Y-43972090D01*
X211496833Y-44056807D01*
X211581550Y-44102090D01*
X211701576Y-44138499D01*
X211793255Y-44166309D01*
X211784816Y-44252000D01*
X211788000Y-44633500D01*
X211952500Y-44798000D01*
X213192000Y-44798000D01*
X213192000Y-44778000D01*
X213400000Y-44778000D01*
X213400000Y-44798000D01*
X214639500Y-44798000D01*
X214804000Y-44633500D01*
X214807184Y-44252000D01*
X214798834Y-44167223D01*
X215013549Y-44102090D01*
X215218229Y-43992686D01*
X215243146Y-44074824D01*
X215304246Y-44189134D01*
X215386472Y-44289328D01*
X215486666Y-44371554D01*
X215600976Y-44432654D01*
X215725009Y-44470280D01*
X215854000Y-44482984D01*
X215885500Y-44479800D01*
X216050000Y-44315300D01*
X216050000Y-44112686D01*
X216067816Y-44171418D01*
X216188463Y-44397132D01*
X216350827Y-44594973D01*
X216548668Y-44757337D01*
X216774382Y-44877984D01*
X216907036Y-44918224D01*
X217814436Y-45825624D01*
X217814436Y-45979829D01*
X214642078Y-45984740D01*
X214695754Y-45919334D01*
X214756854Y-45805024D01*
X214794480Y-45680991D01*
X214807184Y-45552000D01*
X214804000Y-45170500D01*
X214639500Y-45006000D01*
X213400000Y-45006000D01*
X213400000Y-45026000D01*
X213192000Y-45026000D01*
X213192000Y-45006000D01*
X211952500Y-45006000D01*
X211788000Y-45170500D01*
X211784816Y-45552000D01*
X211797520Y-45680991D01*
X211835146Y-45805024D01*
X211896246Y-45919334D01*
X211953338Y-45988902D01*
X202406500Y-46003680D01*
X202406500Y-45493725D01*
X208706853Y-45493725D01*
X208775173Y-45746894D01*
X209032635Y-45874164D01*
X209309980Y-45948760D01*
X209596547Y-45967815D01*
X209881327Y-45930598D01*
X210153374Y-45838538D01*
X210324827Y-45746894D01*
X210393147Y-45493725D01*
X209550000Y-44650578D01*
X208706853Y-45493725D01*
X202406500Y-45493725D01*
X202406500Y-43831000D01*
X205433816Y-43831000D01*
X205446520Y-43959991D01*
X205484146Y-44084024D01*
X205545246Y-44198334D01*
X205627472Y-44298528D01*
X205727666Y-44380754D01*
X205841976Y-44441854D01*
X205966009Y-44479480D01*
X206095000Y-44492184D01*
X206551500Y-44489000D01*
X206716000Y-44324500D01*
X206716000Y-43347500D01*
X206924000Y-43347500D01*
X206924000Y-44324500D01*
X207088500Y-44489000D01*
X207545000Y-44492184D01*
X207673991Y-44479480D01*
X207798024Y-44441854D01*
X207912334Y-44380754D01*
X208012528Y-44298528D01*
X208094754Y-44198334D01*
X208150124Y-44094744D01*
X208104740Y-44263480D01*
X208085685Y-44550047D01*
X208122902Y-44834827D01*
X208214962Y-45106874D01*
X208306606Y-45278327D01*
X208559775Y-45346647D01*
X209402922Y-44503500D01*
X209697078Y-44503500D01*
X210540225Y-45346647D01*
X210793394Y-45278327D01*
X210920664Y-45020865D01*
X210995260Y-44743520D01*
X211014315Y-44456953D01*
X210977098Y-44172173D01*
X210885038Y-43900126D01*
X210793394Y-43728673D01*
X210540225Y-43660353D01*
X209697078Y-44503500D01*
X209402922Y-44503500D01*
X208559775Y-43660353D01*
X208306606Y-43728673D01*
X208193784Y-43956908D01*
X208206184Y-43831000D01*
X208203013Y-43513275D01*
X208706853Y-43513275D01*
X209550000Y-44356422D01*
X210393147Y-43513275D01*
X210324827Y-43260106D01*
X210067365Y-43132836D01*
X209790020Y-43058240D01*
X209503453Y-43039185D01*
X209218673Y-43076402D01*
X208946626Y-43168462D01*
X208775173Y-43260106D01*
X208706853Y-43513275D01*
X208203013Y-43513275D01*
X208203000Y-43512000D01*
X208038500Y-43347500D01*
X206924000Y-43347500D01*
X206716000Y-43347500D01*
X205601500Y-43347500D01*
X205437000Y-43512000D01*
X205433816Y-43831000D01*
X202406500Y-43831000D01*
X202406500Y-42576596D01*
X202680622Y-42690141D01*
X203067017Y-42767000D01*
X203460983Y-42767000D01*
X203847378Y-42690141D01*
X204211355Y-42539377D01*
X204538926Y-42320501D01*
X204817501Y-42041926D01*
X204974540Y-41806901D01*
X205046428Y-42043886D01*
G04 #@! TA.AperFunction,Conductor*
D19*
G36*
X205046428Y-42043886D02*
G01*
X205176316Y-42286890D01*
X205351116Y-42499884D01*
X205441857Y-42574353D01*
X205433816Y-42656000D01*
X205437000Y-42975000D01*
X205601500Y-43139500D01*
X206716000Y-43139500D01*
X206716000Y-43119500D01*
X206924000Y-43119500D01*
X206924000Y-43139500D01*
X208038500Y-43139500D01*
X208203000Y-42975000D01*
X208206184Y-42656000D01*
X208198143Y-42574353D01*
X208243787Y-42536894D01*
X208307785Y-42571102D01*
X208524561Y-42636860D01*
X208750000Y-42659064D01*
X209996666Y-42659064D01*
X211081320Y-43743719D01*
X211125161Y-43797139D01*
X211338338Y-43972090D01*
X211496833Y-44056807D01*
X211581550Y-44102090D01*
X211701576Y-44138499D01*
X211793255Y-44166309D01*
X211784816Y-44252000D01*
X211788000Y-44633500D01*
X211952500Y-44798000D01*
X213192000Y-44798000D01*
X213192000Y-44778000D01*
X213400000Y-44778000D01*
X213400000Y-44798000D01*
X214639500Y-44798000D01*
X214804000Y-44633500D01*
X214807184Y-44252000D01*
X214798834Y-44167223D01*
X215013549Y-44102090D01*
X215218229Y-43992686D01*
X215243146Y-44074824D01*
X215304246Y-44189134D01*
X215386472Y-44289328D01*
X215486666Y-44371554D01*
X215600976Y-44432654D01*
X215725009Y-44470280D01*
X215854000Y-44482984D01*
X215885500Y-44479800D01*
X216050000Y-44315300D01*
X216050000Y-44112686D01*
X216067816Y-44171418D01*
X216188463Y-44397132D01*
X216350827Y-44594973D01*
X216548668Y-44757337D01*
X216774382Y-44877984D01*
X216907036Y-44918224D01*
X217814436Y-45825624D01*
X217814436Y-45979829D01*
X214642078Y-45984740D01*
X214695754Y-45919334D01*
X214756854Y-45805024D01*
X214794480Y-45680991D01*
X214807184Y-45552000D01*
X214804000Y-45170500D01*
X214639500Y-45006000D01*
X213400000Y-45006000D01*
X213400000Y-45026000D01*
X213192000Y-45026000D01*
X213192000Y-45006000D01*
X211952500Y-45006000D01*
X211788000Y-45170500D01*
X211784816Y-45552000D01*
X211797520Y-45680991D01*
X211835146Y-45805024D01*
X211896246Y-45919334D01*
X211953338Y-45988902D01*
X202406500Y-46003680D01*
X202406500Y-45493725D01*
X208706853Y-45493725D01*
X208775173Y-45746894D01*
X209032635Y-45874164D01*
X209309980Y-45948760D01*
X209596547Y-45967815D01*
X209881327Y-45930598D01*
X210153374Y-45838538D01*
X210324827Y-45746894D01*
X210393147Y-45493725D01*
X209550000Y-44650578D01*
X208706853Y-45493725D01*
X202406500Y-45493725D01*
X202406500Y-43831000D01*
X205433816Y-43831000D01*
X205446520Y-43959991D01*
X205484146Y-44084024D01*
X205545246Y-44198334D01*
X205627472Y-44298528D01*
X205727666Y-44380754D01*
X205841976Y-44441854D01*
X205966009Y-44479480D01*
X206095000Y-44492184D01*
X206551500Y-44489000D01*
X206716000Y-44324500D01*
X206716000Y-43347500D01*
X206924000Y-43347500D01*
X206924000Y-44324500D01*
X207088500Y-44489000D01*
X207545000Y-44492184D01*
X207673991Y-44479480D01*
X207798024Y-44441854D01*
X207912334Y-44380754D01*
X208012528Y-44298528D01*
X208094754Y-44198334D01*
X208150124Y-44094744D01*
X208104740Y-44263480D01*
X208085685Y-44550047D01*
X208122902Y-44834827D01*
X208214962Y-45106874D01*
X208306606Y-45278327D01*
X208559775Y-45346647D01*
X209402922Y-44503500D01*
X209697078Y-44503500D01*
X210540225Y-45346647D01*
X210793394Y-45278327D01*
X210920664Y-45020865D01*
X210995260Y-44743520D01*
X211014315Y-44456953D01*
X210977098Y-44172173D01*
X210885038Y-43900126D01*
X210793394Y-43728673D01*
X210540225Y-43660353D01*
X209697078Y-44503500D01*
X209402922Y-44503500D01*
X208559775Y-43660353D01*
X208306606Y-43728673D01*
X208193784Y-43956908D01*
X208206184Y-43831000D01*
X208203013Y-43513275D01*
X208706853Y-43513275D01*
X209550000Y-44356422D01*
X210393147Y-43513275D01*
X210324827Y-43260106D01*
X210067365Y-43132836D01*
X209790020Y-43058240D01*
X209503453Y-43039185D01*
X209218673Y-43076402D01*
X208946626Y-43168462D01*
X208775173Y-43260106D01*
X208706853Y-43513275D01*
X208203013Y-43513275D01*
X208203000Y-43512000D01*
X208038500Y-43347500D01*
X206924000Y-43347500D01*
X206716000Y-43347500D01*
X205601500Y-43347500D01*
X205437000Y-43512000D01*
X205433816Y-43831000D01*
X202406500Y-43831000D01*
X202406500Y-42576596D01*
X202680622Y-42690141D01*
X203067017Y-42767000D01*
X203460983Y-42767000D01*
X203847378Y-42690141D01*
X204211355Y-42539377D01*
X204538926Y-42320501D01*
X204817501Y-42041926D01*
X204974540Y-41806901D01*
X205046428Y-42043886D01*
G37*
G04 #@! TD.AperFunction*
D18*
X238122209Y-40468197D02*
X238164487Y-40519713D01*
X238370051Y-40688415D01*
X238604578Y-40813772D01*
X238859054Y-40890967D01*
X238988821Y-40903748D01*
X239199074Y-41114001D01*
X239526645Y-41332877D01*
X239890622Y-41483641D01*
X240277017Y-41560500D01*
X240670983Y-41560500D01*
X241057378Y-41483641D01*
X241124376Y-41455890D01*
X241087183Y-45943803D01*
X222878239Y-45971990D01*
X222878000Y-45937700D01*
X222713500Y-45773200D01*
X221736500Y-45773200D01*
X221736500Y-45793200D01*
X221528500Y-45793200D01*
X221528500Y-45773200D01*
X221508500Y-45773200D01*
X221508500Y-45565200D01*
X221528500Y-45565200D01*
X221528500Y-45545200D01*
X221736500Y-45545200D01*
X221736500Y-45565200D01*
X222713500Y-45565200D01*
X222878000Y-45400700D01*
X222880696Y-45014131D01*
X223029787Y-45059357D01*
X223303999Y-45086364D01*
X224004001Y-45086364D01*
X224278213Y-45059357D01*
X224541887Y-44979372D01*
X224654000Y-44919446D01*
X224766113Y-44979372D01*
X225029787Y-45059357D01*
X225303999Y-45086364D01*
X226004001Y-45086364D01*
X226278213Y-45059357D01*
X226541887Y-44979372D01*
X226784890Y-44849484D01*
X226997884Y-44674684D01*
X227172684Y-44461690D01*
X227302572Y-44218687D01*
X227382557Y-43955013D01*
X227409564Y-43680801D01*
X227409564Y-42780799D01*
X227397794Y-42661295D01*
X227559110Y-42793684D01*
X227802113Y-42923572D01*
X228065787Y-43003557D01*
X228339999Y-43030564D01*
X229240001Y-43030564D01*
X229514213Y-43003557D01*
X229777887Y-42923572D01*
X230020890Y-42793684D01*
X230233884Y-42618884D01*
X230408684Y-42405890D01*
X230538572Y-42162887D01*
X230581436Y-42021584D01*
X230581436Y-43535500D01*
X230603640Y-43760939D01*
X230669398Y-43977715D01*
X230776184Y-44177497D01*
X230919893Y-44352607D01*
X231095003Y-44496316D01*
X231294785Y-44603102D01*
X231511561Y-44668860D01*
X231737000Y-44691064D01*
X233337000Y-44691064D01*
X233562439Y-44668860D01*
X233779215Y-44603102D01*
X233978997Y-44496316D01*
X234154107Y-44352607D01*
X234297816Y-44177497D01*
X234404602Y-43977715D01*
X234470360Y-43760939D01*
X234473828Y-43725725D01*
X235493853Y-43725725D01*
X235562173Y-43978894D01*
X235819635Y-44106164D01*
X236096980Y-44180760D01*
X236383547Y-44199815D01*
X236668327Y-44162598D01*
X236940374Y-44070538D01*
X237111827Y-43978894D01*
X237180147Y-43725725D01*
X236337000Y-42882578D01*
X235493853Y-43725725D01*
X234473828Y-43725725D01*
X234492564Y-43535500D01*
X234492564Y-42782047D01*
X234872685Y-42782047D01*
X234909902Y-43066827D01*
X235001962Y-43338874D01*
X235093606Y-43510327D01*
X235346775Y-43578647D01*
X236189922Y-42735500D01*
X236484078Y-42735500D01*
X237327225Y-43578647D01*
X237580394Y-43510327D01*
X237707664Y-43252865D01*
X237782260Y-42975520D01*
X237801315Y-42688953D01*
X237764098Y-42404173D01*
X237672038Y-42132126D01*
X237580394Y-41960673D01*
X237327225Y-41892353D01*
X236484078Y-42735500D01*
X236189922Y-42735500D01*
X235346775Y-41892353D01*
X235093606Y-41960673D01*
X234966336Y-42218135D01*
X234891740Y-42495480D01*
X234872685Y-42782047D01*
X234492564Y-42782047D01*
X234492564Y-41935500D01*
X234473829Y-41745275D01*
X235493853Y-41745275D01*
X236337000Y-42588422D01*
X237180147Y-41745275D01*
X237111827Y-41492106D01*
X236854365Y-41364836D01*
X236577020Y-41290240D01*
X236508269Y-41285668D01*
X236519334Y-41279754D01*
X236619528Y-41197528D01*
X236701754Y-41097334D01*
X236762854Y-40983024D01*
X236800480Y-40858991D01*
X236813184Y-40730000D01*
X236810000Y-40273500D01*
X236645500Y-40109000D01*
X235668500Y-40109000D01*
X235668500Y-41223500D01*
X235817186Y-41372186D01*
X235733626Y-41400462D01*
X235562173Y-41492106D01*
X235493853Y-41745275D01*
X234473829Y-41745275D01*
X234471495Y-41721588D01*
X234607890Y-41648684D01*
X234820884Y-41473884D01*
X234895353Y-41383143D01*
X234977000Y-41391184D01*
X235296000Y-41388000D01*
X235460500Y-41223500D01*
X235460500Y-40109000D01*
X235440500Y-40109000D01*
X235440500Y-39921000D01*
X237575012Y-39921000D01*
X238122209Y-40468197D01*
G04 #@! TA.AperFunction,Conductor*
D19*
G36*
X238122209Y-40468197D02*
G01*
X238164487Y-40519713D01*
X238370051Y-40688415D01*
X238604578Y-40813772D01*
X238859054Y-40890967D01*
X238988821Y-40903748D01*
X239199074Y-41114001D01*
X239526645Y-41332877D01*
X239890622Y-41483641D01*
X240277017Y-41560500D01*
X240670983Y-41560500D01*
X241057378Y-41483641D01*
X241124376Y-41455890D01*
X241087183Y-45943803D01*
X222878239Y-45971990D01*
X222878000Y-45937700D01*
X222713500Y-45773200D01*
X221736500Y-45773200D01*
X221736500Y-45793200D01*
X221528500Y-45793200D01*
X221528500Y-45773200D01*
X221508500Y-45773200D01*
X221508500Y-45565200D01*
X221528500Y-45565200D01*
X221528500Y-45545200D01*
X221736500Y-45545200D01*
X221736500Y-45565200D01*
X222713500Y-45565200D01*
X222878000Y-45400700D01*
X222880696Y-45014131D01*
X223029787Y-45059357D01*
X223303999Y-45086364D01*
X224004001Y-45086364D01*
X224278213Y-45059357D01*
X224541887Y-44979372D01*
X224654000Y-44919446D01*
X224766113Y-44979372D01*
X225029787Y-45059357D01*
X225303999Y-45086364D01*
X226004001Y-45086364D01*
X226278213Y-45059357D01*
X226541887Y-44979372D01*
X226784890Y-44849484D01*
X226997884Y-44674684D01*
X227172684Y-44461690D01*
X227302572Y-44218687D01*
X227382557Y-43955013D01*
X227409564Y-43680801D01*
X227409564Y-42780799D01*
X227397794Y-42661295D01*
X227559110Y-42793684D01*
X227802113Y-42923572D01*
X228065787Y-43003557D01*
X228339999Y-43030564D01*
X229240001Y-43030564D01*
X229514213Y-43003557D01*
X229777887Y-42923572D01*
X230020890Y-42793684D01*
X230233884Y-42618884D01*
X230408684Y-42405890D01*
X230538572Y-42162887D01*
X230581436Y-42021584D01*
X230581436Y-43535500D01*
X230603640Y-43760939D01*
X230669398Y-43977715D01*
X230776184Y-44177497D01*
X230919893Y-44352607D01*
X231095003Y-44496316D01*
X231294785Y-44603102D01*
X231511561Y-44668860D01*
X231737000Y-44691064D01*
X233337000Y-44691064D01*
X233562439Y-44668860D01*
X233779215Y-44603102D01*
X233978997Y-44496316D01*
X234154107Y-44352607D01*
X234297816Y-44177497D01*
X234404602Y-43977715D01*
X234470360Y-43760939D01*
X234473828Y-43725725D01*
X235493853Y-43725725D01*
X235562173Y-43978894D01*
X235819635Y-44106164D01*
X236096980Y-44180760D01*
X236383547Y-44199815D01*
X236668327Y-44162598D01*
X236940374Y-44070538D01*
X237111827Y-43978894D01*
X237180147Y-43725725D01*
X236337000Y-42882578D01*
X235493853Y-43725725D01*
X234473828Y-43725725D01*
X234492564Y-43535500D01*
X234492564Y-42782047D01*
X234872685Y-42782047D01*
X234909902Y-43066827D01*
X235001962Y-43338874D01*
X235093606Y-43510327D01*
X235346775Y-43578647D01*
X236189922Y-42735500D01*
X236484078Y-42735500D01*
X237327225Y-43578647D01*
X237580394Y-43510327D01*
X237707664Y-43252865D01*
X237782260Y-42975520D01*
X237801315Y-42688953D01*
X237764098Y-42404173D01*
X237672038Y-42132126D01*
X237580394Y-41960673D01*
X237327225Y-41892353D01*
X236484078Y-42735500D01*
X236189922Y-42735500D01*
X235346775Y-41892353D01*
X235093606Y-41960673D01*
X234966336Y-42218135D01*
X234891740Y-42495480D01*
X234872685Y-42782047D01*
X234492564Y-42782047D01*
X234492564Y-41935500D01*
X234473829Y-41745275D01*
X235493853Y-41745275D01*
X236337000Y-42588422D01*
X237180147Y-41745275D01*
X237111827Y-41492106D01*
X236854365Y-41364836D01*
X236577020Y-41290240D01*
X236508269Y-41285668D01*
X236519334Y-41279754D01*
X236619528Y-41197528D01*
X236701754Y-41097334D01*
X236762854Y-40983024D01*
X236800480Y-40858991D01*
X236813184Y-40730000D01*
X236810000Y-40273500D01*
X236645500Y-40109000D01*
X235668500Y-40109000D01*
X235668500Y-41223500D01*
X235817186Y-41372186D01*
X235733626Y-41400462D01*
X235562173Y-41492106D01*
X235493853Y-41745275D01*
X234473829Y-41745275D01*
X234471495Y-41721588D01*
X234607890Y-41648684D01*
X234820884Y-41473884D01*
X234895353Y-41383143D01*
X234977000Y-41391184D01*
X235296000Y-41388000D01*
X235460500Y-41223500D01*
X235460500Y-40109000D01*
X235440500Y-40109000D01*
X235440500Y-39921000D01*
X237575012Y-39921000D01*
X238122209Y-40468197D01*
G37*
G04 #@! TD.AperFunction*
D18*
X225625000Y-40642400D02*
X225605000Y-40642400D01*
X225605000Y-40662400D01*
X225397000Y-40662400D01*
X225397000Y-40642400D01*
X225377000Y-40642400D01*
X225377000Y-40460500D01*
X225625000Y-40460500D01*
X225625000Y-40642400D01*
G04 #@! TA.AperFunction,Conductor*
D19*
G36*
X225625000Y-40642400D02*
G01*
X225605000Y-40642400D01*
X225605000Y-40662400D01*
X225397000Y-40662400D01*
X225397000Y-40642400D01*
X225377000Y-40642400D01*
X225377000Y-40460500D01*
X225625000Y-40460500D01*
X225625000Y-40642400D01*
G37*
G04 #@! TD.AperFunction*
D18*
X238122213Y-32848202D02*
X238164487Y-32899713D01*
X238215998Y-32941987D01*
X238216001Y-32941990D01*
X238370050Y-33068415D01*
X238481368Y-33127915D01*
X238532975Y-33155500D01*
X238556398Y-33232715D01*
X238663184Y-33432497D01*
X238806893Y-33607607D01*
X238982003Y-33751316D01*
X239123062Y-33826714D01*
X239064237Y-33945110D01*
X239004381Y-34142439D01*
X239134531Y-34376500D01*
X240370000Y-34376500D01*
X240370000Y-34356500D01*
X240578000Y-34356500D01*
X240578000Y-34376500D01*
X240598000Y-34376500D01*
X240598000Y-34584500D01*
X240578000Y-34584500D01*
X240578000Y-36916500D01*
X240598000Y-36916500D01*
X240598000Y-37124500D01*
X240578000Y-37124500D01*
X240578000Y-37144500D01*
X240370000Y-37144500D01*
X240370000Y-37124500D01*
X239134531Y-37124500D01*
X239004381Y-37358561D01*
X239064237Y-37555890D01*
X239091043Y-37609842D01*
X238887849Y-37443085D01*
X238653322Y-37317728D01*
X238398846Y-37240533D01*
X238200521Y-37221000D01*
X238200519Y-37221000D01*
X238134200Y-37214468D01*
X238067881Y-37221000D01*
X234891310Y-37221000D01*
X234824999Y-37214469D01*
X234758688Y-37221000D01*
X234758679Y-37221000D01*
X234560354Y-37240533D01*
X234305878Y-37317728D01*
X234196707Y-37376081D01*
X234071350Y-37443085D01*
X233917301Y-37569510D01*
X233917298Y-37569513D01*
X233865787Y-37611787D01*
X233823513Y-37663298D01*
X233362375Y-38124436D01*
X233152000Y-38124436D01*
X232877788Y-38151444D01*
X232614114Y-38231428D01*
X232371110Y-38361316D01*
X232158116Y-38536116D01*
X231983316Y-38749110D01*
X231905563Y-38894575D01*
X231378291Y-38367303D01*
X231336013Y-38315787D01*
X231130449Y-38147085D01*
X230895922Y-38021728D01*
X230641446Y-37944533D01*
X230443121Y-37925000D01*
X230443119Y-37925000D01*
X230376800Y-37918468D01*
X230310481Y-37925000D01*
X230226432Y-37925000D01*
X230020890Y-37756316D01*
X229777887Y-37626428D01*
X229514213Y-37546443D01*
X229240001Y-37519436D01*
X228339999Y-37519436D01*
X228065787Y-37546443D01*
X227802113Y-37626428D01*
X227559110Y-37756316D01*
X227346116Y-37931116D01*
X227326828Y-37954619D01*
X227144622Y-37857228D01*
X226890146Y-37780033D01*
X226691821Y-37760500D01*
X226691819Y-37760500D01*
X226625500Y-37753968D01*
X226559181Y-37760500D01*
X224763019Y-37760500D01*
X224696700Y-37753968D01*
X224630381Y-37760500D01*
X224630379Y-37760500D01*
X224432054Y-37780033D01*
X224177578Y-37857228D01*
X224164162Y-37864399D01*
X221865193Y-35565496D01*
X221865992Y-35564300D01*
X221982835Y-35282218D01*
X222042400Y-34982762D01*
X222042400Y-34677438D01*
X221994408Y-34436162D01*
X222033700Y-34440032D01*
X222100019Y-34433500D01*
X222100021Y-34433500D01*
X222298346Y-34413967D01*
X222552822Y-34336772D01*
X222598153Y-34312542D01*
X223991313Y-35705702D01*
X224033587Y-35757213D01*
X224085098Y-35799487D01*
X224085101Y-35799490D01*
X224239150Y-35925915D01*
X224273309Y-35944173D01*
X224473678Y-36051272D01*
X224728154Y-36128467D01*
X224926479Y-36148000D01*
X224926488Y-36148000D01*
X224992799Y-36154531D01*
X225059110Y-36148000D01*
X230831067Y-36148000D01*
X230908116Y-36241884D01*
X231121110Y-36416684D01*
X231364113Y-36546572D01*
X231627787Y-36626557D01*
X231901999Y-36653564D01*
X232602001Y-36653564D01*
X232876213Y-36626557D01*
X233139887Y-36546572D01*
X233252000Y-36486646D01*
X233364113Y-36546572D01*
X233627787Y-36626557D01*
X233901999Y-36653564D01*
X234602001Y-36653564D01*
X234876213Y-36626557D01*
X235139887Y-36546572D01*
X235382890Y-36416684D01*
X235595884Y-36241884D01*
X235770684Y-36028890D01*
X235900572Y-35785887D01*
X235980557Y-35522213D01*
X236007564Y-35248001D01*
X236007564Y-34818561D01*
X239004381Y-34818561D01*
X239064237Y-35015890D01*
X239195775Y-35280634D01*
X239376434Y-35514629D01*
X239599272Y-35708883D01*
X239671852Y-35750500D01*
X239599272Y-35792117D01*
X239376434Y-35986371D01*
X239195775Y-36220366D01*
X239064237Y-36485110D01*
X239004381Y-36682439D01*
X239134531Y-36916500D01*
X240370000Y-36916500D01*
X240370000Y-34584500D01*
X239134531Y-34584500D01*
X239004381Y-34818561D01*
X236007564Y-34818561D01*
X236007564Y-34347999D01*
X235980557Y-34073787D01*
X235900572Y-33810113D01*
X235770684Y-33567110D01*
X235602000Y-33361568D01*
X235602000Y-32473922D01*
X235666675Y-32352923D01*
X235684215Y-32347602D01*
X235883997Y-32240816D01*
X236059107Y-32097107D01*
X236202816Y-31921997D01*
X236251990Y-31830000D01*
X236856281Y-31830000D01*
X236922600Y-31836532D01*
X236988919Y-31830000D01*
X236988921Y-31830000D01*
X237093693Y-31819681D01*
X238122213Y-32848202D01*
G04 #@! TA.AperFunction,Conductor*
D19*
G36*
X238122213Y-32848202D02*
G01*
X238164487Y-32899713D01*
X238215998Y-32941987D01*
X238216001Y-32941990D01*
X238370050Y-33068415D01*
X238481368Y-33127915D01*
X238532975Y-33155500D01*
X238556398Y-33232715D01*
X238663184Y-33432497D01*
X238806893Y-33607607D01*
X238982003Y-33751316D01*
X239123062Y-33826714D01*
X239064237Y-33945110D01*
X239004381Y-34142439D01*
X239134531Y-34376500D01*
X240370000Y-34376500D01*
X240370000Y-34356500D01*
X240578000Y-34356500D01*
X240578000Y-34376500D01*
X240598000Y-34376500D01*
X240598000Y-34584500D01*
X240578000Y-34584500D01*
X240578000Y-36916500D01*
X240598000Y-36916500D01*
X240598000Y-37124500D01*
X240578000Y-37124500D01*
X240578000Y-37144500D01*
X240370000Y-37144500D01*
X240370000Y-37124500D01*
X239134531Y-37124500D01*
X239004381Y-37358561D01*
X239064237Y-37555890D01*
X239091043Y-37609842D01*
X238887849Y-37443085D01*
X238653322Y-37317728D01*
X238398846Y-37240533D01*
X238200521Y-37221000D01*
X238200519Y-37221000D01*
X238134200Y-37214468D01*
X238067881Y-37221000D01*
X234891310Y-37221000D01*
X234824999Y-37214469D01*
X234758688Y-37221000D01*
X234758679Y-37221000D01*
X234560354Y-37240533D01*
X234305878Y-37317728D01*
X234196707Y-37376081D01*
X234071350Y-37443085D01*
X233917301Y-37569510D01*
X233917298Y-37569513D01*
X233865787Y-37611787D01*
X233823513Y-37663298D01*
X233362375Y-38124436D01*
X233152000Y-38124436D01*
X232877788Y-38151444D01*
X232614114Y-38231428D01*
X232371110Y-38361316D01*
X232158116Y-38536116D01*
X231983316Y-38749110D01*
X231905563Y-38894575D01*
X231378291Y-38367303D01*
X231336013Y-38315787D01*
X231130449Y-38147085D01*
X230895922Y-38021728D01*
X230641446Y-37944533D01*
X230443121Y-37925000D01*
X230443119Y-37925000D01*
X230376800Y-37918468D01*
X230310481Y-37925000D01*
X230226432Y-37925000D01*
X230020890Y-37756316D01*
X229777887Y-37626428D01*
X229514213Y-37546443D01*
X229240001Y-37519436D01*
X228339999Y-37519436D01*
X228065787Y-37546443D01*
X227802113Y-37626428D01*
X227559110Y-37756316D01*
X227346116Y-37931116D01*
X227326828Y-37954619D01*
X227144622Y-37857228D01*
X226890146Y-37780033D01*
X226691821Y-37760500D01*
X226691819Y-37760500D01*
X226625500Y-37753968D01*
X226559181Y-37760500D01*
X224763019Y-37760500D01*
X224696700Y-37753968D01*
X224630381Y-37760500D01*
X224630379Y-37760500D01*
X224432054Y-37780033D01*
X224177578Y-37857228D01*
X224164162Y-37864399D01*
X221865193Y-35565496D01*
X221865992Y-35564300D01*
X221982835Y-35282218D01*
X222042400Y-34982762D01*
X222042400Y-34677438D01*
X221994408Y-34436162D01*
X222033700Y-34440032D01*
X222100019Y-34433500D01*
X222100021Y-34433500D01*
X222298346Y-34413967D01*
X222552822Y-34336772D01*
X222598153Y-34312542D01*
X223991313Y-35705702D01*
X224033587Y-35757213D01*
X224085098Y-35799487D01*
X224085101Y-35799490D01*
X224239150Y-35925915D01*
X224273309Y-35944173D01*
X224473678Y-36051272D01*
X224728154Y-36128467D01*
X224926479Y-36148000D01*
X224926488Y-36148000D01*
X224992799Y-36154531D01*
X225059110Y-36148000D01*
X230831067Y-36148000D01*
X230908116Y-36241884D01*
X231121110Y-36416684D01*
X231364113Y-36546572D01*
X231627787Y-36626557D01*
X231901999Y-36653564D01*
X232602001Y-36653564D01*
X232876213Y-36626557D01*
X233139887Y-36546572D01*
X233252000Y-36486646D01*
X233364113Y-36546572D01*
X233627787Y-36626557D01*
X233901999Y-36653564D01*
X234602001Y-36653564D01*
X234876213Y-36626557D01*
X235139887Y-36546572D01*
X235382890Y-36416684D01*
X235595884Y-36241884D01*
X235770684Y-36028890D01*
X235900572Y-35785887D01*
X235980557Y-35522213D01*
X236007564Y-35248001D01*
X236007564Y-34818561D01*
X239004381Y-34818561D01*
X239064237Y-35015890D01*
X239195775Y-35280634D01*
X239376434Y-35514629D01*
X239599272Y-35708883D01*
X239671852Y-35750500D01*
X239599272Y-35792117D01*
X239376434Y-35986371D01*
X239195775Y-36220366D01*
X239064237Y-36485110D01*
X239004381Y-36682439D01*
X239134531Y-36916500D01*
X240370000Y-36916500D01*
X240370000Y-34584500D01*
X239134531Y-34584500D01*
X239004381Y-34818561D01*
X236007564Y-34818561D01*
X236007564Y-34347999D01*
X235980557Y-34073787D01*
X235900572Y-33810113D01*
X235770684Y-33567110D01*
X235602000Y-33361568D01*
X235602000Y-32473922D01*
X235666675Y-32352923D01*
X235684215Y-32347602D01*
X235883997Y-32240816D01*
X236059107Y-32097107D01*
X236202816Y-31921997D01*
X236251990Y-31830000D01*
X236856281Y-31830000D01*
X236922600Y-31836532D01*
X236988919Y-31830000D01*
X236988921Y-31830000D01*
X237093693Y-31819681D01*
X238122213Y-32848202D01*
G37*
G04 #@! TD.AperFunction*
D18*
X233838626Y-25344962D02*
X233667173Y-25436606D01*
X233598853Y-25689775D01*
X234442000Y-26532922D01*
X235285147Y-25689775D01*
X235216827Y-25436606D01*
X234959365Y-25309336D01*
X234943244Y-25305000D01*
X241258222Y-25305000D01*
X241219853Y-29934936D01*
X239624000Y-29934936D01*
X239398561Y-29957140D01*
X239243564Y-30004158D01*
X239243564Y-29402000D01*
X239216556Y-29127788D01*
X239136572Y-28864114D01*
X239006684Y-28621110D01*
X238831884Y-28408116D01*
X238741143Y-28333647D01*
X238749184Y-28252000D01*
X238746000Y-27933000D01*
X238581500Y-27768500D01*
X237467000Y-27768500D01*
X237467000Y-27788500D01*
X237259000Y-27788500D01*
X237259000Y-27768500D01*
X236144500Y-27768500D01*
X235980000Y-27933000D01*
X235976816Y-28252000D01*
X235984857Y-28333647D01*
X235894116Y-28408116D01*
X235719316Y-28621110D01*
X235715138Y-28628927D01*
X235684215Y-28612398D01*
X235467439Y-28546640D01*
X235242000Y-28524436D01*
X233642000Y-28524436D01*
X233416561Y-28546640D01*
X233199785Y-28612398D01*
X233000003Y-28719184D01*
X232824893Y-28862893D01*
X232681184Y-29038003D01*
X232574398Y-29237785D01*
X232508640Y-29454561D01*
X232486436Y-29680000D01*
X232486436Y-31280000D01*
X232508640Y-31505439D01*
X232574398Y-31722215D01*
X232681184Y-31921997D01*
X232824893Y-32097107D01*
X232902001Y-32160388D01*
X232902001Y-32977266D01*
X232876213Y-32969443D01*
X232602001Y-32942436D01*
X231901999Y-32942436D01*
X231627787Y-32969443D01*
X231364113Y-33049428D01*
X231121110Y-33179316D01*
X230908116Y-33354116D01*
X230831067Y-33448000D01*
X230338869Y-33448000D01*
X230343884Y-33443884D01*
X230518684Y-33230890D01*
X230648572Y-32987887D01*
X230728557Y-32724213D01*
X230755564Y-32450001D01*
X230755564Y-31549999D01*
X230728557Y-31275787D01*
X230648572Y-31012113D01*
X230518684Y-30769110D01*
X230343884Y-30556116D01*
X230130890Y-30381316D01*
X229887887Y-30251428D01*
X229624213Y-30171443D01*
X229350001Y-30144436D01*
X228649999Y-30144436D01*
X228375787Y-30171443D01*
X228350000Y-30179265D01*
X228350000Y-29521688D01*
X228991125Y-28880564D01*
X229300000Y-28880564D01*
X229574212Y-28853556D01*
X229837886Y-28773572D01*
X230080890Y-28643684D01*
X230293884Y-28468884D01*
X230368353Y-28378143D01*
X230450000Y-28386184D01*
X230769000Y-28383000D01*
X230933500Y-28218500D01*
X230933500Y-27104000D01*
X231141500Y-27104000D01*
X231141500Y-28218500D01*
X231306000Y-28383000D01*
X231625000Y-28386184D01*
X231753991Y-28373480D01*
X231878024Y-28335854D01*
X231992334Y-28274754D01*
X232092528Y-28192528D01*
X232174754Y-28092334D01*
X232235854Y-27978024D01*
X232273480Y-27853991D01*
X232286184Y-27725000D01*
X232285802Y-27670225D01*
X233598853Y-27670225D01*
X233667173Y-27923394D01*
X233924635Y-28050664D01*
X234201980Y-28125260D01*
X234488547Y-28144315D01*
X234773327Y-28107098D01*
X235045374Y-28015038D01*
X235216827Y-27923394D01*
X235285147Y-27670225D01*
X234442000Y-26827078D01*
X233598853Y-27670225D01*
X232285802Y-27670225D01*
X232283000Y-27268500D01*
X232118500Y-27104000D01*
X231141500Y-27104000D01*
X230933500Y-27104000D01*
X230913500Y-27104000D01*
X230913500Y-26896000D01*
X230933500Y-26896000D01*
X230933500Y-25781500D01*
X231141500Y-25781500D01*
X231141500Y-26896000D01*
X232118500Y-26896000D01*
X232283000Y-26731500D01*
X232283034Y-26726547D01*
X232977685Y-26726547D01*
X233014902Y-27011327D01*
X233106962Y-27283374D01*
X233198606Y-27454827D01*
X233451775Y-27523147D01*
X234294922Y-26680000D01*
X234589078Y-26680000D01*
X235432225Y-27523147D01*
X235685394Y-27454827D01*
X235812664Y-27197365D01*
X235845037Y-27077000D01*
X235976816Y-27077000D01*
X235980000Y-27396000D01*
X236144500Y-27560500D01*
X237259000Y-27560500D01*
X237259000Y-26583500D01*
X237467000Y-26583500D01*
X237467000Y-27560500D01*
X238581500Y-27560500D01*
X238746000Y-27396000D01*
X238749184Y-27077000D01*
X238736480Y-26948009D01*
X238698854Y-26823976D01*
X238637754Y-26709666D01*
X238555528Y-26609472D01*
X238455334Y-26527246D01*
X238341024Y-26466146D01*
X238216991Y-26428520D01*
X238088000Y-26415816D01*
X237631500Y-26419000D01*
X237467000Y-26583500D01*
X237259000Y-26583500D01*
X237094500Y-26419000D01*
X236638000Y-26415816D01*
X236509009Y-26428520D01*
X236384976Y-26466146D01*
X236270666Y-26527246D01*
X236170472Y-26609472D01*
X236088246Y-26709666D01*
X236027146Y-26823976D01*
X235989520Y-26948009D01*
X235976816Y-27077000D01*
X235845037Y-27077000D01*
X235887260Y-26920020D01*
X235906315Y-26633453D01*
X235869098Y-26348673D01*
X235777038Y-26076626D01*
X235685394Y-25905173D01*
X235432225Y-25836853D01*
X234589078Y-26680000D01*
X234294922Y-26680000D01*
X233451775Y-25836853D01*
X233198606Y-25905173D01*
X233071336Y-26162635D01*
X232996740Y-26439980D01*
X232977685Y-26726547D01*
X232283034Y-26726547D01*
X232286184Y-26275000D01*
X232273480Y-26146009D01*
X232235854Y-26021976D01*
X232174754Y-25907666D01*
X232092528Y-25807472D01*
X231992334Y-25725246D01*
X231878024Y-25664146D01*
X231753991Y-25626520D01*
X231625000Y-25613816D01*
X231306000Y-25617000D01*
X231141500Y-25781500D01*
X230933500Y-25781500D01*
X230769000Y-25617000D01*
X230450000Y-25613816D01*
X230368353Y-25621857D01*
X230293884Y-25531116D01*
X230080890Y-25356316D01*
X229984884Y-25305000D01*
X233956718Y-25305000D01*
X233838626Y-25344962D01*
G04 #@! TA.AperFunction,Conductor*
D19*
G36*
X233838626Y-25344962D02*
G01*
X233667173Y-25436606D01*
X233598853Y-25689775D01*
X234442000Y-26532922D01*
X235285147Y-25689775D01*
X235216827Y-25436606D01*
X234959365Y-25309336D01*
X234943244Y-25305000D01*
X241258222Y-25305000D01*
X241219853Y-29934936D01*
X239624000Y-29934936D01*
X239398561Y-29957140D01*
X239243564Y-30004158D01*
X239243564Y-29402000D01*
X239216556Y-29127788D01*
X239136572Y-28864114D01*
X239006684Y-28621110D01*
X238831884Y-28408116D01*
X238741143Y-28333647D01*
X238749184Y-28252000D01*
X238746000Y-27933000D01*
X238581500Y-27768500D01*
X237467000Y-27768500D01*
X237467000Y-27788500D01*
X237259000Y-27788500D01*
X237259000Y-27768500D01*
X236144500Y-27768500D01*
X235980000Y-27933000D01*
X235976816Y-28252000D01*
X235984857Y-28333647D01*
X235894116Y-28408116D01*
X235719316Y-28621110D01*
X235715138Y-28628927D01*
X235684215Y-28612398D01*
X235467439Y-28546640D01*
X235242000Y-28524436D01*
X233642000Y-28524436D01*
X233416561Y-28546640D01*
X233199785Y-28612398D01*
X233000003Y-28719184D01*
X232824893Y-28862893D01*
X232681184Y-29038003D01*
X232574398Y-29237785D01*
X232508640Y-29454561D01*
X232486436Y-29680000D01*
X232486436Y-31280000D01*
X232508640Y-31505439D01*
X232574398Y-31722215D01*
X232681184Y-31921997D01*
X232824893Y-32097107D01*
X232902001Y-32160388D01*
X232902001Y-32977266D01*
X232876213Y-32969443D01*
X232602001Y-32942436D01*
X231901999Y-32942436D01*
X231627787Y-32969443D01*
X231364113Y-33049428D01*
X231121110Y-33179316D01*
X230908116Y-33354116D01*
X230831067Y-33448000D01*
X230338869Y-33448000D01*
X230343884Y-33443884D01*
X230518684Y-33230890D01*
X230648572Y-32987887D01*
X230728557Y-32724213D01*
X230755564Y-32450001D01*
X230755564Y-31549999D01*
X230728557Y-31275787D01*
X230648572Y-31012113D01*
X230518684Y-30769110D01*
X230343884Y-30556116D01*
X230130890Y-30381316D01*
X229887887Y-30251428D01*
X229624213Y-30171443D01*
X229350001Y-30144436D01*
X228649999Y-30144436D01*
X228375787Y-30171443D01*
X228350000Y-30179265D01*
X228350000Y-29521688D01*
X228991125Y-28880564D01*
X229300000Y-28880564D01*
X229574212Y-28853556D01*
X229837886Y-28773572D01*
X230080890Y-28643684D01*
X230293884Y-28468884D01*
X230368353Y-28378143D01*
X230450000Y-28386184D01*
X230769000Y-28383000D01*
X230933500Y-28218500D01*
X230933500Y-27104000D01*
X231141500Y-27104000D01*
X231141500Y-28218500D01*
X231306000Y-28383000D01*
X231625000Y-28386184D01*
X231753991Y-28373480D01*
X231878024Y-28335854D01*
X231992334Y-28274754D01*
X232092528Y-28192528D01*
X232174754Y-28092334D01*
X232235854Y-27978024D01*
X232273480Y-27853991D01*
X232286184Y-27725000D01*
X232285802Y-27670225D01*
X233598853Y-27670225D01*
X233667173Y-27923394D01*
X233924635Y-28050664D01*
X234201980Y-28125260D01*
X234488547Y-28144315D01*
X234773327Y-28107098D01*
X235045374Y-28015038D01*
X235216827Y-27923394D01*
X235285147Y-27670225D01*
X234442000Y-26827078D01*
X233598853Y-27670225D01*
X232285802Y-27670225D01*
X232283000Y-27268500D01*
X232118500Y-27104000D01*
X231141500Y-27104000D01*
X230933500Y-27104000D01*
X230913500Y-27104000D01*
X230913500Y-26896000D01*
X230933500Y-26896000D01*
X230933500Y-25781500D01*
X231141500Y-25781500D01*
X231141500Y-26896000D01*
X232118500Y-26896000D01*
X232283000Y-26731500D01*
X232283034Y-26726547D01*
X232977685Y-26726547D01*
X233014902Y-27011327D01*
X233106962Y-27283374D01*
X233198606Y-27454827D01*
X233451775Y-27523147D01*
X234294922Y-26680000D01*
X234589078Y-26680000D01*
X235432225Y-27523147D01*
X235685394Y-27454827D01*
X235812664Y-27197365D01*
X235845037Y-27077000D01*
X235976816Y-27077000D01*
X235980000Y-27396000D01*
X236144500Y-27560500D01*
X237259000Y-27560500D01*
X237259000Y-26583500D01*
X237467000Y-26583500D01*
X237467000Y-27560500D01*
X238581500Y-27560500D01*
X238746000Y-27396000D01*
X238749184Y-27077000D01*
X238736480Y-26948009D01*
X238698854Y-26823976D01*
X238637754Y-26709666D01*
X238555528Y-26609472D01*
X238455334Y-26527246D01*
X238341024Y-26466146D01*
X238216991Y-26428520D01*
X238088000Y-26415816D01*
X237631500Y-26419000D01*
X237467000Y-26583500D01*
X237259000Y-26583500D01*
X237094500Y-26419000D01*
X236638000Y-26415816D01*
X236509009Y-26428520D01*
X236384976Y-26466146D01*
X236270666Y-26527246D01*
X236170472Y-26609472D01*
X236088246Y-26709666D01*
X236027146Y-26823976D01*
X235989520Y-26948009D01*
X235976816Y-27077000D01*
X235845037Y-27077000D01*
X235887260Y-26920020D01*
X235906315Y-26633453D01*
X235869098Y-26348673D01*
X235777038Y-26076626D01*
X235685394Y-25905173D01*
X235432225Y-25836853D01*
X234589078Y-26680000D01*
X234294922Y-26680000D01*
X233451775Y-25836853D01*
X233198606Y-25905173D01*
X233071336Y-26162635D01*
X232996740Y-26439980D01*
X232977685Y-26726547D01*
X232283034Y-26726547D01*
X232286184Y-26275000D01*
X232273480Y-26146009D01*
X232235854Y-26021976D01*
X232174754Y-25907666D01*
X232092528Y-25807472D01*
X231992334Y-25725246D01*
X231878024Y-25664146D01*
X231753991Y-25626520D01*
X231625000Y-25613816D01*
X231306000Y-25617000D01*
X231141500Y-25781500D01*
X230933500Y-25781500D01*
X230769000Y-25617000D01*
X230450000Y-25613816D01*
X230368353Y-25621857D01*
X230293884Y-25531116D01*
X230080890Y-25356316D01*
X229984884Y-25305000D01*
X233956718Y-25305000D01*
X233838626Y-25344962D01*
G37*
G04 #@! TD.AperFunction*
D18*
X208946626Y-25344962D02*
X208775173Y-25436606D01*
X208706853Y-25689775D01*
X209550000Y-26532922D01*
X210393147Y-25689775D01*
X210324827Y-25436606D01*
X210067365Y-25309336D01*
X210051244Y-25305000D01*
X211341801Y-25305000D01*
X211344000Y-25568500D01*
X211508500Y-25733000D01*
X212748000Y-25733000D01*
X212748000Y-25713000D01*
X212956000Y-25713000D01*
X212956000Y-25733000D01*
X214195500Y-25733000D01*
X214360000Y-25568500D01*
X214362199Y-25305000D01*
X220916343Y-25305000D01*
X220914816Y-25320500D01*
X220918000Y-25639500D01*
X221082500Y-25804000D01*
X222197000Y-25804000D01*
X222197000Y-25784000D01*
X222405000Y-25784000D01*
X222405000Y-25804000D01*
X223519500Y-25804000D01*
X223684000Y-25639500D01*
X223687184Y-25320500D01*
X223685657Y-25305000D01*
X227940116Y-25305000D01*
X227844110Y-25356316D01*
X227631116Y-25531116D01*
X227456316Y-25744110D01*
X227326428Y-25987114D01*
X227246444Y-26250788D01*
X227219436Y-26525000D01*
X227219436Y-26833875D01*
X226092299Y-27961013D01*
X226040787Y-28003288D01*
X225998513Y-28054799D01*
X225998510Y-28054802D01*
X225872085Y-28208851D01*
X225812408Y-28320500D01*
X225746728Y-28443379D01*
X225669533Y-28697855D01*
X225653158Y-28864114D01*
X225643468Y-28962500D01*
X225650000Y-29028819D01*
X225650000Y-29198498D01*
X225446700Y-29282708D01*
X225263403Y-29405182D01*
X225297600Y-29233262D01*
X225297600Y-28927938D01*
X225238035Y-28628482D01*
X225121192Y-28346400D01*
X224951564Y-28092532D01*
X224735668Y-27876636D01*
X224481800Y-27707008D01*
X224199718Y-27590165D01*
X224175642Y-27585376D01*
X224154556Y-27371288D01*
X224074572Y-27107614D01*
X223944684Y-26864610D01*
X223769884Y-26651616D01*
X223679143Y-26577147D01*
X223687184Y-26495500D01*
X223684000Y-26176500D01*
X223519500Y-26012000D01*
X222405000Y-26012000D01*
X222405000Y-26032000D01*
X222197000Y-26032000D01*
X222197000Y-26012000D01*
X221082500Y-26012000D01*
X220918000Y-26176500D01*
X220914816Y-26495500D01*
X220922857Y-26577147D01*
X220832116Y-26651616D01*
X220660159Y-26861146D01*
X220622754Y-26791166D01*
X220540528Y-26690972D01*
X220440334Y-26608746D01*
X220326024Y-26547646D01*
X220201991Y-26510020D01*
X220073000Y-26497316D01*
X220041500Y-26500500D01*
X219877000Y-26665000D01*
X219877000Y-26867614D01*
X219859184Y-26808882D01*
X219738537Y-26583168D01*
X219576173Y-26385327D01*
X219378332Y-26222963D01*
X219152618Y-26102316D01*
X218907703Y-26028022D01*
X218653000Y-26002936D01*
X218353000Y-26002936D01*
X218098297Y-26028022D01*
X217868000Y-26097882D01*
X217637703Y-26028022D01*
X217383000Y-26002936D01*
X217083000Y-26002936D01*
X216828297Y-26028022D01*
X216598000Y-26097882D01*
X216367703Y-26028022D01*
X216113000Y-26002936D01*
X215813000Y-26002936D01*
X215558297Y-26028022D01*
X215313382Y-26102316D01*
X215087668Y-26222963D01*
X214889827Y-26385327D01*
X214727463Y-26583168D01*
X214606816Y-26808882D01*
X214532522Y-27053797D01*
X214507436Y-27308500D01*
X214507436Y-27860315D01*
X214343997Y-27726184D01*
X214144215Y-27619398D01*
X213927439Y-27553640D01*
X213702000Y-27531436D01*
X212002000Y-27531436D01*
X211776561Y-27553640D01*
X211559785Y-27619398D01*
X211471015Y-27666847D01*
X211407346Y-27647533D01*
X211209021Y-27628000D01*
X211209019Y-27628000D01*
X211142700Y-27621468D01*
X211076381Y-27628000D01*
X210645081Y-27628000D01*
X210540227Y-27523146D01*
X210793394Y-27454827D01*
X210920664Y-27197365D01*
X210995260Y-26920020D01*
X211014315Y-26633453D01*
X210995176Y-26487000D01*
X211340816Y-26487000D01*
X211353520Y-26615991D01*
X211391146Y-26740024D01*
X211452246Y-26854334D01*
X211534472Y-26954528D01*
X211634666Y-27036754D01*
X211748976Y-27097854D01*
X211873009Y-27135480D01*
X212002000Y-27148184D01*
X212583500Y-27145000D01*
X212748000Y-26980500D01*
X212748000Y-25941000D01*
X212956000Y-25941000D01*
X212956000Y-26980500D01*
X213120500Y-27145000D01*
X213702000Y-27148184D01*
X213830991Y-27135480D01*
X213955024Y-27097854D01*
X214069334Y-27036754D01*
X214169528Y-26954528D01*
X214251754Y-26854334D01*
X214312854Y-26740024D01*
X214350480Y-26615991D01*
X214363184Y-26487000D01*
X214360000Y-26105500D01*
X214195500Y-25941000D01*
X212956000Y-25941000D01*
X212748000Y-25941000D01*
X211508500Y-25941000D01*
X211344000Y-26105500D01*
X211340816Y-26487000D01*
X210995176Y-26487000D01*
X210977098Y-26348673D01*
X210885038Y-26076626D01*
X210793394Y-25905173D01*
X210540225Y-25836853D01*
X209697078Y-26680000D01*
X209711221Y-26694143D01*
X209564143Y-26841221D01*
X209550000Y-26827078D01*
X209535858Y-26841221D01*
X209388780Y-26694143D01*
X209402922Y-26680000D01*
X208559775Y-25836853D01*
X208306606Y-25905173D01*
X208179336Y-26162635D01*
X208104740Y-26439980D01*
X208085685Y-26726547D01*
X208122902Y-27011327D01*
X208214962Y-27283374D01*
X208306606Y-27454827D01*
X208559773Y-27523146D01*
X208455259Y-27627660D01*
X208392399Y-27621469D01*
X208326088Y-27628000D01*
X208326079Y-27628000D01*
X208127754Y-27647533D01*
X207873278Y-27724728D01*
X207638751Y-27850085D01*
X207433187Y-28018787D01*
X207390909Y-28070303D01*
X206990799Y-28470413D01*
X206939288Y-28512687D01*
X206897014Y-28564198D01*
X206897010Y-28564202D01*
X206770585Y-28718251D01*
X206645229Y-28952778D01*
X206568034Y-29207254D01*
X206541968Y-29471900D01*
X206548501Y-29538229D01*
X206548500Y-32872096D01*
X206323500Y-32849936D01*
X205823500Y-32849936D01*
X205551727Y-32876703D01*
X205290397Y-32955977D01*
X205264000Y-32970087D01*
X205264000Y-32950017D01*
X205187141Y-32563622D01*
X205036377Y-32199645D01*
X204817501Y-31872074D01*
X204700679Y-31755252D01*
X204724854Y-31710024D01*
X204762480Y-31585991D01*
X204775184Y-31457000D01*
X204772000Y-30875500D01*
X204607500Y-30711000D01*
X203368000Y-30711000D01*
X203368000Y-30731000D01*
X203160000Y-30731000D01*
X203160000Y-30711000D01*
X203140000Y-30711000D01*
X203140000Y-30503000D01*
X203160000Y-30503000D01*
X203160000Y-29263500D01*
X203368000Y-29263500D01*
X203368000Y-30503000D01*
X204607500Y-30503000D01*
X204772000Y-30338500D01*
X204775184Y-29757000D01*
X204762480Y-29628009D01*
X204724854Y-29503976D01*
X204663754Y-29389666D01*
X204581528Y-29289472D01*
X204481334Y-29207246D01*
X204367024Y-29146146D01*
X204242991Y-29108520D01*
X204114000Y-29095816D01*
X203532500Y-29099000D01*
X203368000Y-29263500D01*
X203160000Y-29263500D01*
X202995500Y-29099000D01*
X202414000Y-29095816D01*
X202406500Y-29096555D01*
X202406500Y-25305000D01*
X209064718Y-25305000D01*
X208946626Y-25344962D01*
G04 #@! TA.AperFunction,Conductor*
D19*
G36*
X208946626Y-25344962D02*
G01*
X208775173Y-25436606D01*
X208706853Y-25689775D01*
X209550000Y-26532922D01*
X210393147Y-25689775D01*
X210324827Y-25436606D01*
X210067365Y-25309336D01*
X210051244Y-25305000D01*
X211341801Y-25305000D01*
X211344000Y-25568500D01*
X211508500Y-25733000D01*
X212748000Y-25733000D01*
X212748000Y-25713000D01*
X212956000Y-25713000D01*
X212956000Y-25733000D01*
X214195500Y-25733000D01*
X214360000Y-25568500D01*
X214362199Y-25305000D01*
X220916343Y-25305000D01*
X220914816Y-25320500D01*
X220918000Y-25639500D01*
X221082500Y-25804000D01*
X222197000Y-25804000D01*
X222197000Y-25784000D01*
X222405000Y-25784000D01*
X222405000Y-25804000D01*
X223519500Y-25804000D01*
X223684000Y-25639500D01*
X223687184Y-25320500D01*
X223685657Y-25305000D01*
X227940116Y-25305000D01*
X227844110Y-25356316D01*
X227631116Y-25531116D01*
X227456316Y-25744110D01*
X227326428Y-25987114D01*
X227246444Y-26250788D01*
X227219436Y-26525000D01*
X227219436Y-26833875D01*
X226092299Y-27961013D01*
X226040787Y-28003288D01*
X225998513Y-28054799D01*
X225998510Y-28054802D01*
X225872085Y-28208851D01*
X225812408Y-28320500D01*
X225746728Y-28443379D01*
X225669533Y-28697855D01*
X225653158Y-28864114D01*
X225643468Y-28962500D01*
X225650000Y-29028819D01*
X225650000Y-29198498D01*
X225446700Y-29282708D01*
X225263403Y-29405182D01*
X225297600Y-29233262D01*
X225297600Y-28927938D01*
X225238035Y-28628482D01*
X225121192Y-28346400D01*
X224951564Y-28092532D01*
X224735668Y-27876636D01*
X224481800Y-27707008D01*
X224199718Y-27590165D01*
X224175642Y-27585376D01*
X224154556Y-27371288D01*
X224074572Y-27107614D01*
X223944684Y-26864610D01*
X223769884Y-26651616D01*
X223679143Y-26577147D01*
X223687184Y-26495500D01*
X223684000Y-26176500D01*
X223519500Y-26012000D01*
X222405000Y-26012000D01*
X222405000Y-26032000D01*
X222197000Y-26032000D01*
X222197000Y-26012000D01*
X221082500Y-26012000D01*
X220918000Y-26176500D01*
X220914816Y-26495500D01*
X220922857Y-26577147D01*
X220832116Y-26651616D01*
X220660159Y-26861146D01*
X220622754Y-26791166D01*
X220540528Y-26690972D01*
X220440334Y-26608746D01*
X220326024Y-26547646D01*
X220201991Y-26510020D01*
X220073000Y-26497316D01*
X220041500Y-26500500D01*
X219877000Y-26665000D01*
X219877000Y-26867614D01*
X219859184Y-26808882D01*
X219738537Y-26583168D01*
X219576173Y-26385327D01*
X219378332Y-26222963D01*
X219152618Y-26102316D01*
X218907703Y-26028022D01*
X218653000Y-26002936D01*
X218353000Y-26002936D01*
X218098297Y-26028022D01*
X217868000Y-26097882D01*
X217637703Y-26028022D01*
X217383000Y-26002936D01*
X217083000Y-26002936D01*
X216828297Y-26028022D01*
X216598000Y-26097882D01*
X216367703Y-26028022D01*
X216113000Y-26002936D01*
X215813000Y-26002936D01*
X215558297Y-26028022D01*
X215313382Y-26102316D01*
X215087668Y-26222963D01*
X214889827Y-26385327D01*
X214727463Y-26583168D01*
X214606816Y-26808882D01*
X214532522Y-27053797D01*
X214507436Y-27308500D01*
X214507436Y-27860315D01*
X214343997Y-27726184D01*
X214144215Y-27619398D01*
X213927439Y-27553640D01*
X213702000Y-27531436D01*
X212002000Y-27531436D01*
X211776561Y-27553640D01*
X211559785Y-27619398D01*
X211471015Y-27666847D01*
X211407346Y-27647533D01*
X211209021Y-27628000D01*
X211209019Y-27628000D01*
X211142700Y-27621468D01*
X211076381Y-27628000D01*
X210645081Y-27628000D01*
X210540227Y-27523146D01*
X210793394Y-27454827D01*
X210920664Y-27197365D01*
X210995260Y-26920020D01*
X211014315Y-26633453D01*
X210995176Y-26487000D01*
X211340816Y-26487000D01*
X211353520Y-26615991D01*
X211391146Y-26740024D01*
X211452246Y-26854334D01*
X211534472Y-26954528D01*
X211634666Y-27036754D01*
X211748976Y-27097854D01*
X211873009Y-27135480D01*
X212002000Y-27148184D01*
X212583500Y-27145000D01*
X212748000Y-26980500D01*
X212748000Y-25941000D01*
X212956000Y-25941000D01*
X212956000Y-26980500D01*
X213120500Y-27145000D01*
X213702000Y-27148184D01*
X213830991Y-27135480D01*
X213955024Y-27097854D01*
X214069334Y-27036754D01*
X214169528Y-26954528D01*
X214251754Y-26854334D01*
X214312854Y-26740024D01*
X214350480Y-26615991D01*
X214363184Y-26487000D01*
X214360000Y-26105500D01*
X214195500Y-25941000D01*
X212956000Y-25941000D01*
X212748000Y-25941000D01*
X211508500Y-25941000D01*
X211344000Y-26105500D01*
X211340816Y-26487000D01*
X210995176Y-26487000D01*
X210977098Y-26348673D01*
X210885038Y-26076626D01*
X210793394Y-25905173D01*
X210540225Y-25836853D01*
X209697078Y-26680000D01*
X209711221Y-26694143D01*
X209564143Y-26841221D01*
X209550000Y-26827078D01*
X209535858Y-26841221D01*
X209388780Y-26694143D01*
X209402922Y-26680000D01*
X208559775Y-25836853D01*
X208306606Y-25905173D01*
X208179336Y-26162635D01*
X208104740Y-26439980D01*
X208085685Y-26726547D01*
X208122902Y-27011327D01*
X208214962Y-27283374D01*
X208306606Y-27454827D01*
X208559773Y-27523146D01*
X208455259Y-27627660D01*
X208392399Y-27621469D01*
X208326088Y-27628000D01*
X208326079Y-27628000D01*
X208127754Y-27647533D01*
X207873278Y-27724728D01*
X207638751Y-27850085D01*
X207433187Y-28018787D01*
X207390909Y-28070303D01*
X206990799Y-28470413D01*
X206939288Y-28512687D01*
X206897014Y-28564198D01*
X206897010Y-28564202D01*
X206770585Y-28718251D01*
X206645229Y-28952778D01*
X206568034Y-29207254D01*
X206541968Y-29471900D01*
X206548501Y-29538229D01*
X206548500Y-32872096D01*
X206323500Y-32849936D01*
X205823500Y-32849936D01*
X205551727Y-32876703D01*
X205290397Y-32955977D01*
X205264000Y-32970087D01*
X205264000Y-32950017D01*
X205187141Y-32563622D01*
X205036377Y-32199645D01*
X204817501Y-31872074D01*
X204700679Y-31755252D01*
X204724854Y-31710024D01*
X204762480Y-31585991D01*
X204775184Y-31457000D01*
X204772000Y-30875500D01*
X204607500Y-30711000D01*
X203368000Y-30711000D01*
X203368000Y-30731000D01*
X203160000Y-30731000D01*
X203160000Y-30711000D01*
X203140000Y-30711000D01*
X203140000Y-30503000D01*
X203160000Y-30503000D01*
X203160000Y-29263500D01*
X203368000Y-29263500D01*
X203368000Y-30503000D01*
X204607500Y-30503000D01*
X204772000Y-30338500D01*
X204775184Y-29757000D01*
X204762480Y-29628009D01*
X204724854Y-29503976D01*
X204663754Y-29389666D01*
X204581528Y-29289472D01*
X204481334Y-29207246D01*
X204367024Y-29146146D01*
X204242991Y-29108520D01*
X204114000Y-29095816D01*
X203532500Y-29099000D01*
X203368000Y-29263500D01*
X203160000Y-29263500D01*
X202995500Y-29099000D01*
X202414000Y-29095816D01*
X202406500Y-29096555D01*
X202406500Y-25305000D01*
X209064718Y-25305000D01*
X208946626Y-25344962D01*
G37*
G04 #@! TD.AperFunction*
D18*
X222760000Y-30357200D02*
X222780000Y-30357200D01*
X222780000Y-30565200D01*
X222760000Y-30565200D01*
X222760000Y-30585200D01*
X222552000Y-30585200D01*
X222552000Y-30565200D01*
X222532000Y-30565200D01*
X222532000Y-30357200D01*
X222552000Y-30357200D01*
X222552000Y-30337200D01*
X222760000Y-30337200D01*
X222760000Y-30357200D01*
G04 #@! TA.AperFunction,Conductor*
D19*
G36*
X222760000Y-30357200D02*
G01*
X222780000Y-30357200D01*
X222780000Y-30565200D01*
X222760000Y-30565200D01*
X222760000Y-30585200D01*
X222552000Y-30585200D01*
X222552000Y-30565200D01*
X222532000Y-30565200D01*
X222532000Y-30357200D01*
X222552000Y-30357200D01*
X222552000Y-30337200D01*
X222760000Y-30337200D01*
X222760000Y-30357200D01*
G37*
G04 #@! TD.AperFunction*
M02*
