M48
; DRILL file {KiCad (5.1.9)-1} date 04/15/21 17:31:54
; FORMAT={-:-/ absolute / metric / decimal}
; #@! TF.CreationDate,2021-04-15T17:31:54+03:00
; #@! TF.GenerationSoftware,Kicad,Pcbnew,(5.1.9)-1
; #@! TF.FileFunction,Plated,1,2,PTH
FMAT,2
METRIC
T1C0.400
T2C0.800
T3C1.000
%
G90
G05
T1
X207.951Y-36.283
X211.724Y-40.44
X215.115Y-37.883
X219.472Y-31.061
X220.464Y-40.413
X220.492Y-34.83
X220.635Y-30.656
X220.965Y-37.883
X220.996Y-42.303
X222.58Y-41.779
X223.748Y-29.081
X226.181Y-30.656
X227.773Y-33.387
T2
X209.55Y-26.68
X209.55Y-30.48
X209.55Y-40.703
X209.55Y-44.503
X232.537Y-42.735
X234.442Y-26.68
X234.442Y-30.48
X236.337Y-42.735
T3
X203.264Y-30.607
X203.264Y-33.147
X203.264Y-35.687
X203.264Y-38.227
X203.264Y-40.767
X240.474Y-31.941
X240.474Y-34.48
X240.474Y-37.02
X240.474Y-39.56
T0
M30
